<ttFont>
    <TTGlyph name=".notdef" xMin="76" yMin="-220" xMax="688" yMax="1030">
      <contour>
        <pt x="76" y="1030" on="1"/>
        <pt x="688" y="1030" on="1"/>
        <pt x="688" y="-220" on="1"/>
        <pt x="76" y="-220" on="1"/>
      </contour>
      <contour>
        <pt x="558" y="-99" on="1"/>
        <pt x="558" y="910" on="1"/>
        <pt x="206" y="910" on="1"/>
        <pt x="206" y="-99" on="1"/>
      </contour>
    </TTGlyph>
    <TTGlyph name="A" xMin="0" yMin="0" xMax="695" yMax="740">
      <contour>
        <pt x="0" y="8" on="1"/>
        <pt x="226" y="740" on="1"/>
        <pt x="469" y="740" on="1"/>
        <pt x="695" y="8" on="1"/>
        <pt x="695" y="0" on="1"/>
        <pt x="540" y="0" on="1"/>
        <pt x="483" y="181" on="1"/>
        <pt x="211" y="181" on="1"/>
        <pt x="156" y="0" on="1"/>
        <pt x="0" y="0" on="1"/>
      </contour>
      <contour>
        <pt x="448" y="309" on="1"/>
        <pt x="393" y="491" on="1"/>
        <pt x="354" y="624" on="1"/>
        <pt x="341" y="624" on="1"/>
        <pt x="302" y="491" on="1"/>
        <pt x="247" y="309" on="1"/>
      </contour>
    </TTGlyph>
    <TTGlyph name="A.sc" xMin="3" yMin="0" xMax="636" yMax="577">
      <contour>
        <pt x="3" y="7" on="1"/>
        <pt x="205" y="577" on="1"/>
        <pt x="435" y="577" on="1"/>
        <pt x="636" y="7" on="1"/>
        <pt x="636" y="0" on="1"/>
        <pt x="488" y="0" on="1"/>
        <pt x="441" y="124" on="1"/>
        <pt x="197" y="124" on="1"/>
        <pt x="151" y="0" on="1"/>
        <pt x="3" y="0" on="1"/>
      </contour>
      <contour>
        <pt x="412" y="228" on="1"/>
        <pt x="360" y="374" on="1"/>
        <pt x="326" y="470" on="1"/>
        <pt x="313" y="470" on="1"/>
        <pt x="279" y="374" on="1"/>
        <pt x="226" y="228" on="1"/>
      </contour>
    </TTGlyph>
    <TTGlyph name="AE" xMin="-3" yMin="0" xMax="889" yMax="740">
      <contour>
        <pt x="-3" y="8" on="1"/>
        <pt x="269" y="740" on="1"/>
        <pt x="876" y="740" on="1"/>
        <pt x="876" y="610" on="1"/>
        <pt x="580" y="610" on="1"/>
        <pt x="591" y="437" on="1"/>
        <pt x="861" y="437" on="1"/>
        <pt x="861" y="307" on="1"/>
        <pt x="599" y="307" on="1"/>
        <pt x="610" y="130" on="1"/>
        <pt x="889" y="130" on="1"/>
        <pt x="889" y="0" on="1"/>
        <pt x="450" y="0" on="1"/>
        <pt x="443" y="178" on="1"/>
        <pt x="224" y="178" on="1"/>
        <pt x="158" y="0" on="1"/>
        <pt x="-3" y="0" on="1"/>
      </contour>
      <contour>
        <pt x="273" y="312" on="1"/>
        <pt x="437" y="312" on="1"/>
        <pt x="425" y="622" on="1"/>
        <pt x="388" y="622" on="1"/>
      </contour>
    </TTGlyph>
    <TTGlyph name="AE.sc" xMin="1" yMin="0" xMax="815" yMax="577">
      <contour>
        <pt x="1" y="7" on="1"/>
        <pt x="247" y="577" on="1"/>
        <pt x="803" y="577" on="1"/>
        <pt x="803" y="460" on="1"/>
        <pt x="538" y="460" on="1"/>
        <pt x="545" y="343" on="1"/>
        <pt x="790" y="343" on="1"/>
        <pt x="790" y="237" on="1"/>
        <pt x="556" y="237" on="1"/>
        <pt x="565" y="118" on="1"/>
        <pt x="815" y="118" on="1"/>
        <pt x="815" y="0" on="1"/>
        <pt x="413" y="0" on="1"/>
        <pt x="407" y="124" on="1"/>
        <pt x="207" y="124" on="1"/>
        <pt x="154" y="0" on="1"/>
        <pt x="1" y="0" on="1"/>
      </contour>
      <contour>
        <pt x="254" y="229" on="1"/>
        <pt x="401" y="229" on="1"/>
        <pt x="391" y="468" on="1"/>
        <pt x="358" y="468" on="1"/>
      </contour>
    </TTGlyph>
    <TTGlyph name="AEacute" xMin="-3" yMin="0" xMax="889" yMax="975">
      <contour>
        <pt x="458" y="806" on="1"/>
        <pt x="525" y="975" on="1"/>
        <pt x="688" y="975" on="1"/>
        <pt x="573" y="797" on="1"/>
      </contour>
      <contour>
        <pt x="-3" y="8" on="1"/>
        <pt x="269" y="740" on="1"/>
        <pt x="876" y="740" on="1"/>
        <pt x="876" y="610" on="1"/>
        <pt x="580" y="610" on="1"/>
        <pt x="591" y="437" on="1"/>
        <pt x="861" y="437" on="1"/>
        <pt x="861" y="307" on="1"/>
        <pt x="599" y="307" on="1"/>
        <pt x="610" y="130" on="1"/>
        <pt x="889" y="130" on="1"/>
        <pt x="889" y="0" on="1"/>
        <pt x="450" y="0" on="1"/>
        <pt x="443" y="178" on="1"/>
        <pt x="224" y="178" on="1"/>
        <pt x="158" y="0" on="1"/>
        <pt x="-3" y="0" on="1"/>
      </contour>
      <contour>
        <pt x="273" y="312" on="1"/>
        <pt x="437" y="312" on="1"/>
        <pt x="425" y="622" on="1"/>
        <pt x="388" y="622" on="1"/>
      </contour>
    </TTGlyph>
    <TTGlyph name="AEacute.sc" xMin="1" yMin="0" xMax="815" yMax="773">
      <contour>
        <pt x="1" y="7" on="1"/>
        <pt x="247" y="577" on="1"/>
        <pt x="803" y="577" on="1"/>
        <pt x="803" y="460" on="1"/>
        <pt x="538" y="460" on="1"/>
        <pt x="545" y="343" on="1"/>
        <pt x="790" y="343" on="1"/>
        <pt x="790" y="237" on="1"/>
        <pt x="556" y="237" on="1"/>
        <pt x="565" y="118" on="1"/>
        <pt x="815" y="118" on="1"/>
        <pt x="815" y="0" on="1"/>
        <pt x="413" y="0" on="1"/>
        <pt x="407" y="124" on="1"/>
        <pt x="207" y="124" on="1"/>
        <pt x="154" y="0" on="1"/>
        <pt x="1" y="0" on="1"/>
      </contour>
      <contour>
        <pt x="401" y="229" on="1"/>
        <pt x="391" y="468" on="1"/>
        <pt x="358" y="468" on="1"/>
        <pt x="254" y="229" on="1"/>
      </contour>
      <contour>
        <pt x="414" y="631" on="1"/>
        <pt x="473" y="773" on="1"/>
        <pt x="628" y="773" on="1"/>
        <pt x="523" y="623" on="1"/>
      </contour>
    </TTGlyph>
    <TTGlyph name="Aacute" xMin="0" yMin="0" xMax="695" yMax="975">
      <contour>
        <pt x="0" y="8" on="1"/>
        <pt x="226" y="740" on="1"/>
        <pt x="469" y="740" on="1"/>
        <pt x="695" y="8" on="1"/>
        <pt x="695" y="0" on="1"/>
        <pt x="540" y="0" on="1"/>
        <pt x="483" y="181" on="1"/>
        <pt x="211" y="181" on="1"/>
        <pt x="156" y="0" on="1"/>
        <pt x="0" y="0" on="1"/>
      </contour>
      <contour>
        <pt x="448" y="309" on="1"/>
        <pt x="393" y="491" on="1"/>
        <pt x="354" y="624" on="1"/>
        <pt x="341" y="624" on="1"/>
        <pt x="302" y="491" on="1"/>
        <pt x="247" y="309" on="1"/>
      </contour>
      <contour>
        <pt x="285" y="806" on="1"/>
        <pt x="352" y="975" on="1"/>
        <pt x="515" y="975" on="1"/>
        <pt x="400" y="797" on="1"/>
      </contour>
    </TTGlyph>
    <TTGlyph name="Aacute.sc" xMin="3" yMin="0" xMax="636" yMax="773">
      <contour>
        <pt x="3" y="7" on="1"/>
        <pt x="205" y="577" on="1"/>
        <pt x="435" y="577" on="1"/>
        <pt x="636" y="7" on="1"/>
        <pt x="636" y="0" on="1"/>
        <pt x="488" y="0" on="1"/>
        <pt x="441" y="124" on="1"/>
        <pt x="197" y="124" on="1"/>
        <pt x="151" y="0" on="1"/>
        <pt x="3" y="0" on="1"/>
      </contour>
      <contour>
        <pt x="412" y="231" on="1"/>
        <pt x="360" y="374" on="1"/>
        <pt x="326" y="470" on="1"/>
        <pt x="313" y="470" on="1"/>
        <pt x="279" y="374" on="1"/>
        <pt x="227" y="231" on="1"/>
      </contour>
      <contour>
        <pt x="261" y="631" on="1"/>
        <pt x="320" y="773" on="1"/>
        <pt x="474" y="773" on="1"/>
        <pt x="370" y="623" on="1"/>
      </contour>
    </TTGlyph>
    <TTGlyph name="Abreve" xMin="0" yMin="0" xMax="695" yMax="978">
      <contour>
        <pt x="0" y="8" on="1"/>
        <pt x="226" y="740" on="1"/>
        <pt x="469" y="740" on="1"/>
        <pt x="695" y="8" on="1"/>
        <pt x="695" y="0" on="1"/>
        <pt x="540" y="0" on="1"/>
        <pt x="483" y="181" on="1"/>
        <pt x="211" y="181" on="1"/>
        <pt x="156" y="0" on="1"/>
        <pt x="0" y="0" on="1"/>
      </contour>
      <contour>
        <pt x="448" y="309" on="1"/>
        <pt x="393" y="491" on="1"/>
        <pt x="354" y="624" on="1"/>
        <pt x="341" y="624" on="1"/>
        <pt x="302" y="491" on="1"/>
        <pt x="247" y="309" on="1"/>
      </contour>
      <contour>
        <pt x="348" y="805" on="1"/>
        <pt x="295" y="805" on="0"/>
        <pt x="219" y="830" on="0"/>
        <pt x="170" y="876" on="0"/>
        <pt x="147" y="940" on="0"/>
        <pt x="147" y="978" on="1"/>
        <pt x="255" y="978" on="1"/>
        <pt x="255" y="930" on="0"/>
        <pt x="296" y="883" on="0"/>
        <pt x="348" y="883" on="1"/>
        <pt x="400" y="883" on="0"/>
        <pt x="442" y="930" on="0"/>
        <pt x="442" y="978" on="1"/>
        <pt x="550" y="978" on="1"/>
        <pt x="550" y="939" on="0"/>
        <pt x="527" y="876" on="0"/>
        <pt x="477" y="830" on="0"/>
        <pt x="401" y="805" on="0"/>
      </contour>
    </TTGlyph>
    <TTGlyph name="Abreve.sc" xMin="3" yMin="0" xMax="636" yMax="771">
      <contour>
        <pt x="320" y="627" on="1"/>
        <pt x="221" y="627" on="0"/>
        <pt x="134" y="708" on="0"/>
        <pt x="134" y="771" on="1"/>
        <pt x="236" y="771" on="1"/>
        <pt x="236" y="733" on="0"/>
        <pt x="272" y="697" on="0"/>
        <pt x="320" y="697" on="1"/>
        <pt x="368" y="697" on="0"/>
        <pt x="403" y="733" on="0"/>
        <pt x="403" y="771" on="1"/>
        <pt x="505" y="771" on="1"/>
        <pt x="505" y="707" on="0"/>
        <pt x="418" y="627" on="0"/>
      </contour>
      <contour>
        <pt x="3" y="7" on="1"/>
        <pt x="205" y="577" on="1"/>
        <pt x="435" y="577" on="1"/>
        <pt x="636" y="7" on="1"/>
        <pt x="636" y="0" on="1"/>
        <pt x="488" y="0" on="1"/>
        <pt x="441" y="124" on="1"/>
        <pt x="197" y="124" on="1"/>
        <pt x="151" y="0" on="1"/>
        <pt x="3" y="0" on="1"/>
      </contour>
      <contour>
        <pt x="412" y="231" on="1"/>
        <pt x="360" y="374" on="1"/>
        <pt x="326" y="470" on="1"/>
        <pt x="313" y="470" on="1"/>
        <pt x="279" y="374" on="1"/>
        <pt x="227" y="231" on="1"/>
      </contour>
    </TTGlyph>
    <TTGlyph name="Acircumflex" xMin="0" yMin="0" xMax="695" yMax="983">
      <contour>
        <pt x="0" y="8" on="1"/>
        <pt x="226" y="740" on="1"/>
        <pt x="469" y="740" on="1"/>
        <pt x="695" y="8" on="1"/>
        <pt x="695" y="0" on="1"/>
        <pt x="540" y="0" on="1"/>
        <pt x="483" y="181" on="1"/>
        <pt x="211" y="181" on="1"/>
        <pt x="156" y="0" on="1"/>
        <pt x="0" y="0" on="1"/>
      </contour>
      <contour>
        <pt x="448" y="309" on="1"/>
        <pt x="393" y="491" on="1"/>
        <pt x="354" y="624" on="1"/>
        <pt x="341" y="624" on="1"/>
        <pt x="302" y="491" on="1"/>
        <pt x="247" y="309" on="1"/>
      </contour>
      <contour>
        <pt x="165" y="908" on="1"/>
        <pt x="348" y="983" on="1"/>
        <pt x="533" y="908" on="1"/>
        <pt x="533" y="799" on="1"/>
        <pt x="349" y="874" on="1"/>
        <pt x="165" y="799" on="1"/>
      </contour>
    </TTGlyph>
    <TTGlyph name="Acircumflex.sc" xMin="3" yMin="0" xMax="636" yMax="779">
      <contour>
        <pt x="3" y="7" on="1"/>
        <pt x="205" y="577" on="1"/>
        <pt x="435" y="577" on="1"/>
        <pt x="636" y="7" on="1"/>
        <pt x="636" y="0" on="1"/>
        <pt x="488" y="0" on="1"/>
        <pt x="441" y="124" on="1"/>
        <pt x="197" y="124" on="1"/>
        <pt x="151" y="0" on="1"/>
        <pt x="3" y="0" on="1"/>
      </contour>
      <contour>
        <pt x="412" y="231" on="1"/>
        <pt x="360" y="374" on="1"/>
        <pt x="326" y="470" on="1"/>
        <pt x="313" y="470" on="1"/>
        <pt x="279" y="374" on="1"/>
        <pt x="227" y="231" on="1"/>
      </contour>
      <contour>
        <pt x="152" y="719" on="1"/>
        <pt x="320" y="779" on="1"/>
        <pt x="490" y="719" on="1"/>
        <pt x="490" y="620" on="1"/>
        <pt x="321" y="680" on="1"/>
        <pt x="152" y="620" on="1"/>
      </contour>
    </TTGlyph>
    <TTGlyph name="Adblgrave" xMin="0" yMin="0" xMax="695" yMax="974">
      <contour>
        <pt x="0" y="8" on="1"/>
        <pt x="226" y="740" on="1"/>
        <pt x="469" y="740" on="1"/>
        <pt x="695" y="8" on="1"/>
        <pt x="695" y="0" on="1"/>
        <pt x="540" y="0" on="1"/>
        <pt x="483" y="181" on="1"/>
        <pt x="211" y="181" on="1"/>
        <pt x="156" y="0" on="1"/>
        <pt x="0" y="0" on="1"/>
      </contour>
      <contour>
        <pt x="448" y="309" on="1"/>
        <pt x="393" y="491" on="1"/>
        <pt x="354" y="624" on="1"/>
        <pt x="341" y="624" on="1"/>
        <pt x="302" y="491" on="1"/>
        <pt x="247" y="309" on="1"/>
      </contour>
      <contour>
        <pt x="198" y="796" on="1"/>
        <pt x="83" y="974" on="1"/>
        <pt x="231" y="974" on="1"/>
        <pt x="298" y="807" on="1"/>
      </contour>
      <contour>
        <pt x="395" y="796" on="1"/>
        <pt x="279" y="974" on="1"/>
        <pt x="428" y="974" on="1"/>
        <pt x="495" y="807" on="1"/>
      </contour>
    </TTGlyph>
    <TTGlyph name="Adblgrave.sc" xMin="3" yMin="0" xMax="636" yMax="773">
      <contour>
        <pt x="3" y="7" on="1"/>
        <pt x="205" y="577" on="1"/>
        <pt x="435" y="577" on="1"/>
        <pt x="636" y="7" on="1"/>
        <pt x="636" y="0" on="1"/>
        <pt x="488" y="0" on="1"/>
        <pt x="441" y="124" on="1"/>
        <pt x="197" y="124" on="1"/>
        <pt x="151" y="0" on="1"/>
        <pt x="3" y="0" on="1"/>
      </contour>
      <contour>
        <pt x="412" y="231" on="1"/>
        <pt x="360" y="374" on="1"/>
        <pt x="326" y="470" on="1"/>
        <pt x="313" y="470" on="1"/>
        <pt x="279" y="374" on="1"/>
        <pt x="227" y="231" on="1"/>
      </contour>
      <contour>
        <pt x="73" y="773" on="1"/>
        <pt x="216" y="773" on="1"/>
        <pt x="274" y="631" on="1"/>
        <pt x="178" y="623" on="1"/>
      </contour>
      <contour>
        <pt x="254" y="773" on="1"/>
        <pt x="396" y="773" on="1"/>
        <pt x="455" y="631" on="1"/>
        <pt x="359" y="623" on="1"/>
      </contour>
    </TTGlyph>
    <TTGlyph name="Adieresis" xMin="0" yMin="0" xMax="695" yMax="977">
      <contour>
        <pt x="0" y="8" on="1"/>
        <pt x="226" y="740" on="1"/>
        <pt x="469" y="740" on="1"/>
        <pt x="695" y="8" on="1"/>
        <pt x="695" y="0" on="1"/>
        <pt x="540" y="0" on="1"/>
        <pt x="483" y="181" on="1"/>
        <pt x="211" y="181" on="1"/>
        <pt x="156" y="0" on="1"/>
        <pt x="0" y="0" on="1"/>
      </contour>
      <contour>
        <pt x="448" y="309" on="1"/>
        <pt x="393" y="491" on="1"/>
        <pt x="354" y="624" on="1"/>
        <pt x="341" y="624" on="1"/>
        <pt x="302" y="491" on="1"/>
        <pt x="247" y="309" on="1"/>
      </contour>
      <contour>
        <pt x="213" y="804" on="1"/>
        <pt x="166" y="804" on="0"/>
        <pt x="125" y="845" on="0"/>
        <pt x="125" y="891" on="1"/>
        <pt x="125" y="936" on="0"/>
        <pt x="166" y="977" on="0"/>
        <pt x="213" y="977" on="1"/>
        <pt x="260" y="977" on="0"/>
        <pt x="302" y="936" on="0"/>
        <pt x="302" y="891" on="1"/>
        <pt x="302" y="846" on="0"/>
        <pt x="260" y="804" on="0"/>
      </contour>
      <contour>
        <pt x="483" y="804" on="1"/>
        <pt x="436" y="804" on="0"/>
        <pt x="395" y="845" on="0"/>
        <pt x="395" y="891" on="1"/>
        <pt x="395" y="936" on="0"/>
        <pt x="436" y="977" on="0"/>
        <pt x="483" y="977" on="1"/>
        <pt x="530" y="977" on="0"/>
        <pt x="572" y="936" on="0"/>
        <pt x="572" y="891" on="1"/>
        <pt x="572" y="846" on="0"/>
        <pt x="530" y="804" on="0"/>
      </contour>
    </TTGlyph>
    <TTGlyph name="Adieresis.sc" xMin="3" yMin="0" xMax="636" yMax="782">
      <contour>
        <pt x="196" y="623" on="1"/>
        <pt x="152" y="623" on="0"/>
        <pt x="114" y="661" on="0"/>
        <pt x="114" y="703" on="1"/>
        <pt x="114" y="745" on="0"/>
        <pt x="152" y="782" on="0"/>
        <pt x="196" y="782" on="1"/>
        <pt x="241" y="782" on="0"/>
        <pt x="280" y="744" on="0"/>
        <pt x="280" y="703" on="1"/>
        <pt x="280" y="661" on="0"/>
        <pt x="241" y="623" on="0"/>
      </contour>
      <contour>
        <pt x="443" y="623" on="1"/>
        <pt x="398" y="623" on="0"/>
        <pt x="360" y="661" on="0"/>
        <pt x="360" y="703" on="1"/>
        <pt x="360" y="745" on="0"/>
        <pt x="398" y="782" on="0"/>
        <pt x="443" y="782" on="1"/>
        <pt x="488" y="782" on="0"/>
        <pt x="526" y="744" on="0"/>
        <pt x="526" y="703" on="1"/>
        <pt x="526" y="661" on="0"/>
        <pt x="488" y="623" on="0"/>
      </contour>
      <contour>
        <pt x="3" y="7" on="1"/>
        <pt x="205" y="577" on="1"/>
        <pt x="435" y="577" on="1"/>
        <pt x="636" y="7" on="1"/>
        <pt x="636" y="0" on="1"/>
        <pt x="488" y="0" on="1"/>
        <pt x="441" y="124" on="1"/>
        <pt x="197" y="124" on="1"/>
        <pt x="151" y="0" on="1"/>
        <pt x="3" y="0" on="1"/>
      </contour>
      <contour>
        <pt x="412" y="231" on="1"/>
        <pt x="360" y="374" on="1"/>
        <pt x="326" y="470" on="1"/>
        <pt x="313" y="470" on="1"/>
        <pt x="279" y="374" on="1"/>
        <pt x="227" y="231" on="1"/>
      </contour>
    </TTGlyph>
    <TTGlyph name="Agrave" xMin="0" yMin="0" xMax="695" yMax="975">
      <contour>
        <pt x="0" y="8" on="1"/>
        <pt x="226" y="740" on="1"/>
        <pt x="469" y="740" on="1"/>
        <pt x="695" y="8" on="1"/>
        <pt x="695" y="0" on="1"/>
        <pt x="540" y="0" on="1"/>
        <pt x="483" y="181" on="1"/>
        <pt x="211" y="181" on="1"/>
        <pt x="156" y="0" on="1"/>
        <pt x="0" y="0" on="1"/>
      </contour>
      <contour>
        <pt x="448" y="309" on="1"/>
        <pt x="393" y="491" on="1"/>
        <pt x="354" y="624" on="1"/>
        <pt x="341" y="624" on="1"/>
        <pt x="302" y="491" on="1"/>
        <pt x="247" y="309" on="1"/>
      </contour>
      <contour>
        <pt x="281" y="797" on="1"/>
        <pt x="166" y="975" on="1"/>
        <pt x="329" y="975" on="1"/>
        <pt x="397" y="809" on="1"/>
      </contour>
    </TTGlyph>
    <TTGlyph name="Agrave.sc" xMin="3" yMin="0" xMax="636" yMax="773">
      <contour>
        <pt x="3" y="7" on="1"/>
        <pt x="205" y="577" on="1"/>
        <pt x="435" y="577" on="1"/>
        <pt x="636" y="7" on="1"/>
        <pt x="636" y="0" on="1"/>
        <pt x="488" y="0" on="1"/>
        <pt x="441" y="124" on="1"/>
        <pt x="197" y="124" on="1"/>
        <pt x="151" y="0" on="1"/>
        <pt x="3" y="0" on="1"/>
      </contour>
      <contour>
        <pt x="412" y="231" on="1"/>
        <pt x="360" y="374" on="1"/>
        <pt x="326" y="470" on="1"/>
        <pt x="313" y="470" on="1"/>
        <pt x="279" y="374" on="1"/>
        <pt x="227" y="231" on="1"/>
      </contour>
      <contour>
        <pt x="256" y="623" on="1"/>
        <pt x="151" y="773" on="1"/>
        <pt x="306" y="773" on="1"/>
        <pt x="365" y="632" on="1"/>
      </contour>
    </TTGlyph>
    <TTGlyph name="Ainvertedbreve" xMin="0" yMin="0" xMax="695" yMax="987">
      <contour>
        <pt x="0" y="8" on="1"/>
        <pt x="226" y="740" on="1"/>
        <pt x="469" y="740" on="1"/>
        <pt x="695" y="8" on="1"/>
        <pt x="695" y="0" on="1"/>
        <pt x="540" y="0" on="1"/>
        <pt x="483" y="181" on="1"/>
        <pt x="211" y="181" on="1"/>
        <pt x="156" y="0" on="1"/>
        <pt x="0" y="0" on="1"/>
      </contour>
      <contour>
        <pt x="448" y="309" on="1"/>
        <pt x="393" y="491" on="1"/>
        <pt x="354" y="624" on="1"/>
        <pt x="341" y="624" on="1"/>
        <pt x="302" y="491" on="1"/>
        <pt x="247" y="309" on="1"/>
      </contour>
      <contour>
        <pt x="441" y="814" on="1"/>
        <pt x="441" y="862" on="0"/>
        <pt x="400" y="909" on="0"/>
        <pt x="348" y="909" on="1"/>
        <pt x="296" y="909" on="0"/>
        <pt x="254" y="862" on="0"/>
        <pt x="254" y="814" on="1"/>
        <pt x="147" y="814" on="1"/>
        <pt x="147" y="852" on="0"/>
        <pt x="170" y="916" on="0"/>
        <pt x="219" y="962" on="0"/>
        <pt x="295" y="987" on="0"/>
        <pt x="348" y="987" on="1"/>
        <pt x="401" y="987" on="0"/>
        <pt x="477" y="962" on="0"/>
        <pt x="527" y="916" on="0"/>
        <pt x="550" y="853" on="0"/>
        <pt x="550" y="814" on="1"/>
      </contour>
    </TTGlyph>
    <TTGlyph name="Ainvertedbreve.sc" xMin="3" yMin="0" xMax="636" yMax="778">
      <contour>
        <pt x="136" y="634" on="1"/>
        <pt x="136" y="697" on="0"/>
        <pt x="222" y="778" on="0"/>
        <pt x="321" y="778" on="1"/>
        <pt x="419" y="778" on="0"/>
        <pt x="506" y="698" on="0"/>
        <pt x="506" y="634" on="1"/>
        <pt x="404" y="634" on="1"/>
        <pt x="404" y="672" on="0"/>
        <pt x="368" y="707" on="0"/>
        <pt x="321" y="707" on="1"/>
        <pt x="273" y="707" on="0"/>
        <pt x="237" y="672" on="0"/>
        <pt x="237" y="634" on="1"/>
      </contour>
      <contour>
        <pt x="3" y="7" on="1"/>
        <pt x="205" y="577" on="1"/>
        <pt x="435" y="577" on="1"/>
        <pt x="636" y="7" on="1"/>
        <pt x="636" y="0" on="1"/>
        <pt x="488" y="0" on="1"/>
        <pt x="441" y="124" on="1"/>
        <pt x="197" y="124" on="1"/>
        <pt x="151" y="0" on="1"/>
        <pt x="3" y="0" on="1"/>
      </contour>
      <contour>
        <pt x="412" y="231" on="1"/>
        <pt x="360" y="374" on="1"/>
        <pt x="326" y="470" on="1"/>
        <pt x="313" y="470" on="1"/>
        <pt x="279" y="374" on="1"/>
        <pt x="227" y="231" on="1"/>
      </contour>
    </TTGlyph>
    <TTGlyph name="Amacron" xMin="0" yMin="0" xMax="695" yMax="947">
      <contour>
        <pt x="0" y="8" on="1"/>
        <pt x="226" y="740" on="1"/>
        <pt x="469" y="740" on="1"/>
        <pt x="695" y="8" on="1"/>
        <pt x="695" y="0" on="1"/>
        <pt x="540" y="0" on="1"/>
        <pt x="483" y="181" on="1"/>
        <pt x="211" y="181" on="1"/>
        <pt x="156" y="0" on="1"/>
        <pt x="0" y="0" on="1"/>
      </contour>
      <contour>
        <pt x="448" y="309" on="1"/>
        <pt x="393" y="491" on="1"/>
        <pt x="354" y="624" on="1"/>
        <pt x="341" y="624" on="1"/>
        <pt x="302" y="491" on="1"/>
        <pt x="247" y="309" on="1"/>
      </contour>
      <contour>
        <pt x="166" y="947" on="1"/>
        <pt x="527" y="947" on="1"/>
        <pt x="527" y="840" on="1"/>
        <pt x="166" y="840" on="1"/>
      </contour>
    </TTGlyph>
    <TTGlyph name="Amacron.sc" xMin="3" yMin="0" xMax="636" yMax="754">
      <contour>
        <pt x="3" y="7" on="1"/>
        <pt x="205" y="577" on="1"/>
        <pt x="435" y="577" on="1"/>
        <pt x="636" y="7" on="1"/>
        <pt x="636" y="0" on="1"/>
        <pt x="488" y="0" on="1"/>
        <pt x="441" y="124" on="1"/>
        <pt x="197" y="124" on="1"/>
        <pt x="151" y="0" on="1"/>
        <pt x="3" y="0" on="1"/>
      </contour>
      <contour>
        <pt x="412" y="231" on="1"/>
        <pt x="360" y="374" on="1"/>
        <pt x="326" y="470" on="1"/>
        <pt x="313" y="470" on="1"/>
        <pt x="279" y="374" on="1"/>
        <pt x="227" y="231" on="1"/>
      </contour>
      <contour>
        <pt x="153" y="754" on="1"/>
        <pt x="486" y="754" on="1"/>
        <pt x="486" y="655" on="1"/>
        <pt x="153" y="655" on="1"/>
      </contour>
    </TTGlyph>
    <TTGlyph name="Aogonek" xMin="0" yMin="-220" xMax="695" yMax="740">
      <contour>
        <pt x="610" y="-220" on="1"/>
        <pt x="545" y="-220" on="0"/>
        <pt x="477" y="-172" on="0"/>
        <pt x="477" y="-126" on="1"/>
        <pt x="477" y="-56" on="0"/>
        <pt x="564" y="0" on="1"/>
        <pt x="540" y="0" on="1"/>
        <pt x="483" y="181" on="1"/>
        <pt x="211" y="181" on="1"/>
        <pt x="156" y="0" on="1"/>
        <pt x="0" y="0" on="1"/>
        <pt x="0" y="8" on="1"/>
        <pt x="226" y="740" on="1"/>
        <pt x="469" y="740" on="1"/>
        <pt x="695" y="8" on="1"/>
        <pt x="695" y="-10" on="1"/>
        <pt x="632" y="-36" on="0"/>
        <pt x="581" y="-85" on="0"/>
        <pt x="581" y="-106" on="1"/>
        <pt x="581" y="-132" on="0"/>
        <pt x="617" y="-132" on="1"/>
        <pt x="632" y="-132" on="0"/>
        <pt x="676" y="-124" on="0"/>
        <pt x="695" y="-118" on="1"/>
        <pt x="695" y="-208" on="1"/>
        <pt x="654" y="-220" on="0"/>
      </contour>
      <contour>
        <pt x="448" y="309" on="1"/>
        <pt x="393" y="491" on="1"/>
        <pt x="354" y="624" on="1"/>
        <pt x="341" y="624" on="1"/>
        <pt x="302" y="491" on="1"/>
        <pt x="247" y="309" on="1"/>
      </contour>
    </TTGlyph>
    <TTGlyph name="Aogonek.sc" xMin="2" yMin="-169" xMax="636" yMax="577">
      <contour>
        <pt x="558" y="-169" on="1"/>
        <pt x="498" y="-169" on="0"/>
        <pt x="435" y="-129" on="0"/>
        <pt x="435" y="-93" on="1"/>
        <pt x="435" y="-67" on="0"/>
        <pt x="470" y="-19" on="0"/>
        <pt x="504" y="0" on="1"/>
        <pt x="487" y="0" on="1"/>
        <pt x="440" y="124" on="1"/>
        <pt x="197" y="124" on="1"/>
        <pt x="150" y="0" on="1"/>
        <pt x="2" y="0" on="1"/>
        <pt x="2" y="7" on="1"/>
        <pt x="204" y="577" on="1"/>
        <pt x="434" y="577" on="1"/>
        <pt x="636" y="7" on="1"/>
        <pt x="636" y="-5" on="1"/>
        <pt x="604" y="-16" on="0"/>
        <pt x="564" y="-35" on="0"/>
        <pt x="541" y="-51" on="0"/>
        <pt x="533" y="-65" on="0"/>
        <pt x="533" y="-71" on="1"/>
        <pt x="533" y="-81" on="0"/>
        <pt x="548" y="-87" on="0"/>
        <pt x="563" y="-87" on="1"/>
        <pt x="577" y="-87" on="0"/>
        <pt x="622" y="-82" on="0"/>
        <pt x="636" y="-77" on="1"/>
        <pt x="636" y="-160" on="1"/>
        <pt x="597" y="-169" on="0"/>
      </contour>
      <contour>
        <pt x="410" y="231" on="1"/>
        <pt x="359" y="377" on="1"/>
        <pt x="325" y="470" on="1"/>
        <pt x="312" y="470" on="1"/>
        <pt x="278" y="376" on="1"/>
        <pt x="225" y="231" on="1"/>
      </contour>
    </TTGlyph>
    <TTGlyph name="Aring" xMin="0" yMin="0" xMax="695" yMax="995">
      <contour>
        <pt x="0" y="8" on="1"/>
        <pt x="226" y="740" on="1"/>
        <pt x="469" y="740" on="1"/>
        <pt x="695" y="8" on="1"/>
        <pt x="695" y="0" on="1"/>
        <pt x="540" y="0" on="1"/>
        <pt x="483" y="181" on="1"/>
        <pt x="211" y="181" on="1"/>
        <pt x="156" y="0" on="1"/>
        <pt x="0" y="0" on="1"/>
      </contour>
      <contour>
        <pt x="448" y="309" on="1"/>
        <pt x="393" y="491" on="1"/>
        <pt x="354" y="624" on="1"/>
        <pt x="341" y="624" on="1"/>
        <pt x="302" y="491" on="1"/>
        <pt x="247" y="309" on="1"/>
      </contour>
      <contour>
        <pt x="348" y="769" on="1"/>
        <pt x="292" y="769" on="0"/>
        <pt x="221" y="832" on="0"/>
        <pt x="221" y="881" on="1"/>
        <pt x="221" y="931" on="0"/>
        <pt x="292" y="995" on="0"/>
        <pt x="348" y="995" on="1"/>
        <pt x="403" y="995" on="0"/>
        <pt x="474" y="931" on="0"/>
        <pt x="474" y="881" on="1"/>
        <pt x="474" y="832" on="0"/>
        <pt x="403" y="769" on="0"/>
      </contour>
      <contour>
        <pt x="348" y="826" on="1"/>
        <pt x="381" y="826" on="0"/>
        <pt x="409" y="853" on="0"/>
        <pt x="409" y="881" on="1"/>
        <pt x="409" y="910" on="0"/>
        <pt x="381" y="938" on="0"/>
        <pt x="348" y="938" on="1"/>
        <pt x="314" y="938" on="0"/>
        <pt x="286" y="910" on="0"/>
        <pt x="286" y="881" on="1"/>
        <pt x="286" y="853" on="0"/>
        <pt x="314" y="826" on="0"/>
      </contour>
    </TTGlyph>
    <TTGlyph name="Aring.sc" xMin="3" yMin="0" xMax="636" yMax="792">
      <contour>
        <pt x="3" y="7" on="1"/>
        <pt x="205" y="577" on="1"/>
        <pt x="435" y="577" on="1"/>
        <pt x="636" y="7" on="1"/>
        <pt x="636" y="0" on="1"/>
        <pt x="488" y="0" on="1"/>
        <pt x="441" y="124" on="1"/>
        <pt x="197" y="124" on="1"/>
        <pt x="151" y="0" on="1"/>
        <pt x="3" y="0" on="1"/>
      </contour>
      <contour>
        <pt x="411" y="231" on="1"/>
        <pt x="360" y="374" on="1"/>
        <pt x="326" y="470" on="1"/>
        <pt x="313" y="470" on="1"/>
        <pt x="279" y="374" on="1"/>
        <pt x="226" y="231" on="1"/>
      </contour>
      <contour>
        <pt x="319" y="611" on="1"/>
        <pt x="269" y="611" on="0"/>
        <pt x="204" y="662" on="0"/>
        <pt x="204" y="701" on="1"/>
        <pt x="204" y="741" on="0"/>
        <pt x="269" y="792" on="0"/>
        <pt x="319" y="792" on="1"/>
        <pt x="370" y="792" on="0"/>
        <pt x="434" y="741" on="0"/>
        <pt x="434" y="701" on="1"/>
        <pt x="434" y="662" on="0"/>
        <pt x="370" y="611" on="0"/>
      </contour>
      <contour>
        <pt x="319" y="661" on="1"/>
        <pt x="349" y="661" on="0"/>
        <pt x="374" y="680" on="0"/>
        <pt x="374" y="701" on="1"/>
        <pt x="374" y="723" on="0"/>
        <pt x="349" y="743" on="0"/>
        <pt x="319" y="743" on="1"/>
        <pt x="289" y="743" on="0"/>
        <pt x="265" y="723" on="0"/>
        <pt x="265" y="701" on="1"/>
        <pt x="265" y="680" on="0"/>
        <pt x="289" y="661" on="0"/>
      </contour>
    </TTGlyph>
    <TTGlyph name="Aringacute" xMin="0" yMin="0" xMax="695" yMax="1002">
      <contour>
        <pt x="0" y="8" on="1"/>
        <pt x="209" y="671" on="1"/>
        <pt x="178" y="704" on="0"/>
        <pt x="178" y="753" on="1"/>
        <pt x="178" y="806" on="0"/>
        <pt x="245" y="879" on="0"/>
        <pt x="303" y="889" on="1"/>
        <pt x="351" y="1002" on="1"/>
        <pt x="514" y="1002" on="1"/>
        <pt x="432" y="876" on="1"/>
        <pt x="473" y="859" on="0"/>
        <pt x="518" y="795" on="0"/>
        <pt x="518" y="753" on="1"/>
        <pt x="518" y="728" on="0"/>
        <pt x="501" y="686" on="0"/>
        <pt x="486" y="670" on="1"/>
        <pt x="695" y="8" on="1"/>
        <pt x="695" y="0" on="1"/>
        <pt x="539" y="0" on="1"/>
        <pt x="484" y="178" on="1"/>
        <pt x="210" y="178" on="1"/>
        <pt x="156" y="0" on="1"/>
        <pt x="0" y="0" on="1"/>
      </contour>
      <contour>
        <pt x="347" y="690" on="1"/>
        <pt x="382" y="690" on="0"/>
        <pt x="424" y="725" on="0"/>
        <pt x="424" y="753" on="1"/>
        <pt x="424" y="782" on="0"/>
        <pt x="382" y="817" on="0"/>
        <pt x="347" y="817" on="1"/>
        <pt x="312" y="817" on="0"/>
        <pt x="273" y="782" on="0"/>
        <pt x="273" y="753" on="1"/>
        <pt x="273" y="724" on="0"/>
        <pt x="313" y="690" on="0"/>
      </contour>
      <contour>
        <pt x="446" y="312" on="1"/>
        <pt x="393" y="491" on="1"/>
        <pt x="361" y="604" on="1"/>
        <pt x="334" y="604" on="1"/>
        <pt x="302" y="491" on="1"/>
        <pt x="248" y="312" on="1"/>
      </contour>
    </TTGlyph>
    <TTGlyph name="Aringacute.sc" xMin="3" yMin="0" xMax="636" yMax="796">
      <contour>
        <pt x="3" y="7" on="1"/>
        <pt x="189" y="528" on="1"/>
        <pt x="163" y="556" on="0"/>
        <pt x="163" y="591" on="1"/>
        <pt x="163" y="636" on="0"/>
        <pt x="223" y="695" on="0"/>
        <pt x="277" y="704" on="1"/>
        <pt x="319" y="796" on="1"/>
        <pt x="473" y="796" on="1"/>
        <pt x="399" y="692" on="1"/>
        <pt x="436" y="678" on="0"/>
        <pt x="478" y="625" on="0"/>
        <pt x="478" y="591" on="1"/>
        <pt x="478" y="553" on="0"/>
        <pt x="449" y="526" on="1"/>
        <pt x="636" y="7" on="1"/>
        <pt x="636" y="0" on="1"/>
        <pt x="488" y="0" on="1"/>
        <pt x="441" y="124" on="1"/>
        <pt x="197" y="124" on="1"/>
        <pt x="151" y="0" on="1"/>
        <pt x="3" y="0" on="1"/>
      </contour>
      <contour>
        <pt x="319" y="543" on="1"/>
        <pt x="351" y="543" on="0"/>
        <pt x="388" y="570" on="0"/>
        <pt x="388" y="591" on="1"/>
        <pt x="388" y="613" on="0"/>
        <pt x="351" y="639" on="0"/>
        <pt x="319" y="639" on="1"/>
        <pt x="288" y="639" on="0"/>
        <pt x="252" y="613" on="0"/>
        <pt x="252" y="591" on="1"/>
        <pt x="252" y="569" on="0"/>
        <pt x="289" y="543" on="0"/>
      </contour>
      <contour>
        <pt x="412" y="231" on="1"/>
        <pt x="360" y="374" on="1"/>
        <pt x="330" y="464" on="1"/>
        <pt x="307" y="464" on="1"/>
        <pt x="279" y="374" on="1"/>
        <pt x="227" y="231" on="1"/>
      </contour>
    </TTGlyph>
    <TTGlyph name="Atilde" xMin="0" yMin="0" xMax="695" yMax="964">
      <contour>
        <pt x="0" y="8" on="1"/>
        <pt x="226" y="740" on="1"/>
        <pt x="469" y="740" on="1"/>
        <pt x="695" y="8" on="1"/>
        <pt x="695" y="0" on="1"/>
        <pt x="540" y="0" on="1"/>
        <pt x="483" y="181" on="1"/>
        <pt x="211" y="181" on="1"/>
        <pt x="156" y="0" on="1"/>
        <pt x="0" y="0" on="1"/>
      </contour>
      <contour>
        <pt x="448" y="309" on="1"/>
        <pt x="393" y="491" on="1"/>
        <pt x="354" y="624" on="1"/>
        <pt x="341" y="624" on="1"/>
        <pt x="302" y="491" on="1"/>
        <pt x="247" y="309" on="1"/>
      </contour>
      <contour>
        <pt x="138" y="851" on="1"/>
        <pt x="169" y="908" on="0"/>
        <pt x="248" y="964" on="0"/>
        <pt x="286" y="964" on="1"/>
        <pt x="309" y="964" on="0"/>
        <pt x="354" y="952" on="0"/>
        <pt x="397" y="937" on="0"/>
        <pt x="441" y="925" on="0"/>
        <pt x="464" y="925" on="1"/>
        <pt x="485" y="925" on="0"/>
        <pt x="526" y="942" on="0"/>
        <pt x="551" y="963" on="1"/>
        <pt x="574" y="936" on="1"/>
        <pt x="544" y="879" on="0"/>
        <pt x="464" y="821" on="0"/>
        <pt x="426" y="821" on="1"/>
        <pt x="403" y="821" on="0"/>
        <pt x="359" y="833" on="0"/>
        <pt x="315" y="847" on="0"/>
        <pt x="271" y="859" on="0"/>
        <pt x="249" y="859" on="1"/>
        <pt x="227" y="859" on="0"/>
        <pt x="185" y="843" on="0"/>
        <pt x="161" y="823" on="1"/>
      </contour>
    </TTGlyph>
    <TTGlyph name="Atilde.sc" xMin="3" yMin="0" xMax="636" yMax="766">
      <contour>
        <pt x="3" y="7" on="1"/>
        <pt x="205" y="577" on="1"/>
        <pt x="435" y="577" on="1"/>
        <pt x="636" y="7" on="1"/>
        <pt x="636" y="0" on="1"/>
        <pt x="488" y="0" on="1"/>
        <pt x="441" y="124" on="1"/>
        <pt x="197" y="124" on="1"/>
        <pt x="151" y="0" on="1"/>
        <pt x="3" y="0" on="1"/>
      </contour>
      <contour>
        <pt x="411" y="231" on="1"/>
        <pt x="360" y="374" on="1"/>
        <pt x="326" y="470" on="1"/>
        <pt x="313" y="470" on="1"/>
        <pt x="279" y="374" on="1"/>
        <pt x="226" y="231" on="1"/>
      </contour>
      <contour>
        <pt x="127" y="663" on="1"/>
        <pt x="155" y="714" on="0"/>
        <pt x="228" y="766" on="0"/>
        <pt x="263" y="766" on="1"/>
        <pt x="284" y="766" on="0"/>
        <pt x="324" y="757" on="0"/>
        <pt x="365" y="746" on="0"/>
        <pt x="405" y="737" on="0"/>
        <pt x="426" y="737" on="1"/>
        <pt x="446" y="737" on="0"/>
        <pt x="483" y="749" on="0"/>
        <pt x="506" y="766" on="1"/>
        <pt x="526" y="742" on="1"/>
        <pt x="498" y="690" on="0"/>
        <pt x="425" y="639" on="0"/>
        <pt x="391" y="639" on="1"/>
        <pt x="370" y="639" on="0"/>
        <pt x="328" y="648" on="0"/>
        <pt x="288" y="660" on="0"/>
        <pt x="248" y="669" on="0"/>
        <pt x="227" y="669" on="1"/>
        <pt x="207" y="669" on="0"/>
        <pt x="170" y="657" on="0"/>
        <pt x="147" y="640" on="1"/>
      </contour>
    </TTGlyph>
    <TTGlyph name="B" xMin="68" yMin="-10" xMax="638" yMax="750">
      <contour>
        <pt x="325" y="-10" on="1"/>
        <pt x="198" y="-10" on="0"/>
        <pt x="68" y="5" on="1"/>
        <pt x="68" y="735" on="1"/>
        <pt x="140" y="743" on="0"/>
        <pt x="257" y="750" on="0"/>
        <pt x="312" y="750" on="1"/>
        <pt x="471" y="750" on="0"/>
        <pt x="616" y="651" on="0"/>
        <pt x="616" y="542" on="1"/>
        <pt x="616" y="478" on="0"/>
        <pt x="554" y="396" on="0"/>
        <pt x="495" y="382" on="1"/>
        <pt x="495" y="378" on="1"/>
        <pt x="564" y="364" on="0"/>
        <pt x="638" y="273" on="0"/>
        <pt x="638" y="201" on="1"/>
        <pt x="638" y="94" on="0"/>
        <pt x="484" y="-10" on="0"/>
      </contour>
      <contour>
        <pt x="332" y="108" on="1"/>
        <pt x="474" y="108" on="0"/>
        <pt x="474" y="214" on="1"/>
        <pt x="474" y="270" on="0"/>
        <pt x="409" y="318" on="0"/>
        <pt x="332" y="318" on="1"/>
        <pt x="221" y="318" on="1"/>
        <pt x="221" y="114" on="1"/>
        <pt x="236" y="111" on="0"/>
        <pt x="285" y="108" on="0"/>
      </contour>
      <contour>
        <pt x="324" y="429" on="1"/>
        <pt x="395" y="429" on="0"/>
        <pt x="452" y="475" on="0"/>
        <pt x="452" y="531" on="1"/>
        <pt x="452" y="585" on="0"/>
        <pt x="392" y="631" on="0"/>
        <pt x="323" y="631" on="1"/>
        <pt x="267" y="631" on="0"/>
        <pt x="221" y="625" on="1"/>
        <pt x="221" y="429" on="1"/>
      </contour>
    </TTGlyph>
    <TTGlyph name="B.sc" xMin="65" yMin="-8" xMax="585" yMax="585">
      <contour>
        <pt x="304" y="-8" on="1"/>
        <pt x="188" y="-8" on="0"/>
        <pt x="65" y="4" on="1"/>
        <pt x="65" y="573" on="1"/>
        <pt x="131" y="579" on="0"/>
        <pt x="238" y="585" on="0"/>
        <pt x="289" y="585" on="1"/>
        <pt x="433" y="585" on="0"/>
        <pt x="565" y="506" on="0"/>
        <pt x="565" y="421" on="1"/>
        <pt x="565" y="324" on="0"/>
        <pt x="456" y="298" on="1"/>
        <pt x="456" y="295" on="1"/>
        <pt x="519" y="284" on="0"/>
        <pt x="585" y="215" on="0"/>
        <pt x="585" y="159" on="1"/>
        <pt x="585" y="74" on="0"/>
        <pt x="447" y="-8" on="0"/>
      </contour>
      <contour>
        <pt x="309" y="99" on="1"/>
        <pt x="434" y="99" on="0"/>
        <pt x="434" y="172" on="1"/>
        <pt x="434" y="211" on="0"/>
        <pt x="377" y="243" on="0"/>
        <pt x="310" y="243" on="1"/>
        <pt x="210" y="243" on="1"/>
        <pt x="210" y="103" on="1"/>
        <pt x="223" y="101" on="0"/>
        <pt x="265" y="99" on="0"/>
      </contour>
      <contour>
        <pt x="301" y="339" on="1"/>
        <pt x="363" y="339" on="0"/>
        <pt x="413" y="370" on="0"/>
        <pt x="413" y="410" on="1"/>
        <pt x="413" y="447" on="0"/>
        <pt x="361" y="478" on="0"/>
        <pt x="300" y="478" on="1"/>
        <pt x="275" y="478" on="0"/>
        <pt x="230" y="476" on="0"/>
        <pt x="210" y="473" on="1"/>
        <pt x="210" y="339" on="1"/>
      </contour>
    </TTGlyph>
    <TTGlyph name="C" xMin="37" yMin="-11" xMax="538" yMax="751">
      <contour>
        <pt x="385" y="-11" on="1"/>
        <pt x="209" y="-11" on="0"/>
        <pt x="37" y="175" on="0"/>
        <pt x="37" y="369" on="1"/>
        <pt x="37" y="565" on="0"/>
        <pt x="206" y="751" on="0"/>
        <pt x="377" y="751" on="1"/>
        <pt x="443" y="751" on="0"/>
        <pt x="538" y="736" on="1"/>
        <pt x="538" y="605" on="1"/>
        <pt x="490" y="612" on="0"/>
        <pt x="426" y="618" on="0"/>
        <pt x="399" y="618" on="1"/>
        <pt x="344" y="618" on="0"/>
        <pt x="270" y="594" on="0"/>
        <pt x="224" y="537" on="0"/>
        <pt x="204" y="441" on="0"/>
        <pt x="204" y="369" on="1"/>
        <pt x="204" y="298" on="0"/>
        <pt x="224" y="204" on="0"/>
        <pt x="269" y="147" on="0"/>
        <pt x="343" y="123" on="0"/>
        <pt x="396" y="123" on="1"/>
        <pt x="411" y="123" on="0"/>
        <pt x="449" y="125" on="0"/>
        <pt x="488" y="129" on="0"/>
        <pt x="524" y="134" on="0"/>
        <pt x="538" y="137" on="1"/>
        <pt x="538" y="8" on="1"/>
        <pt x="507" y="0" on="0"/>
        <pt x="425" y="-11" on="0"/>
      </contour>
    </TTGlyph>
    <TTGlyph name="C.sc" xMin="37" yMin="-9" xMax="491" yMax="586">
      <contour>
        <pt x="353" y="-9" on="1"/>
        <pt x="192" y="-9" on="0"/>
        <pt x="37" y="136" on="0"/>
        <pt x="37" y="288" on="1"/>
        <pt x="37" y="440" on="0"/>
        <pt x="189" y="586" on="0"/>
        <pt x="344" y="586" on="1"/>
        <pt x="408" y="586" on="0"/>
        <pt x="491" y="574" on="1"/>
        <pt x="491" y="452" on="1"/>
        <pt x="452" y="457" on="0"/>
        <pt x="394" y="461" on="0"/>
        <pt x="364" y="461" on="1"/>
        <pt x="315" y="461" on="0"/>
        <pt x="250" y="446" on="0"/>
        <pt x="211" y="407" on="0"/>
        <pt x="195" y="340" on="0"/>
        <pt x="195" y="288" on="1"/>
        <pt x="195" y="237" on="0"/>
        <pt x="211" y="171" on="0"/>
        <pt x="250" y="132" on="0"/>
        <pt x="314" y="117" on="0"/>
        <pt x="362" y="117" on="1"/>
        <pt x="391" y="117" on="0"/>
        <pt x="466" y="122" on="0"/>
        <pt x="491" y="127" on="1"/>
        <pt x="491" y="6" on="1"/>
        <pt x="464" y="-1" on="0"/>
        <pt x="390" y="-9" on="0"/>
      </contour>
    </TTGlyph>
    <TTGlyph name="Cacute" xMin="37" yMin="-11" xMax="538" yMax="975">
      <contour>
        <pt x="385" y="-11" on="1"/>
        <pt x="209" y="-11" on="0"/>
        <pt x="37" y="175" on="0"/>
        <pt x="37" y="369" on="1"/>
        <pt x="37" y="565" on="0"/>
        <pt x="206" y="751" on="0"/>
        <pt x="377" y="751" on="1"/>
        <pt x="443" y="751" on="0"/>
        <pt x="538" y="736" on="1"/>
        <pt x="538" y="605" on="1"/>
        <pt x="490" y="612" on="0"/>
        <pt x="426" y="618" on="0"/>
        <pt x="399" y="618" on="1"/>
        <pt x="344" y="618" on="0"/>
        <pt x="270" y="594" on="0"/>
        <pt x="224" y="537" on="0"/>
        <pt x="204" y="441" on="0"/>
        <pt x="204" y="369" on="1"/>
        <pt x="204" y="298" on="0"/>
        <pt x="224" y="204" on="0"/>
        <pt x="269" y="147" on="0"/>
        <pt x="343" y="123" on="0"/>
        <pt x="396" y="123" on="1"/>
        <pt x="411" y="123" on="0"/>
        <pt x="449" y="125" on="0"/>
        <pt x="488" y="129" on="0"/>
        <pt x="524" y="134" on="0"/>
        <pt x="538" y="137" on="1"/>
        <pt x="538" y="8" on="1"/>
        <pt x="507" y="0" on="0"/>
        <pt x="425" y="-11" on="0"/>
      </contour>
      <contour>
        <pt x="262" y="806" on="1"/>
        <pt x="329" y="975" on="1"/>
        <pt x="492" y="975" on="1"/>
        <pt x="377" y="797" on="1"/>
      </contour>
    </TTGlyph>
    <TTGlyph name="Cacute.sc" xMin="36" yMin="-9" xMax="490" yMax="773">
      <contour>
        <pt x="353" y="-9" on="1"/>
        <pt x="192" y="-9" on="0"/>
        <pt x="36" y="136" on="0"/>
        <pt x="36" y="288" on="1"/>
        <pt x="36" y="440" on="0"/>
        <pt x="189" y="586" on="0"/>
        <pt x="344" y="586" on="1"/>
        <pt x="374" y="586" on="0"/>
        <pt x="445" y="581" on="0"/>
        <pt x="490" y="574" on="1"/>
        <pt x="490" y="452" on="1"/>
        <pt x="443" y="457" on="0"/>
        <pt x="388" y="461" on="0"/>
        <pt x="364" y="461" on="1"/>
        <pt x="316" y="461" on="0"/>
        <pt x="251" y="446" on="0"/>
        <pt x="212" y="408" on="0"/>
        <pt x="195" y="340" on="0"/>
        <pt x="195" y="288" on="1"/>
        <pt x="195" y="236" on="0"/>
        <pt x="212" y="170" on="0"/>
        <pt x="251" y="132" on="0"/>
        <pt x="314" y="117" on="0"/>
        <pt x="361" y="117" on="1"/>
        <pt x="375" y="117" on="0"/>
        <pt x="410" y="118" on="0"/>
        <pt x="445" y="121" on="0"/>
        <pt x="478" y="125" on="0"/>
        <pt x="490" y="127" on="1"/>
        <pt x="490" y="6" on="1"/>
        <pt x="461" y="-1" on="0"/>
        <pt x="388" y="-9" on="0"/>
      </contour>
      <contour>
        <pt x="236" y="631" on="1"/>
        <pt x="296" y="773" on="1"/>
        <pt x="450" y="773" on="1"/>
        <pt x="345" y="623" on="1"/>
      </contour>
    </TTGlyph>
    <TTGlyph name="Ccaron" xMin="37" yMin="-11" xMax="538" yMax="980">
      <contour>
        <pt x="385" y="-11" on="1"/>
        <pt x="209" y="-11" on="0"/>
        <pt x="37" y="175" on="0"/>
        <pt x="37" y="369" on="1"/>
        <pt x="37" y="565" on="0"/>
        <pt x="206" y="751" on="0"/>
        <pt x="377" y="751" on="1"/>
        <pt x="443" y="751" on="0"/>
        <pt x="538" y="736" on="1"/>
        <pt x="538" y="605" on="1"/>
        <pt x="490" y="612" on="0"/>
        <pt x="426" y="618" on="0"/>
        <pt x="399" y="618" on="1"/>
        <pt x="344" y="618" on="0"/>
        <pt x="270" y="594" on="0"/>
        <pt x="224" y="537" on="0"/>
        <pt x="204" y="441" on="0"/>
        <pt x="204" y="369" on="1"/>
        <pt x="204" y="298" on="0"/>
        <pt x="224" y="204" on="0"/>
        <pt x="269" y="147" on="0"/>
        <pt x="343" y="123" on="0"/>
        <pt x="396" y="123" on="1"/>
        <pt x="411" y="123" on="0"/>
        <pt x="449" y="125" on="0"/>
        <pt x="488" y="129" on="0"/>
        <pt x="524" y="134" on="0"/>
        <pt x="538" y="137" on="1"/>
        <pt x="538" y="8" on="1"/>
        <pt x="507" y="0" on="0"/>
        <pt x="425" y="-11" on="0"/>
      </contour>
      <contour>
        <pt x="147" y="980" on="1"/>
        <pt x="331" y="905" on="1"/>
        <pt x="514" y="980" on="1"/>
        <pt x="514" y="871" on="1"/>
        <pt x="330" y="796" on="1"/>
        <pt x="147" y="871" on="1"/>
      </contour>
    </TTGlyph>
    <TTGlyph name="Ccaron.sc" xMin="36" yMin="-9" xMax="490" yMax="778">
      <contour>
        <pt x="353" y="-9" on="1"/>
        <pt x="192" y="-9" on="0"/>
        <pt x="36" y="136" on="0"/>
        <pt x="36" y="288" on="1"/>
        <pt x="36" y="440" on="0"/>
        <pt x="189" y="586" on="0"/>
        <pt x="344" y="586" on="1"/>
        <pt x="374" y="586" on="0"/>
        <pt x="445" y="581" on="0"/>
        <pt x="490" y="574" on="1"/>
        <pt x="490" y="452" on="1"/>
        <pt x="443" y="457" on="0"/>
        <pt x="388" y="461" on="0"/>
        <pt x="364" y="461" on="1"/>
        <pt x="316" y="461" on="0"/>
        <pt x="251" y="446" on="0"/>
        <pt x="212" y="408" on="0"/>
        <pt x="195" y="340" on="0"/>
        <pt x="195" y="288" on="1"/>
        <pt x="195" y="236" on="0"/>
        <pt x="212" y="170" on="0"/>
        <pt x="251" y="132" on="0"/>
        <pt x="314" y="117" on="0"/>
        <pt x="361" y="117" on="1"/>
        <pt x="375" y="117" on="0"/>
        <pt x="410" y="118" on="0"/>
        <pt x="445" y="121" on="0"/>
        <pt x="478" y="125" on="0"/>
        <pt x="490" y="127" on="1"/>
        <pt x="490" y="6" on="1"/>
        <pt x="461" y="-1" on="0"/>
        <pt x="388" y="-9" on="0"/>
      </contour>
      <contour>
        <pt x="132" y="778" on="1"/>
        <pt x="301" y="719" on="1"/>
        <pt x="469" y="778" on="1"/>
        <pt x="469" y="679" on="1"/>
        <pt x="300" y="619" on="1"/>
        <pt x="132" y="679" on="1"/>
      </contour>
    </TTGlyph>
    <TTGlyph name="Ccedilla" xMin="37" yMin="-220" xMax="538" yMax="751">
      <contour>
        <pt x="313" y="-220" on="1"/>
        <pt x="293" y="-220" on="0"/>
        <pt x="243" y="-213" on="0"/>
        <pt x="217" y="-208" on="1"/>
        <pt x="217" y="-114" on="1"/>
        <pt x="235" y="-119" on="0"/>
        <pt x="275" y="-124" on="0"/>
        <pt x="289" y="-124" on="1"/>
        <pt x="313" y="-124" on="0"/>
        <pt x="333" y="-106" on="0"/>
        <pt x="333" y="-89" on="1"/>
        <pt x="333" y="-57" on="0"/>
        <pt x="298" y="-4" on="1"/>
        <pt x="166" y="17" on="0"/>
        <pt x="37" y="200" on="0"/>
        <pt x="37" y="369" on="1"/>
        <pt x="37" y="565" on="0"/>
        <pt x="206" y="751" on="0"/>
        <pt x="377" y="751" on="1"/>
        <pt x="443" y="751" on="0"/>
        <pt x="538" y="736" on="1"/>
        <pt x="538" y="605" on="1"/>
        <pt x="490" y="612" on="0"/>
        <pt x="426" y="618" on="0"/>
        <pt x="399" y="618" on="1"/>
        <pt x="344" y="618" on="0"/>
        <pt x="270" y="594" on="0"/>
        <pt x="224" y="537" on="0"/>
        <pt x="204" y="441" on="0"/>
        <pt x="204" y="369" on="1"/>
        <pt x="204" y="298" on="0"/>
        <pt x="224" y="204" on="0"/>
        <pt x="269" y="147" on="0"/>
        <pt x="343" y="123" on="0"/>
        <pt x="396" y="123" on="1"/>
        <pt x="411" y="123" on="0"/>
        <pt x="449" y="125" on="0"/>
        <pt x="488" y="129" on="0"/>
        <pt x="524" y="134" on="0"/>
        <pt x="538" y="137" on="1"/>
        <pt x="538" y="8" on="1"/>
        <pt x="510" y="0" on="0"/>
        <pt x="438" y="-9" on="0"/>
        <pt x="402" y="-11" on="1"/>
        <pt x="422" y="-40" on="0"/>
        <pt x="438" y="-85" on="0"/>
        <pt x="438" y="-110" on="1"/>
        <pt x="438" y="-162" on="0"/>
        <pt x="373" y="-220" on="0"/>
      </contour>
    </TTGlyph>
    <TTGlyph name="Ccedilla.sc" xMin="37" yMin="-172" xMax="491" yMax="586">
      <contour>
        <pt x="288" y="-172" on="1"/>
        <pt x="270" y="-172" on="0"/>
        <pt x="224" y="-167" on="0"/>
        <pt x="200" y="-162" on="1"/>
        <pt x="200" y="-77" on="1"/>
        <pt x="218" y="-80" on="0"/>
        <pt x="254" y="-85" on="0"/>
        <pt x="267" y="-85" on="1"/>
        <pt x="287" y="-85" on="0"/>
        <pt x="303" y="-73" on="0"/>
        <pt x="303" y="-64" on="1"/>
        <pt x="303" y="-44" on="0"/>
        <pt x="277" y="-4" on="1"/>
        <pt x="156" y="11" on="0"/>
        <pt x="37" y="154" on="0"/>
        <pt x="37" y="288" on="1"/>
        <pt x="37" y="440" on="0"/>
        <pt x="189" y="586" on="0"/>
        <pt x="344" y="586" on="1"/>
        <pt x="374" y="586" on="0"/>
        <pt x="446" y="581" on="0"/>
        <pt x="491" y="574" on="1"/>
        <pt x="491" y="452" on="1"/>
        <pt x="444" y="457" on="0"/>
        <pt x="388" y="461" on="0"/>
        <pt x="364" y="461" on="1"/>
        <pt x="316" y="461" on="0"/>
        <pt x="251" y="446" on="0"/>
        <pt x="212" y="408" on="0"/>
        <pt x="195" y="340" on="0"/>
        <pt x="195" y="288" on="1"/>
        <pt x="195" y="236" on="0"/>
        <pt x="212" y="170" on="0"/>
        <pt x="251" y="132" on="0"/>
        <pt x="315" y="117" on="0"/>
        <pt x="362" y="117" on="1"/>
        <pt x="390" y="117" on="0"/>
        <pt x="466" y="122" on="0"/>
        <pt x="491" y="127" on="1"/>
        <pt x="491" y="6" on="1"/>
        <pt x="466" y="0" on="0"/>
        <pt x="404" y="-8" on="0"/>
        <pt x="373" y="-9" on="1"/>
        <pt x="388" y="-31" on="0"/>
        <pt x="401" y="-66" on="0"/>
        <pt x="401" y="-85" on="1"/>
        <pt x="401" y="-126" on="0"/>
        <pt x="342" y="-172" on="0"/>
      </contour>
    </TTGlyph>
    <TTGlyph name="Ccircumflex" xMin="37" yMin="-11" xMax="538" yMax="983">
      <contour>
        <pt x="385" y="-11" on="1"/>
        <pt x="209" y="-11" on="0"/>
        <pt x="37" y="175" on="0"/>
        <pt x="37" y="369" on="1"/>
        <pt x="37" y="565" on="0"/>
        <pt x="206" y="751" on="0"/>
        <pt x="377" y="751" on="1"/>
        <pt x="443" y="751" on="0"/>
        <pt x="538" y="736" on="1"/>
        <pt x="538" y="605" on="1"/>
        <pt x="490" y="612" on="0"/>
        <pt x="426" y="618" on="0"/>
        <pt x="399" y="618" on="1"/>
        <pt x="344" y="618" on="0"/>
        <pt x="270" y="594" on="0"/>
        <pt x="224" y="537" on="0"/>
        <pt x="204" y="441" on="0"/>
        <pt x="204" y="369" on="1"/>
        <pt x="204" y="298" on="0"/>
        <pt x="224" y="204" on="0"/>
        <pt x="269" y="147" on="0"/>
        <pt x="343" y="123" on="0"/>
        <pt x="396" y="123" on="1"/>
        <pt x="411" y="123" on="0"/>
        <pt x="449" y="125" on="0"/>
        <pt x="488" y="129" on="0"/>
        <pt x="524" y="134" on="0"/>
        <pt x="538" y="137" on="1"/>
        <pt x="538" y="8" on="1"/>
        <pt x="507" y="0" on="0"/>
        <pt x="425" y="-11" on="0"/>
      </contour>
      <contour>
        <pt x="142" y="908" on="1"/>
        <pt x="325" y="983" on="1"/>
        <pt x="510" y="908" on="1"/>
        <pt x="510" y="799" on="1"/>
        <pt x="326" y="874" on="1"/>
        <pt x="142" y="799" on="1"/>
      </contour>
    </TTGlyph>
    <TTGlyph name="Ccircumflex.sc" xMin="36" yMin="-9" xMax="490" yMax="779">
      <contour>
        <pt x="353" y="-9" on="1"/>
        <pt x="192" y="-9" on="0"/>
        <pt x="36" y="136" on="0"/>
        <pt x="36" y="288" on="1"/>
        <pt x="36" y="440" on="0"/>
        <pt x="189" y="586" on="0"/>
        <pt x="344" y="586" on="1"/>
        <pt x="374" y="586" on="0"/>
        <pt x="445" y="581" on="0"/>
        <pt x="490" y="574" on="1"/>
        <pt x="490" y="452" on="1"/>
        <pt x="443" y="457" on="0"/>
        <pt x="388" y="461" on="0"/>
        <pt x="364" y="461" on="1"/>
        <pt x="316" y="461" on="0"/>
        <pt x="251" y="446" on="0"/>
        <pt x="212" y="408" on="0"/>
        <pt x="195" y="340" on="0"/>
        <pt x="195" y="288" on="1"/>
        <pt x="195" y="236" on="0"/>
        <pt x="212" y="170" on="0"/>
        <pt x="251" y="132" on="0"/>
        <pt x="314" y="117" on="0"/>
        <pt x="361" y="117" on="1"/>
        <pt x="375" y="117" on="0"/>
        <pt x="410" y="118" on="0"/>
        <pt x="445" y="121" on="0"/>
        <pt x="478" y="125" on="0"/>
        <pt x="490" y="127" on="1"/>
        <pt x="490" y="6" on="1"/>
        <pt x="461" y="-1" on="0"/>
        <pt x="388" y="-9" on="0"/>
      </contour>
      <contour>
        <pt x="127" y="719" on="1"/>
        <pt x="296" y="779" on="1"/>
        <pt x="465" y="719" on="1"/>
        <pt x="465" y="620" on="1"/>
        <pt x="297" y="680" on="1"/>
        <pt x="127" y="620" on="1"/>
      </contour>
    </TTGlyph>
    <TTGlyph name="Cdotaccent" xMin="37" yMin="-11" xMax="538" yMax="974">
      <contour>
        <pt x="336" y="801" on="1"/>
        <pt x="288" y="801" on="0"/>
        <pt x="247" y="842" on="0"/>
        <pt x="247" y="887" on="1"/>
        <pt x="247" y="933" on="0"/>
        <pt x="288" y="974" on="0"/>
        <pt x="336" y="974" on="1"/>
        <pt x="383" y="974" on="0"/>
        <pt x="424" y="932" on="0"/>
        <pt x="424" y="887" on="1"/>
        <pt x="424" y="842" on="0"/>
        <pt x="383" y="801" on="0"/>
      </contour>
      <contour>
        <pt x="385" y="-11" on="1"/>
        <pt x="209" y="-11" on="0"/>
        <pt x="37" y="175" on="0"/>
        <pt x="37" y="369" on="1"/>
        <pt x="37" y="565" on="0"/>
        <pt x="206" y="751" on="0"/>
        <pt x="377" y="751" on="1"/>
        <pt x="443" y="751" on="0"/>
        <pt x="538" y="736" on="1"/>
        <pt x="538" y="605" on="1"/>
        <pt x="490" y="612" on="0"/>
        <pt x="426" y="618" on="0"/>
        <pt x="399" y="618" on="1"/>
        <pt x="344" y="618" on="0"/>
        <pt x="270" y="594" on="0"/>
        <pt x="224" y="537" on="0"/>
        <pt x="204" y="441" on="0"/>
        <pt x="204" y="369" on="1"/>
        <pt x="204" y="298" on="0"/>
        <pt x="224" y="204" on="0"/>
        <pt x="269" y="147" on="0"/>
        <pt x="343" y="123" on="0"/>
        <pt x="396" y="123" on="1"/>
        <pt x="411" y="123" on="0"/>
        <pt x="449" y="125" on="0"/>
        <pt x="488" y="129" on="0"/>
        <pt x="524" y="134" on="0"/>
        <pt x="538" y="137" on="1"/>
        <pt x="538" y="8" on="1"/>
        <pt x="507" y="0" on="0"/>
        <pt x="425" y="-11" on="0"/>
      </contour>
    </TTGlyph>
    <TTGlyph name="Cdotaccent.sc" xMin="36" yMin="-9" xMax="490" yMax="781">
      <contour>
        <pt x="353" y="-9" on="1"/>
        <pt x="192" y="-9" on="0"/>
        <pt x="36" y="136" on="0"/>
        <pt x="36" y="288" on="1"/>
        <pt x="36" y="440" on="0"/>
        <pt x="189" y="586" on="0"/>
        <pt x="344" y="586" on="1"/>
        <pt x="374" y="586" on="0"/>
        <pt x="445" y="581" on="0"/>
        <pt x="490" y="574" on="1"/>
        <pt x="490" y="452" on="1"/>
        <pt x="443" y="457" on="0"/>
        <pt x="388" y="461" on="0"/>
        <pt x="364" y="461" on="1"/>
        <pt x="316" y="461" on="0"/>
        <pt x="251" y="446" on="0"/>
        <pt x="212" y="408" on="0"/>
        <pt x="195" y="340" on="0"/>
        <pt x="195" y="288" on="1"/>
        <pt x="195" y="236" on="0"/>
        <pt x="212" y="170" on="0"/>
        <pt x="251" y="132" on="0"/>
        <pt x="314" y="117" on="0"/>
        <pt x="361" y="117" on="1"/>
        <pt x="375" y="117" on="0"/>
        <pt x="410" y="118" on="0"/>
        <pt x="445" y="121" on="0"/>
        <pt x="478" y="125" on="0"/>
        <pt x="490" y="127" on="1"/>
        <pt x="490" y="6" on="1"/>
        <pt x="461" y="-1" on="0"/>
        <pt x="388" y="-9" on="0"/>
      </contour>
      <contour>
        <pt x="307" y="622" on="1"/>
        <pt x="263" y="622" on="0"/>
        <pt x="224" y="660" on="0"/>
        <pt x="224" y="702" on="1"/>
        <pt x="224" y="744" on="0"/>
        <pt x="263" y="781" on="0"/>
        <pt x="307" y="781" on="1"/>
        <pt x="352" y="781" on="0"/>
        <pt x="391" y="743" on="0"/>
        <pt x="391" y="702" on="1"/>
        <pt x="391" y="660" on="0"/>
        <pt x="352" y="622" on="0"/>
      </contour>
    </TTGlyph>
    <TTGlyph name="D" xMin="68" yMin="-12" xMax="687" yMax="750">
      <contour>
        <pt x="267" y="-12" on="1"/>
        <pt x="216" y="-12" on="0"/>
        <pt x="113" y="-5" on="0"/>
        <pt x="68" y="1" on="1"/>
        <pt x="68" y="738" on="1"/>
        <pt x="140" y="743" on="0"/>
        <pt x="252" y="750" on="0"/>
        <pt x="295" y="750" on="1"/>
        <pt x="398" y="750" on="0"/>
        <pt x="547" y="706" on="0"/>
        <pt x="642" y="614" on="0"/>
        <pt x="687" y="469" on="0"/>
        <pt x="687" y="369" on="1"/>
        <pt x="687" y="267" on="0"/>
        <pt x="640" y="122" on="0"/>
        <pt x="539" y="31" on="0"/>
        <pt x="380" y="-12" on="0"/>
      </contour>
      <contour>
        <pt x="327" y="118" on="1"/>
        <pt x="380" y="118" on="0"/>
        <pt x="454" y="144" on="0"/>
        <pt x="500" y="203" on="0"/>
        <pt x="520" y="299" on="0"/>
        <pt x="520" y="370" on="1"/>
        <pt x="520" y="440" on="0"/>
        <pt x="499" y="535" on="0"/>
        <pt x="452" y="593" on="0"/>
        <pt x="375" y="619" on="0"/>
        <pt x="320" y="619" on="1"/>
        <pt x="299" y="619" on="0"/>
        <pt x="254" y="617" on="0"/>
        <pt x="229" y="614" on="1"/>
        <pt x="229" y="126" on="1"/>
        <pt x="256" y="122" on="0"/>
        <pt x="303" y="118" on="0"/>
      </contour>
    </TTGlyph>
    <TTGlyph name="D.sc" xMin="65" yMin="-9" xMax="629" yMax="585">
      <contour>
        <pt x="269" y="-9" on="1"/>
        <pt x="217" y="-9" on="0"/>
        <pt x="109" y="-4" on="0"/>
        <pt x="65" y="1" on="1"/>
        <pt x="65" y="576" on="1"/>
        <pt x="195" y="585" on="0"/>
        <pt x="274" y="585" on="1"/>
        <pt x="367" y="585" on="0"/>
        <pt x="502" y="551" on="0"/>
        <pt x="588" y="479" on="0"/>
        <pt x="629" y="366" on="0"/>
        <pt x="629" y="288" on="1"/>
        <pt x="629" y="209" on="0"/>
        <pt x="588" y="97" on="0"/>
        <pt x="500" y="25" on="0"/>
        <pt x="364" y="-9" on="0"/>
      </contour>
      <contour>
        <pt x="306" y="113" on="1"/>
        <pt x="352" y="113" on="0"/>
        <pt x="416" y="130" on="0"/>
        <pt x="455" y="170" on="0"/>
        <pt x="472" y="237" on="0"/>
        <pt x="472" y="288" on="1"/>
        <pt x="472" y="338" on="0"/>
        <pt x="454" y="405" on="0"/>
        <pt x="413" y="446" on="0"/>
        <pt x="347" y="463" on="0"/>
        <pt x="298" y="463" on="1"/>
        <pt x="279" y="463" on="0"/>
        <pt x="240" y="461" on="0"/>
        <pt x="218" y="459" on="1"/>
        <pt x="218" y="119" on="1"/>
        <pt x="241" y="116" on="0"/>
        <pt x="283" y="113" on="0"/>
      </contour>
    </TTGlyph>
    <TTGlyph name="Dcaron" xMin="68" yMin="-12" xMax="687" yMax="980">
      <contour>
        <pt x="166" y="980" on="1"/>
        <pt x="350" y="905" on="1"/>
        <pt x="533" y="980" on="1"/>
        <pt x="533" y="871" on="1"/>
        <pt x="349" y="796" on="1"/>
        <pt x="166" y="871" on="1"/>
      </contour>
      <contour>
        <pt x="267" y="-12" on="1"/>
        <pt x="216" y="-12" on="0"/>
        <pt x="113" y="-5" on="0"/>
        <pt x="68" y="1" on="1"/>
        <pt x="68" y="738" on="1"/>
        <pt x="140" y="743" on="0"/>
        <pt x="252" y="750" on="0"/>
        <pt x="295" y="750" on="1"/>
        <pt x="398" y="750" on="0"/>
        <pt x="547" y="706" on="0"/>
        <pt x="642" y="614" on="0"/>
        <pt x="687" y="469" on="0"/>
        <pt x="687" y="369" on="1"/>
        <pt x="687" y="267" on="0"/>
        <pt x="640" y="122" on="0"/>
        <pt x="539" y="31" on="0"/>
        <pt x="380" y="-12" on="0"/>
      </contour>
      <contour>
        <pt x="327" y="118" on="1"/>
        <pt x="380" y="118" on="0"/>
        <pt x="454" y="144" on="0"/>
        <pt x="500" y="203" on="0"/>
        <pt x="520" y="299" on="0"/>
        <pt x="520" y="370" on="1"/>
        <pt x="520" y="440" on="0"/>
        <pt x="499" y="535" on="0"/>
        <pt x="452" y="593" on="0"/>
        <pt x="375" y="619" on="0"/>
        <pt x="320" y="619" on="1"/>
        <pt x="299" y="619" on="0"/>
        <pt x="254" y="617" on="0"/>
        <pt x="229" y="614" on="1"/>
        <pt x="229" y="126" on="1"/>
        <pt x="256" y="122" on="0"/>
        <pt x="303" y="118" on="0"/>
      </contour>
    </TTGlyph>
    <TTGlyph name="Dcaron.sc" xMin="65" yMin="-9" xMax="629" yMax="778">
      <contour>
        <pt x="269" y="-9" on="1"/>
        <pt x="217" y="-9" on="0"/>
        <pt x="109" y="-4" on="0"/>
        <pt x="65" y="1" on="1"/>
        <pt x="65" y="576" on="1"/>
        <pt x="195" y="585" on="0"/>
        <pt x="274" y="585" on="1"/>
        <pt x="367" y="585" on="0"/>
        <pt x="502" y="551" on="0"/>
        <pt x="588" y="479" on="0"/>
        <pt x="629" y="366" on="0"/>
        <pt x="629" y="288" on="1"/>
        <pt x="629" y="209" on="0"/>
        <pt x="588" y="97" on="0"/>
        <pt x="500" y="25" on="0"/>
        <pt x="364" y="-9" on="0"/>
      </contour>
      <contour>
        <pt x="306" y="113" on="1"/>
        <pt x="352" y="113" on="0"/>
        <pt x="416" y="130" on="0"/>
        <pt x="455" y="170" on="0"/>
        <pt x="472" y="237" on="0"/>
        <pt x="472" y="288" on="1"/>
        <pt x="472" y="338" on="0"/>
        <pt x="454" y="405" on="0"/>
        <pt x="413" y="446" on="0"/>
        <pt x="347" y="463" on="0"/>
        <pt x="298" y="463" on="1"/>
        <pt x="279" y="463" on="0"/>
        <pt x="240" y="461" on="0"/>
        <pt x="218" y="459" on="1"/>
        <pt x="218" y="119" on="1"/>
        <pt x="241" y="116" on="0"/>
        <pt x="283" y="113" on="0"/>
      </contour>
      <contour>
        <pt x="156" y="679" on="1"/>
        <pt x="156" y="778" on="1"/>
        <pt x="325" y="719" on="1"/>
        <pt x="494" y="778" on="1"/>
        <pt x="494" y="679" on="1"/>
        <pt x="324" y="619" on="1"/>
      </contour>
    </TTGlyph>
    <TTGlyph name="Dcroat" xMin="2" yMin="-12" xMax="708" yMax="750">
      <contour>
        <pt x="2" y="434" on="1"/>
        <pt x="89" y="434" on="1"/>
        <pt x="89" y="738" on="1"/>
        <pt x="161" y="743" on="0"/>
        <pt x="273" y="750" on="0"/>
        <pt x="316" y="750" on="1"/>
        <pt x="419" y="750" on="0"/>
        <pt x="568" y="706" on="0"/>
        <pt x="663" y="614" on="0"/>
        <pt x="708" y="469" on="0"/>
        <pt x="708" y="369" on="1"/>
        <pt x="708" y="267" on="0"/>
        <pt x="661" y="122" on="0"/>
        <pt x="560" y="31" on="0"/>
        <pt x="401" y="-12" on="0"/>
        <pt x="288" y="-12" on="1"/>
        <pt x="237" y="-12" on="0"/>
        <pt x="134" y="-5" on="0"/>
        <pt x="89" y="1" on="1"/>
        <pt x="89" y="311" on="1"/>
        <pt x="2" y="311" on="1"/>
      </contour>
      <contour>
        <pt x="348" y="118" on="1"/>
        <pt x="401" y="118" on="0"/>
        <pt x="475" y="144" on="0"/>
        <pt x="521" y="203" on="0"/>
        <pt x="541" y="299" on="0"/>
        <pt x="541" y="370" on="1"/>
        <pt x="541" y="440" on="0"/>
        <pt x="520" y="535" on="0"/>
        <pt x="473" y="593" on="0"/>
        <pt x="396" y="619" on="0"/>
        <pt x="341" y="619" on="1"/>
        <pt x="320" y="619" on="0"/>
        <pt x="275" y="617" on="0"/>
        <pt x="250" y="614" on="1"/>
        <pt x="250" y="434" on="1"/>
        <pt x="368" y="434" on="1"/>
        <pt x="368" y="311" on="1"/>
        <pt x="250" y="311" on="1"/>
        <pt x="250" y="126" on="1"/>
        <pt x="277" y="122" on="0"/>
        <pt x="324" y="118" on="0"/>
      </contour>
    </TTGlyph>
    <TTGlyph name="Dcroat.sc" xMin="9" yMin="-9" xMax="651" yMax="585">
      <contour>
        <pt x="9" y="349" on="1"/>
        <pt x="86" y="349" on="1"/>
        <pt x="86" y="576" on="1"/>
        <pt x="221" y="585" on="0"/>
        <pt x="296" y="585" on="1"/>
        <pt x="390" y="585" on="0"/>
        <pt x="524" y="551" on="0"/>
        <pt x="610" y="479" on="0"/>
        <pt x="651" y="367" on="0"/>
        <pt x="651" y="288" on="1"/>
        <pt x="651" y="208" on="0"/>
        <pt x="609" y="95" on="0"/>
        <pt x="517" y="24" on="0"/>
        <pt x="372" y="-9" on="0"/>
        <pt x="269" y="-9" on="1"/>
        <pt x="221" y="-9" on="0"/>
        <pt x="126" y="-4" on="0"/>
        <pt x="86" y="1" on="1"/>
        <pt x="86" y="234" on="1"/>
        <pt x="9" y="234" on="1"/>
      </contour>
      <contour>
        <pt x="327" y="113" on="1"/>
        <pt x="373" y="113" on="0"/>
        <pt x="437" y="129" on="0"/>
        <pt x="476" y="170" on="0"/>
        <pt x="493" y="237" on="0"/>
        <pt x="493" y="288" on="1"/>
        <pt x="493" y="338" on="0"/>
        <pt x="475" y="405" on="0"/>
        <pt x="435" y="446" on="0"/>
        <pt x="368" y="463" on="0"/>
        <pt x="320" y="463" on="1"/>
        <pt x="302" y="463" on="0"/>
        <pt x="263" y="461" on="0"/>
        <pt x="239" y="459" on="1"/>
        <pt x="239" y="349" on="1"/>
        <pt x="340" y="349" on="1"/>
        <pt x="340" y="234" on="1"/>
        <pt x="239" y="234" on="1"/>
        <pt x="239" y="119" on="1"/>
        <pt x="287" y="113" on="0"/>
      </contour>
    </TTGlyph>
    <TTGlyph name="Ddotbelow" xMin="68" yMin="-204" xMax="687" yMax="750">
      <contour>
        <pt x="349" y="-204" on="1"/>
        <pt x="311" y="-204" on="0"/>
        <pt x="278" y="-172" on="0"/>
        <pt x="278" y="-135" on="1"/>
        <pt x="278" y="-99" on="0"/>
        <pt x="311" y="-67" on="0"/>
        <pt x="349" y="-67" on="1"/>
        <pt x="387" y="-67" on="0"/>
        <pt x="420" y="-100" on="0"/>
        <pt x="420" y="-135" on="1"/>
        <pt x="420" y="-171" on="0"/>
        <pt x="387" y="-204" on="0"/>
      </contour>
      <contour>
        <pt x="267" y="-12" on="1"/>
        <pt x="216" y="-12" on="0"/>
        <pt x="113" y="-5" on="0"/>
        <pt x="68" y="1" on="1"/>
        <pt x="68" y="738" on="1"/>
        <pt x="140" y="743" on="0"/>
        <pt x="252" y="750" on="0"/>
        <pt x="295" y="750" on="1"/>
        <pt x="398" y="750" on="0"/>
        <pt x="547" y="706" on="0"/>
        <pt x="642" y="614" on="0"/>
        <pt x="687" y="469" on="0"/>
        <pt x="687" y="369" on="1"/>
        <pt x="687" y="267" on="0"/>
        <pt x="640" y="122" on="0"/>
        <pt x="539" y="31" on="0"/>
        <pt x="380" y="-12" on="0"/>
      </contour>
      <contour>
        <pt x="327" y="118" on="1"/>
        <pt x="380" y="118" on="0"/>
        <pt x="454" y="144" on="0"/>
        <pt x="500" y="203" on="0"/>
        <pt x="520" y="299" on="0"/>
        <pt x="520" y="370" on="1"/>
        <pt x="520" y="440" on="0"/>
        <pt x="499" y="535" on="0"/>
        <pt x="452" y="593" on="0"/>
        <pt x="375" y="619" on="0"/>
        <pt x="320" y="619" on="1"/>
        <pt x="299" y="619" on="0"/>
        <pt x="254" y="617" on="0"/>
        <pt x="229" y="614" on="1"/>
        <pt x="229" y="126" on="1"/>
        <pt x="256" y="122" on="0"/>
        <pt x="303" y="118" on="0"/>
      </contour>
    </TTGlyph>
    <TTGlyph name="Ddotbelow.sc" xMin="65" yMin="-167" xMax="629" yMax="585">
      <contour>
        <pt x="269" y="-9" on="1"/>
        <pt x="217" y="-9" on="0"/>
        <pt x="109" y="-4" on="0"/>
        <pt x="65" y="1" on="1"/>
        <pt x="65" y="576" on="1"/>
        <pt x="195" y="585" on="0"/>
        <pt x="274" y="585" on="1"/>
        <pt x="367" y="585" on="0"/>
        <pt x="502" y="551" on="0"/>
        <pt x="588" y="479" on="0"/>
        <pt x="629" y="366" on="0"/>
        <pt x="629" y="288" on="1"/>
        <pt x="629" y="209" on="0"/>
        <pt x="588" y="97" on="0"/>
        <pt x="500" y="25" on="0"/>
        <pt x="364" y="-9" on="0"/>
      </contour>
      <contour>
        <pt x="306" y="113" on="1"/>
        <pt x="352" y="113" on="0"/>
        <pt x="416" y="130" on="0"/>
        <pt x="455" y="170" on="0"/>
        <pt x="472" y="237" on="0"/>
        <pt x="472" y="288" on="1"/>
        <pt x="472" y="338" on="0"/>
        <pt x="454" y="405" on="0"/>
        <pt x="413" y="446" on="0"/>
        <pt x="347" y="463" on="0"/>
        <pt x="298" y="463" on="1"/>
        <pt x="279" y="463" on="0"/>
        <pt x="240" y="461" on="0"/>
        <pt x="218" y="459" on="1"/>
        <pt x="218" y="119" on="1"/>
        <pt x="241" y="116" on="0"/>
        <pt x="283" y="113" on="0"/>
      </contour>
      <contour>
        <pt x="323" y="-167" on="1"/>
        <pt x="288" y="-167" on="0"/>
        <pt x="257" y="-139" on="0"/>
        <pt x="257" y="-107" on="1"/>
        <pt x="257" y="-75" on="0"/>
        <pt x="288" y="-46" on="0"/>
        <pt x="323" y="-46" on="1"/>
        <pt x="358" y="-46" on="0"/>
        <pt x="389" y="-75" on="0"/>
        <pt x="389" y="-107" on="1"/>
        <pt x="389" y="-138" on="0"/>
        <pt x="358" y="-167" on="0"/>
      </contour>
    </TTGlyph>
    <TTGlyph name="Delta" xMin="20" yMin="0" xMax="759" yMax="740">
      <contour>
        <pt x="291" y="740" on="1"/>
        <pt x="488" y="740" on="1"/>
        <pt x="759" y="0" on="1"/>
        <pt x="20" y="0" on="1"/>
      </contour>
      <contour>
        <pt x="562" y="129" on="1"/>
        <pt x="389" y="603" on="1"/>
        <pt x="216" y="129" on="1"/>
      </contour>
    </TTGlyph>
    <TTGlyph name="E" xMin="68" yMin="0" xMax="580" yMax="740">
      <contour>
        <pt x="68" y="740" on="1"/>
        <pt x="571" y="740" on="1"/>
        <pt x="571" y="610" on="1"/>
        <pt x="230" y="610" on="1"/>
        <pt x="230" y="437" on="1"/>
        <pt x="538" y="437" on="1"/>
        <pt x="538" y="307" on="1"/>
        <pt x="230" y="307" on="1"/>
        <pt x="230" y="130" on="1"/>
        <pt x="580" y="130" on="1"/>
        <pt x="580" y="0" on="1"/>
        <pt x="68" y="0" on="1"/>
      </contour>
    </TTGlyph>
    <TTGlyph name="E.sc" xMin="65" yMin="0" xMax="532" yMax="577">
      <contour>
        <pt x="65" y="577" on="1"/>
        <pt x="524" y="577" on="1"/>
        <pt x="524" y="460" on="1"/>
        <pt x="219" y="460" on="1"/>
        <pt x="219" y="344" on="1"/>
        <pt x="495" y="344" on="1"/>
        <pt x="495" y="237" on="1"/>
        <pt x="219" y="237" on="1"/>
        <pt x="219" y="118" on="1"/>
        <pt x="532" y="118" on="1"/>
        <pt x="532" y="0" on="1"/>
        <pt x="65" y="0" on="1"/>
      </contour>
    </TTGlyph>
    <TTGlyph name="Eacute" xMin="68" yMin="0" xMax="580" yMax="975">
      <contour>
        <pt x="255" y="806" on="1"/>
        <pt x="322" y="975" on="1"/>
        <pt x="485" y="975" on="1"/>
        <pt x="370" y="797" on="1"/>
      </contour>
      <contour>
        <pt x="68" y="740" on="1"/>
        <pt x="571" y="740" on="1"/>
        <pt x="571" y="610" on="1"/>
        <pt x="230" y="610" on="1"/>
        <pt x="230" y="437" on="1"/>
        <pt x="538" y="437" on="1"/>
        <pt x="538" y="307" on="1"/>
        <pt x="230" y="307" on="1"/>
        <pt x="230" y="130" on="1"/>
        <pt x="580" y="130" on="1"/>
        <pt x="580" y="0" on="1"/>
        <pt x="68" y="0" on="1"/>
      </contour>
    </TTGlyph>
    <TTGlyph name="Eacute.sc" xMin="65" yMin="0" xMax="532" yMax="773">
      <contour>
        <pt x="65" y="577" on="1"/>
        <pt x="524" y="577" on="1"/>
        <pt x="524" y="460" on="1"/>
        <pt x="219" y="460" on="1"/>
        <pt x="219" y="344" on="1"/>
        <pt x="495" y="344" on="1"/>
        <pt x="495" y="237" on="1"/>
        <pt x="219" y="237" on="1"/>
        <pt x="219" y="118" on="1"/>
        <pt x="532" y="118" on="1"/>
        <pt x="532" y="0" on="1"/>
        <pt x="65" y="0" on="1"/>
      </contour>
      <contour>
        <pt x="233" y="631" on="1"/>
        <pt x="292" y="773" on="1"/>
        <pt x="447" y="773" on="1"/>
        <pt x="343" y="623" on="1"/>
      </contour>
    </TTGlyph>
    <TTGlyph name="Ebreve" xMin="68" yMin="0" xMax="580" yMax="978">
      <contour>
        <pt x="317" y="805" on="1"/>
        <pt x="264" y="805" on="0"/>
        <pt x="188" y="830" on="0"/>
        <pt x="139" y="876" on="0"/>
        <pt x="116" y="940" on="0"/>
        <pt x="116" y="978" on="1"/>
        <pt x="224" y="978" on="1"/>
        <pt x="224" y="930" on="0"/>
        <pt x="265" y="883" on="0"/>
        <pt x="317" y="883" on="1"/>
        <pt x="369" y="883" on="0"/>
        <pt x="411" y="930" on="0"/>
        <pt x="411" y="978" on="1"/>
        <pt x="519" y="978" on="1"/>
        <pt x="519" y="939" on="0"/>
        <pt x="496" y="876" on="0"/>
        <pt x="446" y="830" on="0"/>
        <pt x="370" y="805" on="0"/>
      </contour>
      <contour>
        <pt x="68" y="740" on="1"/>
        <pt x="571" y="740" on="1"/>
        <pt x="571" y="610" on="1"/>
        <pt x="230" y="610" on="1"/>
        <pt x="230" y="437" on="1"/>
        <pt x="538" y="437" on="1"/>
        <pt x="538" y="307" on="1"/>
        <pt x="230" y="307" on="1"/>
        <pt x="230" y="130" on="1"/>
        <pt x="580" y="130" on="1"/>
        <pt x="580" y="0" on="1"/>
        <pt x="68" y="0" on="1"/>
      </contour>
    </TTGlyph>
    <TTGlyph name="Ebreve.sc" xMin="65" yMin="0" xMax="532" yMax="771">
      <contour>
        <pt x="293" y="627" on="1"/>
        <pt x="194" y="627" on="0"/>
        <pt x="107" y="708" on="0"/>
        <pt x="107" y="771" on="1"/>
        <pt x="209" y="771" on="1"/>
        <pt x="209" y="733" on="0"/>
        <pt x="245" y="697" on="0"/>
        <pt x="293" y="697" on="1"/>
        <pt x="340" y="697" on="0"/>
        <pt x="376" y="733" on="0"/>
        <pt x="376" y="771" on="1"/>
        <pt x="477" y="771" on="1"/>
        <pt x="477" y="707" on="0"/>
        <pt x="391" y="627" on="0"/>
      </contour>
      <contour>
        <pt x="65" y="577" on="1"/>
        <pt x="524" y="577" on="1"/>
        <pt x="524" y="460" on="1"/>
        <pt x="219" y="460" on="1"/>
        <pt x="219" y="344" on="1"/>
        <pt x="495" y="344" on="1"/>
        <pt x="495" y="237" on="1"/>
        <pt x="219" y="237" on="1"/>
        <pt x="219" y="118" on="1"/>
        <pt x="532" y="118" on="1"/>
        <pt x="532" y="0" on="1"/>
        <pt x="65" y="0" on="1"/>
      </contour>
    </TTGlyph>
    <TTGlyph name="Ecaron" xMin="68" yMin="0" xMax="580" yMax="980">
      <contour>
        <pt x="141" y="980" on="1"/>
        <pt x="325" y="905" on="1"/>
        <pt x="508" y="980" on="1"/>
        <pt x="508" y="871" on="1"/>
        <pt x="324" y="796" on="1"/>
        <pt x="141" y="871" on="1"/>
      </contour>
      <contour>
        <pt x="68" y="740" on="1"/>
        <pt x="571" y="740" on="1"/>
        <pt x="571" y="610" on="1"/>
        <pt x="230" y="610" on="1"/>
        <pt x="230" y="437" on="1"/>
        <pt x="538" y="437" on="1"/>
        <pt x="538" y="307" on="1"/>
        <pt x="230" y="307" on="1"/>
        <pt x="230" y="130" on="1"/>
        <pt x="580" y="130" on="1"/>
        <pt x="580" y="0" on="1"/>
        <pt x="68" y="0" on="1"/>
      </contour>
    </TTGlyph>
    <TTGlyph name="Ecaron.sc" xMin="65" yMin="0" xMax="532" yMax="778">
      <contour>
        <pt x="65" y="577" on="1"/>
        <pt x="524" y="577" on="1"/>
        <pt x="524" y="460" on="1"/>
        <pt x="219" y="460" on="1"/>
        <pt x="219" y="344" on="1"/>
        <pt x="495" y="344" on="1"/>
        <pt x="495" y="237" on="1"/>
        <pt x="219" y="237" on="1"/>
        <pt x="219" y="118" on="1"/>
        <pt x="532" y="118" on="1"/>
        <pt x="532" y="0" on="1"/>
        <pt x="65" y="0" on="1"/>
      </contour>
      <contour>
        <pt x="131" y="679" on="1"/>
        <pt x="131" y="778" on="1"/>
        <pt x="299" y="719" on="1"/>
        <pt x="468" y="778" on="1"/>
        <pt x="468" y="679" on="1"/>
        <pt x="298" y="619" on="1"/>
      </contour>
    </TTGlyph>
    <TTGlyph name="Ecircumflex" xMin="68" yMin="0" xMax="580" yMax="983">
      <contour>
        <pt x="68" y="740" on="1"/>
        <pt x="571" y="740" on="1"/>
        <pt x="571" y="610" on="1"/>
        <pt x="230" y="610" on="1"/>
        <pt x="230" y="437" on="1"/>
        <pt x="538" y="437" on="1"/>
        <pt x="538" y="307" on="1"/>
        <pt x="230" y="307" on="1"/>
        <pt x="230" y="130" on="1"/>
        <pt x="580" y="130" on="1"/>
        <pt x="580" y="0" on="1"/>
        <pt x="68" y="0" on="1"/>
      </contour>
      <contour>
        <pt x="145" y="908" on="1"/>
        <pt x="328" y="983" on="1"/>
        <pt x="513" y="908" on="1"/>
        <pt x="513" y="799" on="1"/>
        <pt x="329" y="874" on="1"/>
        <pt x="145" y="799" on="1"/>
      </contour>
    </TTGlyph>
    <TTGlyph name="Ecircumflex.sc" xMin="65" yMin="0" xMax="532" yMax="779">
      <contour>
        <pt x="65" y="577" on="1"/>
        <pt x="524" y="577" on="1"/>
        <pt x="524" y="460" on="1"/>
        <pt x="219" y="460" on="1"/>
        <pt x="219" y="344" on="1"/>
        <pt x="495" y="344" on="1"/>
        <pt x="495" y="237" on="1"/>
        <pt x="219" y="237" on="1"/>
        <pt x="219" y="118" on="1"/>
        <pt x="532" y="118" on="1"/>
        <pt x="532" y="0" on="1"/>
        <pt x="65" y="0" on="1"/>
      </contour>
      <contour>
        <pt x="135" y="719" on="1"/>
        <pt x="303" y="779" on="1"/>
        <pt x="473" y="719" on="1"/>
        <pt x="473" y="620" on="1"/>
        <pt x="304" y="680" on="1"/>
        <pt x="135" y="620" on="1"/>
      </contour>
    </TTGlyph>
    <TTGlyph name="Edblgrave" xMin="59" yMin="0" xMax="580" yMax="974">
      <contour>
        <pt x="68" y="740" on="1"/>
        <pt x="571" y="740" on="1"/>
        <pt x="571" y="610" on="1"/>
        <pt x="230" y="610" on="1"/>
        <pt x="230" y="437" on="1"/>
        <pt x="538" y="437" on="1"/>
        <pt x="538" y="307" on="1"/>
        <pt x="230" y="307" on="1"/>
        <pt x="230" y="130" on="1"/>
        <pt x="580" y="130" on="1"/>
        <pt x="580" y="0" on="1"/>
        <pt x="68" y="0" on="1"/>
      </contour>
      <contour>
        <pt x="174" y="796" on="1"/>
        <pt x="59" y="974" on="1"/>
        <pt x="207" y="974" on="1"/>
        <pt x="274" y="807" on="1"/>
      </contour>
      <contour>
        <pt x="371" y="796" on="1"/>
        <pt x="255" y="974" on="1"/>
        <pt x="404" y="974" on="1"/>
        <pt x="471" y="807" on="1"/>
      </contour>
    </TTGlyph>
    <TTGlyph name="Edblgrave.sc" xMin="53" yMin="0" xMax="532" yMax="773">
      <contour>
        <pt x="65" y="577" on="1"/>
        <pt x="524" y="577" on="1"/>
        <pt x="524" y="460" on="1"/>
        <pt x="219" y="460" on="1"/>
        <pt x="219" y="344" on="1"/>
        <pt x="495" y="344" on="1"/>
        <pt x="495" y="237" on="1"/>
        <pt x="219" y="237" on="1"/>
        <pt x="219" y="118" on="1"/>
        <pt x="532" y="118" on="1"/>
        <pt x="532" y="0" on="1"/>
        <pt x="65" y="0" on="1"/>
      </contour>
      <contour>
        <pt x="53" y="773" on="1"/>
        <pt x="196" y="773" on="1"/>
        <pt x="254" y="631" on="1"/>
        <pt x="158" y="623" on="1"/>
      </contour>
      <contour>
        <pt x="234" y="773" on="1"/>
        <pt x="376" y="773" on="1"/>
        <pt x="435" y="631" on="1"/>
        <pt x="339" y="623" on="1"/>
      </contour>
    </TTGlyph>
    <TTGlyph name="Edieresis" xMin="68" yMin="0" xMax="580" yMax="977">
      <contour>
        <pt x="190" y="804" on="1"/>
        <pt x="143" y="804" on="0"/>
        <pt x="102" y="845" on="0"/>
        <pt x="102" y="891" on="1"/>
        <pt x="102" y="936" on="0"/>
        <pt x="143" y="977" on="0"/>
        <pt x="190" y="977" on="1"/>
        <pt x="237" y="977" on="0"/>
        <pt x="279" y="936" on="0"/>
        <pt x="279" y="891" on="1"/>
        <pt x="279" y="846" on="0"/>
        <pt x="237" y="804" on="0"/>
      </contour>
      <contour>
        <pt x="460" y="804" on="1"/>
        <pt x="413" y="804" on="0"/>
        <pt x="372" y="845" on="0"/>
        <pt x="372" y="891" on="1"/>
        <pt x="372" y="936" on="0"/>
        <pt x="413" y="977" on="0"/>
        <pt x="460" y="977" on="1"/>
        <pt x="507" y="977" on="0"/>
        <pt x="549" y="936" on="0"/>
        <pt x="549" y="891" on="1"/>
        <pt x="549" y="846" on="0"/>
        <pt x="507" y="804" on="0"/>
      </contour>
      <contour>
        <pt x="68" y="740" on="1"/>
        <pt x="571" y="740" on="1"/>
        <pt x="571" y="610" on="1"/>
        <pt x="230" y="610" on="1"/>
        <pt x="230" y="437" on="1"/>
        <pt x="538" y="437" on="1"/>
        <pt x="538" y="307" on="1"/>
        <pt x="230" y="307" on="1"/>
        <pt x="230" y="130" on="1"/>
        <pt x="580" y="130" on="1"/>
        <pt x="580" y="0" on="1"/>
        <pt x="68" y="0" on="1"/>
      </contour>
    </TTGlyph>
    <TTGlyph name="Edieresis.sc" xMin="65" yMin="0" xMax="532" yMax="782">
      <contour>
        <pt x="178" y="623" on="1"/>
        <pt x="133" y="623" on="0"/>
        <pt x="95" y="661" on="0"/>
        <pt x="95" y="703" on="1"/>
        <pt x="95" y="745" on="0"/>
        <pt x="133" y="782" on="0"/>
        <pt x="178" y="782" on="1"/>
        <pt x="222" y="782" on="0"/>
        <pt x="261" y="744" on="0"/>
        <pt x="261" y="703" on="1"/>
        <pt x="261" y="661" on="0"/>
        <pt x="222" y="623" on="0"/>
      </contour>
      <contour>
        <pt x="424" y="623" on="1"/>
        <pt x="380" y="623" on="0"/>
        <pt x="342" y="661" on="0"/>
        <pt x="342" y="703" on="1"/>
        <pt x="342" y="745" on="0"/>
        <pt x="380" y="782" on="0"/>
        <pt x="424" y="782" on="1"/>
        <pt x="469" y="782" on="0"/>
        <pt x="507" y="744" on="0"/>
        <pt x="507" y="703" on="1"/>
        <pt x="507" y="661" on="0"/>
        <pt x="469" y="623" on="0"/>
      </contour>
      <contour>
        <pt x="65" y="577" on="1"/>
        <pt x="524" y="577" on="1"/>
        <pt x="524" y="460" on="1"/>
        <pt x="219" y="460" on="1"/>
        <pt x="219" y="344" on="1"/>
        <pt x="495" y="344" on="1"/>
        <pt x="495" y="237" on="1"/>
        <pt x="219" y="237" on="1"/>
        <pt x="219" y="118" on="1"/>
        <pt x="532" y="118" on="1"/>
        <pt x="532" y="0" on="1"/>
        <pt x="65" y="0" on="1"/>
      </contour>
    </TTGlyph>
    <TTGlyph name="Edotaccent" xMin="68" yMin="0" xMax="580" yMax="974">
      <contour>
        <pt x="318" y="801" on="1"/>
        <pt x="270" y="801" on="0"/>
        <pt x="229" y="842" on="0"/>
        <pt x="229" y="887" on="1"/>
        <pt x="229" y="933" on="0"/>
        <pt x="270" y="974" on="0"/>
        <pt x="318" y="974" on="1"/>
        <pt x="365" y="974" on="0"/>
        <pt x="406" y="932" on="0"/>
        <pt x="406" y="887" on="1"/>
        <pt x="406" y="842" on="0"/>
        <pt x="365" y="801" on="0"/>
      </contour>
      <contour>
        <pt x="68" y="740" on="1"/>
        <pt x="571" y="740" on="1"/>
        <pt x="571" y="610" on="1"/>
        <pt x="230" y="610" on="1"/>
        <pt x="230" y="437" on="1"/>
        <pt x="538" y="437" on="1"/>
        <pt x="538" y="307" on="1"/>
        <pt x="230" y="307" on="1"/>
        <pt x="230" y="130" on="1"/>
        <pt x="580" y="130" on="1"/>
        <pt x="580" y="0" on="1"/>
        <pt x="68" y="0" on="1"/>
      </contour>
    </TTGlyph>
    <TTGlyph name="Edotaccent.sc" xMin="65" yMin="0" xMax="532" yMax="781">
      <contour>
        <pt x="293" y="622" on="1"/>
        <pt x="248" y="622" on="0"/>
        <pt x="210" y="660" on="0"/>
        <pt x="210" y="702" on="1"/>
        <pt x="210" y="744" on="0"/>
        <pt x="248" y="781" on="0"/>
        <pt x="293" y="781" on="1"/>
        <pt x="337" y="781" on="0"/>
        <pt x="376" y="743" on="0"/>
        <pt x="376" y="702" on="1"/>
        <pt x="376" y="660" on="0"/>
        <pt x="337" y="622" on="0"/>
      </contour>
      <contour>
        <pt x="65" y="577" on="1"/>
        <pt x="524" y="577" on="1"/>
        <pt x="524" y="460" on="1"/>
        <pt x="219" y="460" on="1"/>
        <pt x="219" y="344" on="1"/>
        <pt x="495" y="344" on="1"/>
        <pt x="495" y="237" on="1"/>
        <pt x="219" y="237" on="1"/>
        <pt x="219" y="118" on="1"/>
        <pt x="532" y="118" on="1"/>
        <pt x="532" y="0" on="1"/>
        <pt x="65" y="0" on="1"/>
      </contour>
    </TTGlyph>
    <TTGlyph name="Edotbelow" xMin="68" yMin="-204" xMax="580" yMax="740">
      <contour>
        <pt x="68" y="740" on="1"/>
        <pt x="571" y="740" on="1"/>
        <pt x="571" y="610" on="1"/>
        <pt x="230" y="610" on="1"/>
        <pt x="230" y="437" on="1"/>
        <pt x="538" y="437" on="1"/>
        <pt x="538" y="307" on="1"/>
        <pt x="230" y="307" on="1"/>
        <pt x="230" y="130" on="1"/>
        <pt x="580" y="130" on="1"/>
        <pt x="580" y="0" on="1"/>
        <pt x="68" y="0" on="1"/>
      </contour>
      <contour>
        <pt x="335" y="-204" on="1"/>
        <pt x="297" y="-204" on="0"/>
        <pt x="264" y="-172" on="0"/>
        <pt x="264" y="-135" on="1"/>
        <pt x="264" y="-99" on="0"/>
        <pt x="297" y="-67" on="0"/>
        <pt x="335" y="-67" on="1"/>
        <pt x="373" y="-67" on="0"/>
        <pt x="406" y="-100" on="0"/>
        <pt x="406" y="-135" on="1"/>
        <pt x="406" y="-171" on="0"/>
        <pt x="373" y="-204" on="0"/>
      </contour>
    </TTGlyph>
    <TTGlyph name="Edotbelow.sc" xMin="65" yMin="-167" xMax="532" yMax="577">
      <contour>
        <pt x="308" y="-167" on="1"/>
        <pt x="273" y="-167" on="0"/>
        <pt x="243" y="-139" on="0"/>
        <pt x="243" y="-107" on="1"/>
        <pt x="243" y="-75" on="0"/>
        <pt x="273" y="-46" on="0"/>
        <pt x="308" y="-46" on="1"/>
        <pt x="344" y="-46" on="0"/>
        <pt x="374" y="-75" on="0"/>
        <pt x="374" y="-107" on="1"/>
        <pt x="374" y="-138" on="0"/>
        <pt x="344" y="-167" on="0"/>
      </contour>
      <contour>
        <pt x="65" y="577" on="1"/>
        <pt x="524" y="577" on="1"/>
        <pt x="524" y="460" on="1"/>
        <pt x="219" y="460" on="1"/>
        <pt x="219" y="344" on="1"/>
        <pt x="495" y="344" on="1"/>
        <pt x="495" y="237" on="1"/>
        <pt x="219" y="237" on="1"/>
        <pt x="219" y="118" on="1"/>
        <pt x="532" y="118" on="1"/>
        <pt x="532" y="0" on="1"/>
        <pt x="65" y="0" on="1"/>
      </contour>
    </TTGlyph>
    <TTGlyph name="Egrave" xMin="68" yMin="0" xMax="580" yMax="975">
      <contour>
        <pt x="273" y="797" on="1"/>
        <pt x="158" y="975" on="1"/>
        <pt x="321" y="975" on="1"/>
        <pt x="389" y="809" on="1"/>
      </contour>
      <contour>
        <pt x="68" y="740" on="1"/>
        <pt x="571" y="740" on="1"/>
        <pt x="571" y="610" on="1"/>
        <pt x="230" y="610" on="1"/>
        <pt x="230" y="437" on="1"/>
        <pt x="538" y="437" on="1"/>
        <pt x="538" y="307" on="1"/>
        <pt x="230" y="307" on="1"/>
        <pt x="230" y="130" on="1"/>
        <pt x="580" y="130" on="1"/>
        <pt x="580" y="0" on="1"/>
        <pt x="68" y="0" on="1"/>
      </contour>
    </TTGlyph>
    <TTGlyph name="Egrave.sc" xMin="65" yMin="0" xMax="532" yMax="773">
      <contour>
        <pt x="65" y="577" on="1"/>
        <pt x="524" y="577" on="1"/>
        <pt x="524" y="460" on="1"/>
        <pt x="219" y="460" on="1"/>
        <pt x="219" y="344" on="1"/>
        <pt x="495" y="344" on="1"/>
        <pt x="495" y="237" on="1"/>
        <pt x="219" y="237" on="1"/>
        <pt x="219" y="118" on="1"/>
        <pt x="532" y="118" on="1"/>
        <pt x="532" y="0" on="1"/>
        <pt x="65" y="0" on="1"/>
      </contour>
      <contour>
        <pt x="148" y="773" on="1"/>
        <pt x="303" y="773" on="1"/>
        <pt x="362" y="632" on="1"/>
        <pt x="252" y="623" on="1"/>
      </contour>
    </TTGlyph>
    <TTGlyph name="Einvertedbreve" xMin="68" yMin="0" xMax="580" yMax="987">
      <contour>
        <pt x="68" y="740" on="1"/>
        <pt x="571" y="740" on="1"/>
        <pt x="571" y="610" on="1"/>
        <pt x="230" y="610" on="1"/>
        <pt x="230" y="437" on="1"/>
        <pt x="538" y="437" on="1"/>
        <pt x="538" y="307" on="1"/>
        <pt x="230" y="307" on="1"/>
        <pt x="230" y="130" on="1"/>
        <pt x="580" y="130" on="1"/>
        <pt x="580" y="0" on="1"/>
        <pt x="68" y="0" on="1"/>
      </contour>
      <contour>
        <pt x="415" y="814" on="1"/>
        <pt x="415" y="862" on="0"/>
        <pt x="374" y="909" on="0"/>
        <pt x="322" y="909" on="1"/>
        <pt x="270" y="909" on="0"/>
        <pt x="228" y="862" on="0"/>
        <pt x="228" y="814" on="1"/>
        <pt x="121" y="814" on="1"/>
        <pt x="121" y="852" on="0"/>
        <pt x="144" y="916" on="0"/>
        <pt x="193" y="962" on="0"/>
        <pt x="269" y="987" on="0"/>
        <pt x="322" y="987" on="1"/>
        <pt x="375" y="987" on="0"/>
        <pt x="451" y="962" on="0"/>
        <pt x="501" y="916" on="0"/>
        <pt x="524" y="853" on="0"/>
        <pt x="524" y="814" on="1"/>
      </contour>
    </TTGlyph>
    <TTGlyph name="Einvertedbreve.sc" xMin="65" yMin="0" xMax="532" yMax="778">
      <contour>
        <pt x="112" y="634" on="1"/>
        <pt x="112" y="697" on="0"/>
        <pt x="198" y="778" on="0"/>
        <pt x="297" y="778" on="1"/>
        <pt x="395" y="778" on="0"/>
        <pt x="482" y="698" on="0"/>
        <pt x="482" y="634" on="1"/>
        <pt x="380" y="634" on="1"/>
        <pt x="380" y="672" on="0"/>
        <pt x="345" y="707" on="0"/>
        <pt x="297" y="707" on="1"/>
        <pt x="249" y="707" on="0"/>
        <pt x="213" y="672" on="0"/>
        <pt x="213" y="634" on="1"/>
      </contour>
      <contour>
        <pt x="65" y="577" on="1"/>
        <pt x="524" y="577" on="1"/>
        <pt x="524" y="460" on="1"/>
        <pt x="219" y="460" on="1"/>
        <pt x="219" y="344" on="1"/>
        <pt x="495" y="344" on="1"/>
        <pt x="495" y="237" on="1"/>
        <pt x="219" y="237" on="1"/>
        <pt x="219" y="118" on="1"/>
        <pt x="532" y="118" on="1"/>
        <pt x="532" y="0" on="1"/>
        <pt x="65" y="0" on="1"/>
      </contour>
    </TTGlyph>
    <TTGlyph name="Emacron" xMin="68" yMin="0" xMax="580" yMax="947">
      <contour>
        <pt x="141" y="947" on="1"/>
        <pt x="502" y="947" on="1"/>
        <pt x="502" y="840" on="1"/>
        <pt x="141" y="840" on="1"/>
      </contour>
      <contour>
        <pt x="68" y="740" on="1"/>
        <pt x="571" y="740" on="1"/>
        <pt x="571" y="610" on="1"/>
        <pt x="230" y="610" on="1"/>
        <pt x="230" y="437" on="1"/>
        <pt x="538" y="437" on="1"/>
        <pt x="538" y="307" on="1"/>
        <pt x="230" y="307" on="1"/>
        <pt x="230" y="130" on="1"/>
        <pt x="580" y="130" on="1"/>
        <pt x="580" y="0" on="1"/>
        <pt x="68" y="0" on="1"/>
      </contour>
    </TTGlyph>
    <TTGlyph name="Emacron.sc" xMin="65" yMin="0" xMax="532" yMax="754">
      <contour>
        <pt x="65" y="577" on="1"/>
        <pt x="524" y="577" on="1"/>
        <pt x="524" y="460" on="1"/>
        <pt x="219" y="460" on="1"/>
        <pt x="219" y="344" on="1"/>
        <pt x="495" y="344" on="1"/>
        <pt x="495" y="237" on="1"/>
        <pt x="219" y="237" on="1"/>
        <pt x="219" y="118" on="1"/>
        <pt x="532" y="118" on="1"/>
        <pt x="532" y="0" on="1"/>
        <pt x="65" y="0" on="1"/>
      </contour>
      <contour>
        <pt x="131" y="754" on="1"/>
        <pt x="463" y="754" on="1"/>
        <pt x="463" y="655" on="1"/>
        <pt x="131" y="655" on="1"/>
      </contour>
    </TTGlyph>
    <TTGlyph name="Eng" xMin="68" yMin="-205" xMax="698" yMax="740">
      <contour>
        <pt x="469" y="-170" on="1"/>
        <pt x="496" y="-110" on="0"/>
        <pt x="528" y="-4" on="0"/>
        <pt x="535" y="46" on="1"/>
        <pt x="277" y="400" on="1"/>
        <pt x="222" y="488" on="1"/>
        <pt x="213" y="488" on="1"/>
        <pt x="213" y="0" on="1"/>
        <pt x="68" y="0" on="1"/>
        <pt x="68" y="740" on="1"/>
        <pt x="197" y="740" on="1"/>
        <pt x="492" y="337" on="1"/>
        <pt x="545" y="253" on="1"/>
        <pt x="554" y="253" on="1"/>
        <pt x="554" y="740" on="1"/>
        <pt x="698" y="740" on="1"/>
        <pt x="698" y="113" on="1"/>
        <pt x="698" y="84" on="0"/>
        <pt x="679" y="5" on="0"/>
        <pt x="646" y="-81" on="0"/>
        <pt x="602" y="-168" on="0"/>
        <pt x="576" y="-205" on="1"/>
      </contour>
    </TTGlyph>
    <TTGlyph name="Eng.sc" xMin="66" yMin="-166" xMax="627" yMax="577">
      <contour>
        <pt x="421" y="-133" on="1"/>
        <pt x="446" y="-81" on="0"/>
        <pt x="473" y="-2" on="0"/>
        <pt x="479" y="36" on="1"/>
        <pt x="262" y="276" on="1"/>
        <pt x="210" y="346" on="1"/>
        <pt x="202" y="346" on="1"/>
        <pt x="202" y="0" on="1"/>
        <pt x="66" y="0" on="1"/>
        <pt x="66" y="577" on="1"/>
        <pt x="187" y="577" on="1"/>
        <pt x="435" y="297" on="1"/>
        <pt x="483" y="232" on="1"/>
        <pt x="491" y="232" on="1"/>
        <pt x="491" y="577" on="1"/>
        <pt x="627" y="577" on="1"/>
        <pt x="627" y="99" on="1"/>
        <pt x="627" y="74" on="0"/>
        <pt x="612" y="10" on="0"/>
        <pt x="584" y="-60" on="0"/>
        <pt x="545" y="-132" on="0"/>
        <pt x="521" y="-166" on="1"/>
      </contour>
    </TTGlyph>
    <TTGlyph name="Eogonek" xMin="68" yMin="-220" xMax="580" yMax="740">
      <contour>
        <pt x="68" y="740" on="1"/>
        <pt x="571" y="740" on="1"/>
        <pt x="571" y="610" on="1"/>
        <pt x="230" y="610" on="1"/>
        <pt x="230" y="437" on="1"/>
        <pt x="538" y="437" on="1"/>
        <pt x="538" y="307" on="1"/>
        <pt x="230" y="307" on="1"/>
        <pt x="230" y="130" on="1"/>
        <pt x="580" y="130" on="1"/>
        <pt x="580" y="-10" on="1"/>
        <pt x="517" y="-36" on="0"/>
        <pt x="466" y="-85" on="0"/>
        <pt x="466" y="-106" on="1"/>
        <pt x="466" y="-132" on="0"/>
        <pt x="502" y="-132" on="1"/>
        <pt x="517" y="-132" on="0"/>
        <pt x="561" y="-124" on="0"/>
        <pt x="580" y="-118" on="1"/>
        <pt x="580" y="-208" on="1"/>
        <pt x="539" y="-220" on="0"/>
        <pt x="495" y="-220" on="1"/>
        <pt x="430" y="-220" on="0"/>
        <pt x="362" y="-172" on="0"/>
        <pt x="362" y="-126" on="1"/>
        <pt x="362" y="-56" on="0"/>
        <pt x="449" y="0" on="1"/>
        <pt x="68" y="0" on="1"/>
      </contour>
    </TTGlyph>
    <TTGlyph name="Eogonek.sc" xMin="66" yMin="-172" xMax="533" yMax="577">
      <contour>
        <pt x="456" y="-172" on="1"/>
        <pt x="332" y="-172" on="0"/>
        <pt x="332" y="-95" on="1"/>
        <pt x="332" y="-66" on="0"/>
        <pt x="369" y="-20" on="0"/>
        <pt x="405" y="0" on="1"/>
        <pt x="66" y="0" on="1"/>
        <pt x="66" y="577" on="1"/>
        <pt x="525" y="577" on="1"/>
        <pt x="525" y="460" on="1"/>
        <pt x="219" y="460" on="1"/>
        <pt x="219" y="344" on="1"/>
        <pt x="495" y="344" on="1"/>
        <pt x="495" y="237" on="1"/>
        <pt x="219" y="237" on="1"/>
        <pt x="219" y="118" on="1"/>
        <pt x="533" y="118" on="1"/>
        <pt x="533" y="-5" on="1"/>
        <pt x="471" y="-28" on="0"/>
        <pt x="430" y="-62" on="0"/>
        <pt x="430" y="-74" on="1"/>
        <pt x="430" y="-90" on="0"/>
        <pt x="460" y="-90" on="1"/>
        <pt x="475" y="-90" on="0"/>
        <pt x="519" y="-84" on="0"/>
        <pt x="533" y="-80" on="1"/>
        <pt x="533" y="-162" on="1"/>
        <pt x="496" y="-172" on="0"/>
      </contour>
    </TTGlyph>
    <TTGlyph name="Eth" xMin="2" yMin="-12" xMax="708" yMax="750">
      <contour>
        <pt x="2" y="434" on="1"/>
        <pt x="89" y="434" on="1"/>
        <pt x="89" y="738" on="1"/>
        <pt x="161" y="743" on="0"/>
        <pt x="273" y="750" on="0"/>
        <pt x="316" y="750" on="1"/>
        <pt x="419" y="750" on="0"/>
        <pt x="568" y="706" on="0"/>
        <pt x="663" y="614" on="0"/>
        <pt x="708" y="469" on="0"/>
        <pt x="708" y="369" on="1"/>
        <pt x="708" y="267" on="0"/>
        <pt x="661" y="122" on="0"/>
        <pt x="560" y="31" on="0"/>
        <pt x="401" y="-12" on="0"/>
        <pt x="288" y="-12" on="1"/>
        <pt x="237" y="-12" on="0"/>
        <pt x="134" y="-5" on="0"/>
        <pt x="89" y="1" on="1"/>
        <pt x="89" y="311" on="1"/>
        <pt x="2" y="311" on="1"/>
      </contour>
      <contour>
        <pt x="348" y="118" on="1"/>
        <pt x="401" y="118" on="0"/>
        <pt x="475" y="144" on="0"/>
        <pt x="521" y="203" on="0"/>
        <pt x="541" y="299" on="0"/>
        <pt x="541" y="370" on="1"/>
        <pt x="541" y="440" on="0"/>
        <pt x="520" y="535" on="0"/>
        <pt x="473" y="593" on="0"/>
        <pt x="396" y="619" on="0"/>
        <pt x="341" y="619" on="1"/>
        <pt x="320" y="619" on="0"/>
        <pt x="275" y="617" on="0"/>
        <pt x="250" y="614" on="1"/>
        <pt x="250" y="434" on="1"/>
        <pt x="368" y="434" on="1"/>
        <pt x="368" y="311" on="1"/>
        <pt x="250" y="311" on="1"/>
        <pt x="250" y="126" on="1"/>
        <pt x="277" y="122" on="0"/>
        <pt x="324" y="118" on="0"/>
      </contour>
    </TTGlyph>
    <TTGlyph name="Eth.sc" xMin="8" yMin="-9" xMax="650" yMax="585">
      <contour>
        <pt x="8" y="345" on="1"/>
        <pt x="85" y="345" on="1"/>
        <pt x="85" y="576" on="1"/>
        <pt x="220" y="585" on="0"/>
        <pt x="295" y="585" on="1"/>
        <pt x="389" y="585" on="0"/>
        <pt x="523" y="551" on="0"/>
        <pt x="609" y="479" on="0"/>
        <pt x="650" y="367" on="0"/>
        <pt x="650" y="288" on="1"/>
        <pt x="650" y="208" on="0"/>
        <pt x="608" y="95" on="0"/>
        <pt x="516" y="24" on="0"/>
        <pt x="371" y="-9" on="0"/>
        <pt x="268" y="-9" on="1"/>
        <pt x="220" y="-9" on="0"/>
        <pt x="125" y="-4" on="0"/>
        <pt x="85" y="1" on="1"/>
        <pt x="85" y="236" on="1"/>
        <pt x="8" y="236" on="1"/>
      </contour>
      <contour>
        <pt x="326" y="113" on="1"/>
        <pt x="372" y="113" on="0"/>
        <pt x="436" y="129" on="0"/>
        <pt x="475" y="170" on="0"/>
        <pt x="492" y="237" on="0"/>
        <pt x="492" y="288" on="1"/>
        <pt x="492" y="338" on="0"/>
        <pt x="474" y="405" on="0"/>
        <pt x="434" y="446" on="0"/>
        <pt x="367" y="463" on="0"/>
        <pt x="319" y="463" on="1"/>
        <pt x="301" y="463" on="0"/>
        <pt x="261" y="461" on="0"/>
        <pt x="238" y="459" on="1"/>
        <pt x="238" y="345" on="1"/>
        <pt x="339" y="345" on="1"/>
        <pt x="339" y="236" on="1"/>
        <pt x="238" y="236" on="1"/>
        <pt x="238" y="119" on="1"/>
        <pt x="286" y="113" on="0"/>
      </contour>
    </TTGlyph>
    <TTGlyph name="Etilde" xMin="68" yMin="0" xMax="580" yMax="964">
      <contour>
        <pt x="111" y="851" on="1"/>
        <pt x="142" y="908" on="0"/>
        <pt x="221" y="964" on="0"/>
        <pt x="259" y="964" on="1"/>
        <pt x="282" y="964" on="0"/>
        <pt x="327" y="952" on="0"/>
        <pt x="370" y="937" on="0"/>
        <pt x="414" y="925" on="0"/>
        <pt x="437" y="925" on="1"/>
        <pt x="458" y="925" on="0"/>
        <pt x="499" y="942" on="0"/>
        <pt x="524" y="963" on="1"/>
        <pt x="547" y="936" on="1"/>
        <pt x="517" y="879" on="0"/>
        <pt x="437" y="821" on="0"/>
        <pt x="399" y="821" on="1"/>
        <pt x="376" y="821" on="0"/>
        <pt x="332" y="833" on="0"/>
        <pt x="288" y="847" on="0"/>
        <pt x="244" y="859" on="0"/>
        <pt x="222" y="859" on="1"/>
        <pt x="200" y="859" on="0"/>
        <pt x="158" y="843" on="0"/>
        <pt x="134" y="823" on="1"/>
      </contour>
      <contour>
        <pt x="68" y="740" on="1"/>
        <pt x="571" y="740" on="1"/>
        <pt x="571" y="610" on="1"/>
        <pt x="230" y="610" on="1"/>
        <pt x="230" y="437" on="1"/>
        <pt x="538" y="437" on="1"/>
        <pt x="538" y="307" on="1"/>
        <pt x="230" y="307" on="1"/>
        <pt x="230" y="130" on="1"/>
        <pt x="580" y="130" on="1"/>
        <pt x="580" y="0" on="1"/>
        <pt x="68" y="0" on="1"/>
      </contour>
    </TTGlyph>
    <TTGlyph name="Etilde.sc" xMin="65" yMin="0" xMax="532" yMax="766">
      <contour>
        <pt x="103" y="663" on="1"/>
        <pt x="132" y="714" on="0"/>
        <pt x="204" y="766" on="0"/>
        <pt x="239" y="766" on="1"/>
        <pt x="260" y="766" on="0"/>
        <pt x="301" y="757" on="0"/>
        <pt x="341" y="746" on="0"/>
        <pt x="382" y="737" on="0"/>
        <pt x="403" y="737" on="1"/>
        <pt x="423" y="737" on="0"/>
        <pt x="459" y="749" on="0"/>
        <pt x="482" y="766" on="1"/>
        <pt x="503" y="742" on="1"/>
        <pt x="474" y="690" on="0"/>
        <pt x="401" y="639" on="0"/>
        <pt x="367" y="639" on="1"/>
        <pt x="346" y="639" on="0"/>
        <pt x="305" y="648" on="0"/>
        <pt x="264" y="660" on="0"/>
        <pt x="224" y="669" on="0"/>
        <pt x="203" y="669" on="1"/>
        <pt x="183" y="669" on="0"/>
        <pt x="146" y="657" on="0"/>
        <pt x="124" y="640" on="1"/>
      </contour>
      <contour>
        <pt x="65" y="577" on="1"/>
        <pt x="524" y="577" on="1"/>
        <pt x="524" y="460" on="1"/>
        <pt x="219" y="460" on="1"/>
        <pt x="219" y="344" on="1"/>
        <pt x="495" y="344" on="1"/>
        <pt x="495" y="237" on="1"/>
        <pt x="219" y="237" on="1"/>
        <pt x="219" y="118" on="1"/>
        <pt x="532" y="118" on="1"/>
        <pt x="532" y="0" on="1"/>
        <pt x="65" y="0" on="1"/>
      </contour>
    </TTGlyph>
    <TTGlyph name="Euro" xMin="33" yMin="-10" xMax="616" yMax="750">
      <contour>
        <pt x="33" y="499" on="1"/>
        <pt x="119" y="499" on="1"/>
        <pt x="145" y="626" on="0"/>
        <pt x="318" y="750" on="0"/>
        <pt x="473" y="750" on="1"/>
        <pt x="521" y="750" on="0"/>
        <pt x="591" y="739" on="0"/>
        <pt x="616" y="733" on="1"/>
        <pt x="581" y="606" on="1"/>
        <pt x="564" y="608" on="0"/>
        <pt x="521" y="613" on="0"/>
        <pt x="501" y="613" on="1"/>
        <pt x="451" y="613" on="0"/>
        <pt x="376" y="602" on="0"/>
        <pt x="324" y="575" on="0"/>
        <pt x="291" y="531" on="0"/>
        <pt x="282" y="499" on="1"/>
        <pt x="544" y="499" on="1"/>
        <pt x="524" y="409" on="1"/>
        <pt x="271" y="409" on="1"/>
        <pt x="270" y="399" on="0"/>
        <pt x="270" y="380" on="0"/>
        <pt x="270" y="369" on="1"/>
        <pt x="270" y="358" on="0"/>
        <pt x="270" y="340" on="0"/>
        <pt x="271" y="331" on="1"/>
        <pt x="510" y="331" on="1"/>
        <pt x="491" y="240" on="1"/>
        <pt x="283" y="240" on="1"/>
        <pt x="292" y="208" on="0"/>
        <pt x="325" y="165" on="0"/>
        <pt x="377" y="138" on="0"/>
        <pt x="451" y="126" on="0"/>
        <pt x="501" y="126" on="1"/>
        <pt x="559" y="126" on="0"/>
        <pt x="611" y="139" on="1"/>
        <pt x="611" y="5" on="1"/>
        <pt x="588" y="-3" on="0"/>
        <pt x="519" y="-10" on="0"/>
        <pt x="479" y="-10" on="1"/>
        <pt x="321" y="-9" on="0"/>
        <pt x="146" y="115" on="0"/>
        <pt x="119" y="240" on="1"/>
        <pt x="33" y="240" on="1"/>
        <pt x="33" y="331" on="1"/>
        <pt x="108" y="331" on="1"/>
        <pt x="107" y="340" on="0"/>
        <pt x="107" y="359" on="0"/>
        <pt x="107" y="369" on="1"/>
        <pt x="107" y="379" on="0"/>
        <pt x="107" y="399" on="0"/>
        <pt x="108" y="409" on="1"/>
        <pt x="33" y="409" on="1"/>
      </contour>
    </TTGlyph>
    <TTGlyph name="Euro.tab" xMin="14" yMin="-10" xMax="582" yMax="750">
      <contour>
        <pt x="14" y="499" on="1"/>
        <pt x="98" y="499" on="1"/>
        <pt x="124" y="627" on="0"/>
        <pt x="292" y="750" on="0"/>
        <pt x="441" y="750" on="1"/>
        <pt x="488" y="750" on="0"/>
        <pt x="557" y="739" on="0"/>
        <pt x="582" y="733" on="1"/>
        <pt x="547" y="606" on="1"/>
        <pt x="531" y="608" on="0"/>
        <pt x="488" y="613" on="0"/>
        <pt x="469" y="613" on="1"/>
        <pt x="378" y="613" on="0"/>
        <pt x="281" y="562" on="0"/>
        <pt x="264" y="499" on="1"/>
        <pt x="512" y="499" on="1"/>
        <pt x="493" y="409" on="1"/>
        <pt x="247" y="409" on="1"/>
        <pt x="247" y="331" on="1"/>
        <pt x="479" y="331" on="1"/>
        <pt x="461" y="240" on="1"/>
        <pt x="264" y="240" on="1"/>
        <pt x="282" y="178" on="0"/>
        <pt x="379" y="126" on="0"/>
        <pt x="469" y="126" on="1"/>
        <pt x="525" y="126" on="0"/>
        <pt x="577" y="139" on="1"/>
        <pt x="577" y="5" on="1"/>
        <pt x="554" y="-3" on="0"/>
        <pt x="486" y="-10" on="0"/>
        <pt x="447" y="-10" on="1"/>
        <pt x="295" y="-9" on="0"/>
        <pt x="124" y="114" on="0"/>
        <pt x="98" y="240" on="1"/>
        <pt x="14" y="240" on="1"/>
        <pt x="14" y="331" on="1"/>
        <pt x="86" y="331" on="1"/>
        <pt x="85" y="339" on="0"/>
        <pt x="85" y="361" on="0"/>
        <pt x="85" y="369" on="1"/>
        <pt x="85" y="377" on="0"/>
        <pt x="85" y="401" on="0"/>
        <pt x="86" y="409" on="1"/>
        <pt x="14" y="409" on="1"/>
      </contour>
    </TTGlyph>
    <TTGlyph name="F" xMin="68" yMin="0" xMax="564" yMax="740">
      <contour>
        <pt x="68" y="740" on="1"/>
        <pt x="564" y="740" on="1"/>
        <pt x="564" y="610" on="1"/>
        <pt x="230" y="610" on="1"/>
        <pt x="230" y="419" on="1"/>
        <pt x="531" y="419" on="1"/>
        <pt x="531" y="289" on="1"/>
        <pt x="230" y="289" on="1"/>
        <pt x="230" y="0" on="1"/>
        <pt x="68" y="0" on="1"/>
      </contour>
    </TTGlyph>
    <TTGlyph name="F.sc" xMin="65" yMin="0" xMax="519" yMax="577">
      <contour>
        <pt x="65" y="577" on="1"/>
        <pt x="519" y="577" on="1"/>
        <pt x="519" y="456" on="1"/>
        <pt x="219" y="456" on="1"/>
        <pt x="219" y="328" on="1"/>
        <pt x="489" y="328" on="1"/>
        <pt x="489" y="215" on="1"/>
        <pt x="219" y="215" on="1"/>
        <pt x="219" y="0" on="1"/>
        <pt x="65" y="0" on="1"/>
      </contour>
    </TTGlyph>
    <TTGlyph name="F_B.sc" xMin="65" yMin="-8" xMax="1123" yMax="585">
      <contour>
        <pt x="65" y="577" on="1"/>
        <pt x="519" y="577" on="1"/>
        <pt x="519" y="456" on="1"/>
        <pt x="219" y="456" on="1"/>
        <pt x="219" y="328" on="1"/>
        <pt x="489" y="328" on="1"/>
        <pt x="489" y="215" on="1"/>
        <pt x="219" y="215" on="1"/>
        <pt x="219" y="0" on="1"/>
        <pt x="65" y="0" on="1"/>
      </contour>
      <contour>
        <pt x="842" y="-8" on="1"/>
        <pt x="726" y="-8" on="0"/>
        <pt x="603" y="4" on="1"/>
        <pt x="603" y="573" on="1"/>
        <pt x="669" y="579" on="0"/>
        <pt x="776" y="585" on="0"/>
        <pt x="827" y="585" on="1"/>
        <pt x="971" y="585" on="0"/>
        <pt x="1103" y="506" on="0"/>
        <pt x="1103" y="421" on="1"/>
        <pt x="1103" y="324" on="0"/>
        <pt x="994" y="298" on="1"/>
        <pt x="994" y="295" on="1"/>
        <pt x="1057" y="284" on="0"/>
        <pt x="1123" y="215" on="0"/>
        <pt x="1123" y="159" on="1"/>
        <pt x="1123" y="74" on="0"/>
        <pt x="985" y="-8" on="0"/>
      </contour>
      <contour>
        <pt x="847" y="99" on="1"/>
        <pt x="972" y="99" on="0"/>
        <pt x="972" y="172" on="1"/>
        <pt x="972" y="211" on="0"/>
        <pt x="915" y="243" on="0"/>
        <pt x="848" y="243" on="1"/>
        <pt x="748" y="243" on="1"/>
        <pt x="748" y="103" on="1"/>
        <pt x="761" y="101" on="0"/>
        <pt x="803" y="99" on="0"/>
      </contour>
      <contour>
        <pt x="839" y="339" on="1"/>
        <pt x="901" y="339" on="0"/>
        <pt x="951" y="370" on="0"/>
        <pt x="951" y="410" on="1"/>
        <pt x="951" y="447" on="0"/>
        <pt x="899" y="478" on="0"/>
        <pt x="838" y="478" on="1"/>
        <pt x="813" y="478" on="0"/>
        <pt x="768" y="476" on="0"/>
        <pt x="748" y="473" on="1"/>
        <pt x="748" y="339" on="1"/>
      </contour>
    </TTGlyph>
    <TTGlyph name="F_F.sc" xMin="65" yMin="0" xMax="1056" yMax="577">
      <contour>
        <pt x="65" y="577" on="1"/>
        <pt x="519" y="577" on="1"/>
        <pt x="519" y="456" on="1"/>
        <pt x="219" y="456" on="1"/>
        <pt x="219" y="328" on="1"/>
        <pt x="489" y="328" on="1"/>
        <pt x="489" y="215" on="1"/>
        <pt x="219" y="215" on="1"/>
        <pt x="219" y="0" on="1"/>
        <pt x="65" y="0" on="1"/>
      </contour>
      <contour>
        <pt x="602" y="577" on="1"/>
        <pt x="1056" y="577" on="1"/>
        <pt x="1056" y="456" on="1"/>
        <pt x="756" y="456" on="1"/>
        <pt x="756" y="328" on="1"/>
        <pt x="1026" y="328" on="1"/>
        <pt x="1026" y="215" on="1"/>
        <pt x="756" y="215" on="1"/>
        <pt x="756" y="0" on="1"/>
        <pt x="602" y="0" on="1"/>
      </contour>
    </TTGlyph>
    <TTGlyph name="F_F_B.sc" xMin="65" yMin="-8" xMax="1660" yMax="585">
      <contour>
        <pt x="65" y="577" on="1"/>
        <pt x="519" y="577" on="1"/>
        <pt x="519" y="456" on="1"/>
        <pt x="219" y="456" on="1"/>
        <pt x="219" y="328" on="1"/>
        <pt x="489" y="328" on="1"/>
        <pt x="489" y="215" on="1"/>
        <pt x="219" y="215" on="1"/>
        <pt x="219" y="0" on="1"/>
        <pt x="65" y="0" on="1"/>
      </contour>
      <contour>
        <pt x="602" y="577" on="1"/>
        <pt x="1056" y="577" on="1"/>
        <pt x="1056" y="456" on="1"/>
        <pt x="756" y="456" on="1"/>
        <pt x="756" y="328" on="1"/>
        <pt x="1026" y="328" on="1"/>
        <pt x="1026" y="215" on="1"/>
        <pt x="756" y="215" on="1"/>
        <pt x="756" y="0" on="1"/>
        <pt x="602" y="0" on="1"/>
      </contour>
      <contour>
        <pt x="1379" y="-8" on="1"/>
        <pt x="1263" y="-8" on="0"/>
        <pt x="1140" y="4" on="1"/>
        <pt x="1140" y="573" on="1"/>
        <pt x="1206" y="579" on="0"/>
        <pt x="1313" y="585" on="0"/>
        <pt x="1364" y="585" on="1"/>
        <pt x="1508" y="585" on="0"/>
        <pt x="1640" y="506" on="0"/>
        <pt x="1640" y="421" on="1"/>
        <pt x="1640" y="324" on="0"/>
        <pt x="1531" y="298" on="1"/>
        <pt x="1531" y="295" on="1"/>
        <pt x="1594" y="284" on="0"/>
        <pt x="1660" y="215" on="0"/>
        <pt x="1660" y="159" on="1"/>
        <pt x="1660" y="74" on="0"/>
        <pt x="1522" y="-8" on="0"/>
      </contour>
      <contour>
        <pt x="1384" y="99" on="1"/>
        <pt x="1509" y="99" on="0"/>
        <pt x="1509" y="172" on="1"/>
        <pt x="1509" y="211" on="0"/>
        <pt x="1452" y="243" on="0"/>
        <pt x="1385" y="243" on="1"/>
        <pt x="1285" y="243" on="1"/>
        <pt x="1285" y="103" on="1"/>
        <pt x="1298" y="101" on="0"/>
        <pt x="1340" y="99" on="0"/>
      </contour>
      <contour>
        <pt x="1376" y="339" on="1"/>
        <pt x="1438" y="339" on="0"/>
        <pt x="1488" y="370" on="0"/>
        <pt x="1488" y="410" on="1"/>
        <pt x="1488" y="447" on="0"/>
        <pt x="1436" y="478" on="0"/>
        <pt x="1375" y="478" on="1"/>
        <pt x="1350" y="478" on="0"/>
        <pt x="1305" y="476" on="0"/>
        <pt x="1285" y="473" on="1"/>
        <pt x="1285" y="339" on="1"/>
      </contour>
    </TTGlyph>
    <TTGlyph name="F_F_H.sc" xMin="65" yMin="0" xMax="1713" yMax="577">
      <contour>
        <pt x="65" y="577" on="1"/>
        <pt x="519" y="577" on="1"/>
        <pt x="519" y="456" on="1"/>
        <pt x="219" y="456" on="1"/>
        <pt x="219" y="328" on="1"/>
        <pt x="489" y="328" on="1"/>
        <pt x="489" y="215" on="1"/>
        <pt x="219" y="215" on="1"/>
        <pt x="219" y="0" on="1"/>
        <pt x="65" y="0" on="1"/>
      </contour>
      <contour>
        <pt x="602" y="577" on="1"/>
        <pt x="1056" y="577" on="1"/>
        <pt x="1056" y="456" on="1"/>
        <pt x="756" y="456" on="1"/>
        <pt x="756" y="328" on="1"/>
        <pt x="1026" y="328" on="1"/>
        <pt x="1026" y="215" on="1"/>
        <pt x="756" y="215" on="1"/>
        <pt x="756" y="0" on="1"/>
        <pt x="602" y="0" on="1"/>
      </contour>
      <contour>
        <pt x="1139" y="577" on="1"/>
        <pt x="1293" y="577" on="1"/>
        <pt x="1293" y="356" on="1"/>
        <pt x="1558" y="356" on="1"/>
        <pt x="1558" y="577" on="1"/>
        <pt x="1713" y="577" on="1"/>
        <pt x="1713" y="0" on="1"/>
        <pt x="1558" y="0" on="1"/>
        <pt x="1558" y="235" on="1"/>
        <pt x="1293" y="235" on="1"/>
        <pt x="1293" y="0" on="1"/>
        <pt x="1139" y="0" on="1"/>
      </contour>
    </TTGlyph>
    <TTGlyph name="F_F_I.sc" xMin="65" yMin="0" xMax="1293" yMax="577">
      <contour>
        <pt x="65" y="577" on="1"/>
        <pt x="519" y="577" on="1"/>
        <pt x="519" y="456" on="1"/>
        <pt x="219" y="456" on="1"/>
        <pt x="219" y="328" on="1"/>
        <pt x="489" y="328" on="1"/>
        <pt x="489" y="215" on="1"/>
        <pt x="219" y="215" on="1"/>
        <pt x="219" y="0" on="1"/>
        <pt x="65" y="0" on="1"/>
      </contour>
      <contour>
        <pt x="602" y="577" on="1"/>
        <pt x="1056" y="577" on="1"/>
        <pt x="1056" y="456" on="1"/>
        <pt x="756" y="456" on="1"/>
        <pt x="756" y="328" on="1"/>
        <pt x="1026" y="328" on="1"/>
        <pt x="1026" y="215" on="1"/>
        <pt x="756" y="215" on="1"/>
        <pt x="756" y="0" on="1"/>
        <pt x="602" y="0" on="1"/>
      </contour>
      <contour>
        <pt x="1139" y="577" on="1"/>
        <pt x="1293" y="577" on="1"/>
        <pt x="1293" y="0" on="1"/>
        <pt x="1139" y="0" on="1"/>
      </contour>
    </TTGlyph>
    <TTGlyph name="F_F_J.sc" xMin="65" yMin="-166" xMax="1303" yMax="577">
      <contour>
        <pt x="65" y="577" on="1"/>
        <pt x="519" y="577" on="1"/>
        <pt x="519" y="456" on="1"/>
        <pt x="219" y="456" on="1"/>
        <pt x="219" y="328" on="1"/>
        <pt x="489" y="328" on="1"/>
        <pt x="489" y="215" on="1"/>
        <pt x="219" y="215" on="1"/>
        <pt x="219" y="0" on="1"/>
        <pt x="65" y="0" on="1"/>
      </contour>
      <contour>
        <pt x="602" y="577" on="1"/>
        <pt x="1056" y="577" on="1"/>
        <pt x="1056" y="456" on="1"/>
        <pt x="756" y="456" on="1"/>
        <pt x="756" y="328" on="1"/>
        <pt x="1026" y="328" on="1"/>
        <pt x="1026" y="215" on="1"/>
        <pt x="756" y="215" on="1"/>
        <pt x="756" y="0" on="1"/>
        <pt x="602" y="0" on="1"/>
      </contour>
      <contour>
        <pt x="1082" y="-123" on="1"/>
        <pt x="1101" y="-84" on="0"/>
        <pt x="1127" y="-18" on="0"/>
        <pt x="1143" y="46" on="0"/>
        <pt x="1149" y="113" on="0"/>
        <pt x="1149" y="154" on="1"/>
        <pt x="1149" y="577" on="1"/>
        <pt x="1303" y="577" on="1"/>
        <pt x="1303" y="142" on="1"/>
        <pt x="1303" y="101" on="0"/>
        <pt x="1290" y="28" on="0"/>
        <pt x="1262" y="-44" on="0"/>
        <pt x="1214" y="-121" on="0"/>
        <pt x="1180" y="-166" on="1"/>
      </contour>
    </TTGlyph>
    <TTGlyph name="F_F_K.sc" xMin="65" yMin="0" xMax="1710" yMax="577">
      <contour>
        <pt x="65" y="577" on="1"/>
        <pt x="519" y="577" on="1"/>
        <pt x="519" y="456" on="1"/>
        <pt x="219" y="456" on="1"/>
        <pt x="219" y="328" on="1"/>
        <pt x="489" y="328" on="1"/>
        <pt x="489" y="215" on="1"/>
        <pt x="219" y="215" on="1"/>
        <pt x="219" y="0" on="1"/>
        <pt x="65" y="0" on="1"/>
      </contour>
      <contour>
        <pt x="602" y="577" on="1"/>
        <pt x="1056" y="577" on="1"/>
        <pt x="1056" y="456" on="1"/>
        <pt x="756" y="456" on="1"/>
        <pt x="756" y="328" on="1"/>
        <pt x="1026" y="328" on="1"/>
        <pt x="1026" y="215" on="1"/>
        <pt x="756" y="215" on="1"/>
        <pt x="756" y="0" on="1"/>
        <pt x="602" y="0" on="1"/>
      </contour>
      <contour>
        <pt x="1139" y="577" on="1"/>
        <pt x="1293" y="577" on="1"/>
        <pt x="1293" y="352" on="1"/>
        <pt x="1377" y="352" on="1"/>
        <pt x="1522" y="577" on="1"/>
        <pt x="1693" y="577" on="1"/>
        <pt x="1524" y="323" on="1"/>
        <pt x="1474" y="302" on="1"/>
        <pt x="1474" y="296" on="1"/>
        <pt x="1525" y="274" on="1"/>
        <pt x="1710" y="0" on="1"/>
        <pt x="1538" y="0" on="1"/>
        <pt x="1383" y="231" on="1"/>
        <pt x="1293" y="231" on="1"/>
        <pt x="1293" y="0" on="1"/>
        <pt x="1139" y="0" on="1"/>
      </contour>
    </TTGlyph>
    <TTGlyph name="F_F_L.sc" xMin="65" yMin="0" xMax="1554" yMax="577">
      <contour>
        <pt x="1139" y="577" on="1"/>
        <pt x="1293" y="577" on="1"/>
        <pt x="1293" y="121" on="1"/>
        <pt x="1554" y="121" on="1"/>
        <pt x="1554" y="0" on="1"/>
        <pt x="1139" y="0" on="1"/>
      </contour>
      <contour>
        <pt x="65" y="577" on="1"/>
        <pt x="519" y="577" on="1"/>
        <pt x="519" y="456" on="1"/>
        <pt x="219" y="456" on="1"/>
        <pt x="219" y="328" on="1"/>
        <pt x="489" y="328" on="1"/>
        <pt x="489" y="215" on="1"/>
        <pt x="219" y="215" on="1"/>
        <pt x="219" y="0" on="1"/>
        <pt x="65" y="0" on="1"/>
      </contour>
      <contour>
        <pt x="602" y="577" on="1"/>
        <pt x="1056" y="577" on="1"/>
        <pt x="1056" y="456" on="1"/>
        <pt x="756" y="456" on="1"/>
        <pt x="756" y="328" on="1"/>
        <pt x="1026" y="328" on="1"/>
        <pt x="1026" y="215" on="1"/>
        <pt x="756" y="215" on="1"/>
        <pt x="756" y="0" on="1"/>
        <pt x="602" y="0" on="1"/>
      </contour>
    </TTGlyph>
    <TTGlyph name="F_F_T.sc" xMin="65" yMin="0" xMax="1584" yMax="577">
      <contour>
        <pt x="1251" y="455" on="1"/>
        <pt x="1072" y="455" on="1"/>
        <pt x="1072" y="577" on="1"/>
        <pt x="1584" y="577" on="1"/>
        <pt x="1584" y="455" on="1"/>
        <pt x="1405" y="455" on="1"/>
        <pt x="1405" y="0" on="1"/>
        <pt x="1251" y="0" on="1"/>
      </contour>
      <contour>
        <pt x="65" y="577" on="1"/>
        <pt x="519" y="577" on="1"/>
        <pt x="519" y="456" on="1"/>
        <pt x="219" y="456" on="1"/>
        <pt x="219" y="328" on="1"/>
        <pt x="489" y="328" on="1"/>
        <pt x="489" y="215" on="1"/>
        <pt x="219" y="215" on="1"/>
        <pt x="219" y="0" on="1"/>
        <pt x="65" y="0" on="1"/>
      </contour>
      <contour>
        <pt x="602" y="577" on="1"/>
        <pt x="1056" y="577" on="1"/>
        <pt x="1056" y="456" on="1"/>
        <pt x="756" y="456" on="1"/>
        <pt x="756" y="328" on="1"/>
        <pt x="1026" y="328" on="1"/>
        <pt x="1026" y="215" on="1"/>
        <pt x="756" y="215" on="1"/>
        <pt x="756" y="0" on="1"/>
        <pt x="602" y="0" on="1"/>
      </contour>
    </TTGlyph>
    <TTGlyph name="F_H.sc" xMin="65" yMin="0" xMax="1176" yMax="577">
      <contour>
        <pt x="65" y="577" on="1"/>
        <pt x="519" y="577" on="1"/>
        <pt x="519" y="456" on="1"/>
        <pt x="219" y="456" on="1"/>
        <pt x="219" y="328" on="1"/>
        <pt x="489" y="328" on="1"/>
        <pt x="489" y="215" on="1"/>
        <pt x="219" y="215" on="1"/>
        <pt x="219" y="0" on="1"/>
        <pt x="65" y="0" on="1"/>
      </contour>
      <contour>
        <pt x="602" y="577" on="1"/>
        <pt x="756" y="577" on="1"/>
        <pt x="756" y="356" on="1"/>
        <pt x="1021" y="356" on="1"/>
        <pt x="1021" y="577" on="1"/>
        <pt x="1176" y="577" on="1"/>
        <pt x="1176" y="0" on="1"/>
        <pt x="1021" y="0" on="1"/>
        <pt x="1021" y="235" on="1"/>
        <pt x="756" y="235" on="1"/>
        <pt x="756" y="0" on="1"/>
        <pt x="602" y="0" on="1"/>
      </contour>
    </TTGlyph>
    <TTGlyph name="F_I.sc" xMin="65" yMin="0" xMax="756" yMax="577">
      <contour>
        <pt x="65" y="577" on="1"/>
        <pt x="519" y="577" on="1"/>
        <pt x="519" y="456" on="1"/>
        <pt x="219" y="456" on="1"/>
        <pt x="219" y="328" on="1"/>
        <pt x="489" y="328" on="1"/>
        <pt x="489" y="215" on="1"/>
        <pt x="219" y="215" on="1"/>
        <pt x="219" y="0" on="1"/>
        <pt x="65" y="0" on="1"/>
      </contour>
      <contour>
        <pt x="602" y="577" on="1"/>
        <pt x="756" y="577" on="1"/>
        <pt x="756" y="0" on="1"/>
        <pt x="602" y="0" on="1"/>
      </contour>
    </TTGlyph>
    <TTGlyph name="F_J.sc" xMin="65" yMin="-166" xMax="766" yMax="577">
      <contour>
        <pt x="65" y="577" on="1"/>
        <pt x="519" y="577" on="1"/>
        <pt x="519" y="456" on="1"/>
        <pt x="219" y="456" on="1"/>
        <pt x="219" y="328" on="1"/>
        <pt x="489" y="328" on="1"/>
        <pt x="489" y="215" on="1"/>
        <pt x="219" y="215" on="1"/>
        <pt x="219" y="0" on="1"/>
        <pt x="65" y="0" on="1"/>
      </contour>
      <contour>
        <pt x="545" y="-123" on="1"/>
        <pt x="564" y="-84" on="0"/>
        <pt x="590" y="-18" on="0"/>
        <pt x="606" y="46" on="0"/>
        <pt x="612" y="113" on="0"/>
        <pt x="612" y="154" on="1"/>
        <pt x="612" y="577" on="1"/>
        <pt x="766" y="577" on="1"/>
        <pt x="766" y="142" on="1"/>
        <pt x="766" y="101" on="0"/>
        <pt x="753" y="28" on="0"/>
        <pt x="725" y="-44" on="0"/>
        <pt x="677" y="-121" on="0"/>
        <pt x="643" y="-166" on="1"/>
      </contour>
    </TTGlyph>
    <TTGlyph name="F_K.sc" xMin="65" yMin="0" xMax="1173" yMax="577">
      <contour>
        <pt x="65" y="577" on="1"/>
        <pt x="519" y="577" on="1"/>
        <pt x="519" y="456" on="1"/>
        <pt x="219" y="456" on="1"/>
        <pt x="219" y="328" on="1"/>
        <pt x="489" y="328" on="1"/>
        <pt x="489" y="215" on="1"/>
        <pt x="219" y="215" on="1"/>
        <pt x="219" y="0" on="1"/>
        <pt x="65" y="0" on="1"/>
      </contour>
      <contour>
        <pt x="602" y="577" on="1"/>
        <pt x="756" y="577" on="1"/>
        <pt x="756" y="352" on="1"/>
        <pt x="840" y="352" on="1"/>
        <pt x="985" y="577" on="1"/>
        <pt x="1156" y="577" on="1"/>
        <pt x="987" y="323" on="1"/>
        <pt x="937" y="302" on="1"/>
        <pt x="937" y="296" on="1"/>
        <pt x="988" y="274" on="1"/>
        <pt x="1173" y="0" on="1"/>
        <pt x="1001" y="0" on="1"/>
        <pt x="846" y="231" on="1"/>
        <pt x="756" y="231" on="1"/>
        <pt x="756" y="0" on="1"/>
        <pt x="602" y="0" on="1"/>
      </contour>
    </TTGlyph>
    <TTGlyph name="F_L.sc" xMin="65" yMin="0" xMax="1017" yMax="577">
      <contour>
        <pt x="602" y="577" on="1"/>
        <pt x="756" y="577" on="1"/>
        <pt x="756" y="121" on="1"/>
        <pt x="1017" y="121" on="1"/>
        <pt x="1017" y="0" on="1"/>
        <pt x="602" y="0" on="1"/>
      </contour>
      <contour>
        <pt x="65" y="577" on="1"/>
        <pt x="519" y="577" on="1"/>
        <pt x="519" y="456" on="1"/>
        <pt x="219" y="456" on="1"/>
        <pt x="219" y="328" on="1"/>
        <pt x="489" y="328" on="1"/>
        <pt x="489" y="215" on="1"/>
        <pt x="219" y="215" on="1"/>
        <pt x="219" y="0" on="1"/>
        <pt x="65" y="0" on="1"/>
      </contour>
    </TTGlyph>
    <TTGlyph name="F_T.sc" xMin="65" yMin="0" xMax="1048" yMax="577">
      <contour>
        <pt x="715" y="455" on="1"/>
        <pt x="536" y="455" on="1"/>
        <pt x="536" y="577" on="1"/>
        <pt x="1048" y="577" on="1"/>
        <pt x="1048" y="455" on="1"/>
        <pt x="869" y="455" on="1"/>
        <pt x="869" y="0" on="1"/>
        <pt x="715" y="0" on="1"/>
      </contour>
      <contour>
        <pt x="65" y="577" on="1"/>
        <pt x="519" y="577" on="1"/>
        <pt x="519" y="456" on="1"/>
        <pt x="219" y="456" on="1"/>
        <pt x="219" y="328" on="1"/>
        <pt x="489" y="328" on="1"/>
        <pt x="489" y="215" on="1"/>
        <pt x="219" y="215" on="1"/>
        <pt x="219" y="0" on="1"/>
        <pt x="65" y="0" on="1"/>
      </contour>
    </TTGlyph>
    <TTGlyph name="G" xMin="37" yMin="-11" xMax="612" yMax="751">
      <contour>
        <pt x="387" y="-11" on="1"/>
        <pt x="208" y="-11" on="0"/>
        <pt x="37" y="176" on="0"/>
        <pt x="37" y="369" on="1"/>
        <pt x="37" y="563" on="0"/>
        <pt x="220" y="751" on="0"/>
        <pt x="409" y="751" on="1"/>
        <pt x="454" y="751" on="0"/>
        <pt x="558" y="739" on="0"/>
        <pt x="603" y="728" on="1"/>
        <pt x="603" y="598" on="1"/>
        <pt x="544" y="609" on="0"/>
        <pt x="457" y="618" on="0"/>
        <pt x="423" y="618" on="1"/>
        <pt x="361" y="618" on="0"/>
        <pt x="276" y="593" on="0"/>
        <pt x="225" y="534" on="0"/>
        <pt x="203" y="439" on="0"/>
        <pt x="203" y="369" on="1"/>
        <pt x="203" y="300" on="0"/>
        <pt x="223" y="205" on="0"/>
        <pt x="268" y="148" on="0"/>
        <pt x="343" y="123" on="0"/>
        <pt x="397" y="123" on="1"/>
        <pt x="427" y="123" on="0"/>
        <pt x="463" y="126" on="1"/>
        <pt x="463" y="376" on="1"/>
        <pt x="612" y="376" on="1"/>
        <pt x="612" y="18" on="1"/>
        <pt x="549" y="4" on="0"/>
        <pt x="433" y="-11" on="0"/>
      </contour>
    </TTGlyph>
    <TTGlyph name="G.sc" xMin="36" yMin="-9" xMax="560" yMax="586">
      <contour>
        <pt x="354" y="-9" on="1"/>
        <pt x="192" y="-9" on="0"/>
        <pt x="36" y="137" on="0"/>
        <pt x="36" y="288" on="1"/>
        <pt x="36" y="586" on="0"/>
        <pt x="374" y="586" on="1"/>
        <pt x="416" y="586" on="0"/>
        <pt x="511" y="577" on="0"/>
        <pt x="551" y="568" on="1"/>
        <pt x="551" y="448" on="1"/>
        <pt x="497" y="455" on="0"/>
        <pt x="417" y="462" on="0"/>
        <pt x="387" y="462" on="1"/>
        <pt x="330" y="462" on="0"/>
        <pt x="256" y="445" on="0"/>
        <pt x="213" y="405" on="0"/>
        <pt x="195" y="338" on="0"/>
        <pt x="195" y="288" on="1"/>
        <pt x="195" y="238" on="0"/>
        <pt x="211" y="172" on="0"/>
        <pt x="249" y="133" on="0"/>
        <pt x="314" y="117" on="0"/>
        <pt x="363" y="117" on="1"/>
        <pt x="366" y="117" on="0"/>
        <pt x="381" y="117" on="0"/>
        <pt x="399" y="118" on="0"/>
        <pt x="415" y="119" on="0"/>
        <pt x="419" y="120" on="1"/>
        <pt x="419" y="293" on="1"/>
        <pt x="560" y="293" on="1"/>
        <pt x="560" y="16" on="1"/>
        <pt x="503" y="5" on="0"/>
        <pt x="396" y="-9" on="0"/>
      </contour>
    </TTGlyph>
    <TTGlyph name="Gacute" xMin="37" yMin="-11" xMax="612" yMax="975">
      <contour>
        <pt x="296" y="806" on="1"/>
        <pt x="363" y="975" on="1"/>
        <pt x="526" y="975" on="1"/>
        <pt x="411" y="797" on="1"/>
      </contour>
      <contour>
        <pt x="387" y="-11" on="1"/>
        <pt x="208" y="-11" on="0"/>
        <pt x="37" y="176" on="0"/>
        <pt x="37" y="369" on="1"/>
        <pt x="37" y="563" on="0"/>
        <pt x="220" y="751" on="0"/>
        <pt x="409" y="751" on="1"/>
        <pt x="454" y="751" on="0"/>
        <pt x="558" y="739" on="0"/>
        <pt x="603" y="728" on="1"/>
        <pt x="603" y="598" on="1"/>
        <pt x="544" y="609" on="0"/>
        <pt x="457" y="618" on="0"/>
        <pt x="423" y="618" on="1"/>
        <pt x="361" y="618" on="0"/>
        <pt x="276" y="593" on="0"/>
        <pt x="225" y="534" on="0"/>
        <pt x="203" y="439" on="0"/>
        <pt x="203" y="369" on="1"/>
        <pt x="203" y="300" on="0"/>
        <pt x="223" y="205" on="0"/>
        <pt x="268" y="148" on="0"/>
        <pt x="343" y="123" on="0"/>
        <pt x="397" y="123" on="1"/>
        <pt x="427" y="123" on="0"/>
        <pt x="463" y="126" on="1"/>
        <pt x="463" y="376" on="1"/>
        <pt x="612" y="376" on="1"/>
        <pt x="612" y="18" on="1"/>
        <pt x="549" y="4" on="0"/>
        <pt x="433" y="-11" on="0"/>
      </contour>
    </TTGlyph>
    <TTGlyph name="Gacute.sc" xMin="36" yMin="-9" xMax="560" yMax="773">
      <contour>
        <pt x="354" y="-9" on="1"/>
        <pt x="192" y="-9" on="0"/>
        <pt x="36" y="136" on="0"/>
        <pt x="36" y="288" on="1"/>
        <pt x="36" y="586" on="0"/>
        <pt x="374" y="586" on="1"/>
        <pt x="416" y="586" on="0"/>
        <pt x="511" y="577" on="0"/>
        <pt x="551" y="568" on="1"/>
        <pt x="551" y="446" on="1"/>
        <pt x="497" y="454" on="0"/>
        <pt x="417" y="462" on="0"/>
        <pt x="387" y="462" on="1"/>
        <pt x="331" y="462" on="0"/>
        <pt x="258" y="446" on="0"/>
        <pt x="213" y="406" on="0"/>
        <pt x="195" y="339" on="0"/>
        <pt x="195" y="288" on="1"/>
        <pt x="195" y="237" on="0"/>
        <pt x="211" y="171" on="0"/>
        <pt x="250" y="132" on="0"/>
        <pt x="315" y="117" on="0"/>
        <pt x="363" y="117" on="1"/>
        <pt x="366" y="117" on="0"/>
        <pt x="381" y="117" on="0"/>
        <pt x="399" y="118" on="0"/>
        <pt x="415" y="119" on="0"/>
        <pt x="419" y="120" on="1"/>
        <pt x="419" y="293" on="1"/>
        <pt x="560" y="293" on="1"/>
        <pt x="560" y="16" on="1"/>
        <pt x="504" y="5" on="0"/>
        <pt x="396" y="-9" on="0"/>
      </contour>
      <contour>
        <pt x="267" y="631" on="1"/>
        <pt x="326" y="773" on="1"/>
        <pt x="481" y="773" on="1"/>
        <pt x="376" y="623" on="1"/>
      </contour>
    </TTGlyph>
    <TTGlyph name="Gbreve" xMin="37" yMin="-11" xMax="612" yMax="978">
      <contour>
        <pt x="366" y="805" on="1"/>
        <pt x="313" y="805" on="0"/>
        <pt x="237" y="830" on="0"/>
        <pt x="188" y="876" on="0"/>
        <pt x="165" y="940" on="0"/>
        <pt x="165" y="978" on="1"/>
        <pt x="273" y="978" on="1"/>
        <pt x="273" y="930" on="0"/>
        <pt x="314" y="883" on="0"/>
        <pt x="366" y="883" on="1"/>
        <pt x="418" y="883" on="0"/>
        <pt x="460" y="930" on="0"/>
        <pt x="460" y="978" on="1"/>
        <pt x="568" y="978" on="1"/>
        <pt x="568" y="939" on="0"/>
        <pt x="545" y="876" on="0"/>
        <pt x="495" y="830" on="0"/>
        <pt x="419" y="805" on="0"/>
      </contour>
      <contour>
        <pt x="387" y="-11" on="1"/>
        <pt x="208" y="-11" on="0"/>
        <pt x="37" y="176" on="0"/>
        <pt x="37" y="369" on="1"/>
        <pt x="37" y="563" on="0"/>
        <pt x="220" y="751" on="0"/>
        <pt x="409" y="751" on="1"/>
        <pt x="454" y="751" on="0"/>
        <pt x="558" y="739" on="0"/>
        <pt x="603" y="728" on="1"/>
        <pt x="603" y="598" on="1"/>
        <pt x="544" y="609" on="0"/>
        <pt x="457" y="618" on="0"/>
        <pt x="423" y="618" on="1"/>
        <pt x="361" y="618" on="0"/>
        <pt x="276" y="593" on="0"/>
        <pt x="225" y="534" on="0"/>
        <pt x="203" y="439" on="0"/>
        <pt x="203" y="369" on="1"/>
        <pt x="203" y="300" on="0"/>
        <pt x="223" y="205" on="0"/>
        <pt x="268" y="148" on="0"/>
        <pt x="343" y="123" on="0"/>
        <pt x="397" y="123" on="1"/>
        <pt x="427" y="123" on="0"/>
        <pt x="463" y="126" on="1"/>
        <pt x="463" y="376" on="1"/>
        <pt x="612" y="376" on="1"/>
        <pt x="612" y="18" on="1"/>
        <pt x="549" y="4" on="0"/>
        <pt x="433" y="-11" on="0"/>
      </contour>
    </TTGlyph>
    <TTGlyph name="Gbreve.sc" xMin="36" yMin="-9" xMax="560" yMax="771">
      <contour>
        <pt x="354" y="-9" on="1"/>
        <pt x="192" y="-9" on="0"/>
        <pt x="36" y="136" on="0"/>
        <pt x="36" y="288" on="1"/>
        <pt x="36" y="586" on="0"/>
        <pt x="374" y="586" on="1"/>
        <pt x="416" y="586" on="0"/>
        <pt x="511" y="577" on="0"/>
        <pt x="551" y="568" on="1"/>
        <pt x="551" y="446" on="1"/>
        <pt x="497" y="454" on="0"/>
        <pt x="417" y="462" on="0"/>
        <pt x="387" y="462" on="1"/>
        <pt x="331" y="462" on="0"/>
        <pt x="258" y="446" on="0"/>
        <pt x="213" y="406" on="0"/>
        <pt x="195" y="339" on="0"/>
        <pt x="195" y="288" on="1"/>
        <pt x="195" y="237" on="0"/>
        <pt x="211" y="171" on="0"/>
        <pt x="250" y="132" on="0"/>
        <pt x="315" y="117" on="0"/>
        <pt x="363" y="117" on="1"/>
        <pt x="366" y="117" on="0"/>
        <pt x="381" y="117" on="0"/>
        <pt x="399" y="118" on="0"/>
        <pt x="415" y="119" on="0"/>
        <pt x="419" y="120" on="1"/>
        <pt x="419" y="293" on="1"/>
        <pt x="560" y="293" on="1"/>
        <pt x="560" y="16" on="1"/>
        <pt x="504" y="5" on="0"/>
        <pt x="396" y="-9" on="0"/>
      </contour>
      <contour>
        <pt x="334" y="627" on="1"/>
        <pt x="236" y="627" on="0"/>
        <pt x="150" y="708" on="0"/>
        <pt x="150" y="771" on="1"/>
        <pt x="251" y="771" on="1"/>
        <pt x="251" y="733" on="0"/>
        <pt x="287" y="697" on="0"/>
        <pt x="334" y="697" on="1"/>
        <pt x="382" y="697" on="0"/>
        <pt x="418" y="733" on="0"/>
        <pt x="418" y="771" on="1"/>
        <pt x="520" y="771" on="1"/>
        <pt x="520" y="707" on="0"/>
        <pt x="433" y="627" on="0"/>
      </contour>
    </TTGlyph>
    <TTGlyph name="Gcircumflex" xMin="37" yMin="-11" xMax="612" yMax="983">
      <contour>
        <pt x="387" y="-11" on="1"/>
        <pt x="208" y="-11" on="0"/>
        <pt x="37" y="176" on="0"/>
        <pt x="37" y="369" on="1"/>
        <pt x="37" y="563" on="0"/>
        <pt x="220" y="751" on="0"/>
        <pt x="409" y="751" on="1"/>
        <pt x="454" y="751" on="0"/>
        <pt x="558" y="739" on="0"/>
        <pt x="603" y="728" on="1"/>
        <pt x="603" y="598" on="1"/>
        <pt x="544" y="609" on="0"/>
        <pt x="457" y="618" on="0"/>
        <pt x="423" y="618" on="1"/>
        <pt x="361" y="618" on="0"/>
        <pt x="276" y="593" on="0"/>
        <pt x="225" y="534" on="0"/>
        <pt x="203" y="439" on="0"/>
        <pt x="203" y="369" on="1"/>
        <pt x="203" y="300" on="0"/>
        <pt x="223" y="205" on="0"/>
        <pt x="268" y="148" on="0"/>
        <pt x="343" y="123" on="0"/>
        <pt x="397" y="123" on="1"/>
        <pt x="427" y="123" on="0"/>
        <pt x="463" y="126" on="1"/>
        <pt x="463" y="376" on="1"/>
        <pt x="612" y="376" on="1"/>
        <pt x="612" y="18" on="1"/>
        <pt x="549" y="4" on="0"/>
        <pt x="433" y="-11" on="0"/>
      </contour>
      <contour>
        <pt x="176" y="908" on="1"/>
        <pt x="359" y="983" on="1"/>
        <pt x="544" y="908" on="1"/>
        <pt x="544" y="799" on="1"/>
        <pt x="360" y="874" on="1"/>
        <pt x="176" y="799" on="1"/>
      </contour>
    </TTGlyph>
    <TTGlyph name="Gcircumflex.sc" xMin="36" yMin="-9" xMax="560" yMax="779">
      <contour>
        <pt x="354" y="-9" on="1"/>
        <pt x="192" y="-9" on="0"/>
        <pt x="36" y="136" on="0"/>
        <pt x="36" y="288" on="1"/>
        <pt x="36" y="586" on="0"/>
        <pt x="374" y="586" on="1"/>
        <pt x="416" y="586" on="0"/>
        <pt x="511" y="577" on="0"/>
        <pt x="551" y="568" on="1"/>
        <pt x="551" y="446" on="1"/>
        <pt x="497" y="454" on="0"/>
        <pt x="417" y="462" on="0"/>
        <pt x="387" y="462" on="1"/>
        <pt x="331" y="462" on="0"/>
        <pt x="258" y="446" on="0"/>
        <pt x="213" y="406" on="0"/>
        <pt x="195" y="339" on="0"/>
        <pt x="195" y="288" on="1"/>
        <pt x="195" y="237" on="0"/>
        <pt x="211" y="171" on="0"/>
        <pt x="250" y="132" on="0"/>
        <pt x="315" y="117" on="0"/>
        <pt x="363" y="117" on="1"/>
        <pt x="366" y="117" on="0"/>
        <pt x="381" y="117" on="0"/>
        <pt x="399" y="118" on="0"/>
        <pt x="415" y="119" on="0"/>
        <pt x="419" y="120" on="1"/>
        <pt x="419" y="293" on="1"/>
        <pt x="560" y="293" on="1"/>
        <pt x="560" y="16" on="1"/>
        <pt x="504" y="5" on="0"/>
        <pt x="396" y="-9" on="0"/>
      </contour>
      <contour>
        <pt x="159" y="719" on="1"/>
        <pt x="327" y="779" on="1"/>
        <pt x="496" y="719" on="1"/>
        <pt x="496" y="620" on="1"/>
        <pt x="328" y="680" on="1"/>
        <pt x="159" y="620" on="1"/>
      </contour>
    </TTGlyph>
    <TTGlyph name="Gcommaaccent" xMin="37" yMin="-220" xMax="612" yMax="751">
      <contour>
        <pt x="289" y="-69" on="1"/>
        <pt x="452" y="-69" on="1"/>
        <pt x="366" y="-220" on="1"/>
        <pt x="245" y="-220" on="1"/>
      </contour>
      <contour>
        <pt x="387" y="-11" on="1"/>
        <pt x="208" y="-11" on="0"/>
        <pt x="37" y="176" on="0"/>
        <pt x="37" y="369" on="1"/>
        <pt x="37" y="563" on="0"/>
        <pt x="220" y="751" on="0"/>
        <pt x="409" y="751" on="1"/>
        <pt x="454" y="751" on="0"/>
        <pt x="558" y="739" on="0"/>
        <pt x="603" y="728" on="1"/>
        <pt x="603" y="598" on="1"/>
        <pt x="544" y="609" on="0"/>
        <pt x="457" y="618" on="0"/>
        <pt x="423" y="618" on="1"/>
        <pt x="361" y="618" on="0"/>
        <pt x="276" y="593" on="0"/>
        <pt x="225" y="534" on="0"/>
        <pt x="203" y="439" on="0"/>
        <pt x="203" y="369" on="1"/>
        <pt x="203" y="300" on="0"/>
        <pt x="223" y="205" on="0"/>
        <pt x="268" y="148" on="0"/>
        <pt x="343" y="123" on="0"/>
        <pt x="397" y="123" on="1"/>
        <pt x="427" y="123" on="0"/>
        <pt x="463" y="126" on="1"/>
        <pt x="463" y="376" on="1"/>
        <pt x="612" y="376" on="1"/>
        <pt x="612" y="18" on="1"/>
        <pt x="549" y="4" on="0"/>
        <pt x="433" y="-11" on="0"/>
      </contour>
    </TTGlyph>
    <TTGlyph name="Gcommaaccent.sc" xMin="36" yMin="-172" xMax="560" yMax="586">
      <contour>
        <pt x="354" y="-9" on="1"/>
        <pt x="192" y="-9" on="0"/>
        <pt x="36" y="136" on="0"/>
        <pt x="36" y="288" on="1"/>
        <pt x="36" y="586" on="0"/>
        <pt x="374" y="586" on="1"/>
        <pt x="416" y="586" on="0"/>
        <pt x="511" y="577" on="0"/>
        <pt x="551" y="568" on="1"/>
        <pt x="551" y="446" on="1"/>
        <pt x="497" y="454" on="0"/>
        <pt x="417" y="462" on="0"/>
        <pt x="387" y="462" on="1"/>
        <pt x="331" y="462" on="0"/>
        <pt x="258" y="446" on="0"/>
        <pt x="213" y="406" on="0"/>
        <pt x="195" y="339" on="0"/>
        <pt x="195" y="288" on="1"/>
        <pt x="195" y="237" on="0"/>
        <pt x="211" y="171" on="0"/>
        <pt x="250" y="132" on="0"/>
        <pt x="315" y="117" on="0"/>
        <pt x="363" y="117" on="1"/>
        <pt x="366" y="117" on="0"/>
        <pt x="381" y="117" on="0"/>
        <pt x="399" y="118" on="0"/>
        <pt x="415" y="119" on="0"/>
        <pt x="419" y="120" on="1"/>
        <pt x="419" y="293" on="1"/>
        <pt x="560" y="293" on="1"/>
        <pt x="560" y="16" on="1"/>
        <pt x="504" y="5" on="0"/>
        <pt x="396" y="-9" on="0"/>
      </contour>
      <contour>
        <pt x="259" y="-55" on="1"/>
        <pt x="414" y="-55" on="1"/>
        <pt x="335" y="-172" on="1"/>
        <pt x="222" y="-172" on="1"/>
      </contour>
    </TTGlyph>
    <TTGlyph name="Gdotaccent" xMin="37" yMin="-11" xMax="612" yMax="974">
      <contour>
        <pt x="368" y="801" on="1"/>
        <pt x="320" y="801" on="0"/>
        <pt x="279" y="842" on="0"/>
        <pt x="279" y="887" on="1"/>
        <pt x="279" y="933" on="0"/>
        <pt x="320" y="974" on="0"/>
        <pt x="368" y="974" on="1"/>
        <pt x="415" y="974" on="0"/>
        <pt x="456" y="932" on="0"/>
        <pt x="456" y="887" on="1"/>
        <pt x="456" y="842" on="0"/>
        <pt x="415" y="801" on="0"/>
      </contour>
      <contour>
        <pt x="387" y="-11" on="1"/>
        <pt x="208" y="-11" on="0"/>
        <pt x="37" y="176" on="0"/>
        <pt x="37" y="369" on="1"/>
        <pt x="37" y="563" on="0"/>
        <pt x="220" y="751" on="0"/>
        <pt x="409" y="751" on="1"/>
        <pt x="454" y="751" on="0"/>
        <pt x="558" y="739" on="0"/>
        <pt x="603" y="728" on="1"/>
        <pt x="603" y="598" on="1"/>
        <pt x="544" y="609" on="0"/>
        <pt x="457" y="618" on="0"/>
        <pt x="423" y="618" on="1"/>
        <pt x="361" y="618" on="0"/>
        <pt x="276" y="593" on="0"/>
        <pt x="225" y="534" on="0"/>
        <pt x="203" y="439" on="0"/>
        <pt x="203" y="369" on="1"/>
        <pt x="203" y="300" on="0"/>
        <pt x="223" y="205" on="0"/>
        <pt x="268" y="148" on="0"/>
        <pt x="343" y="123" on="0"/>
        <pt x="397" y="123" on="1"/>
        <pt x="427" y="123" on="0"/>
        <pt x="463" y="126" on="1"/>
        <pt x="463" y="376" on="1"/>
        <pt x="612" y="376" on="1"/>
        <pt x="612" y="18" on="1"/>
        <pt x="549" y="4" on="0"/>
        <pt x="433" y="-11" on="0"/>
      </contour>
    </TTGlyph>
    <TTGlyph name="Gdotaccent.sc" xMin="36" yMin="-9" xMax="560" yMax="781">
      <contour>
        <pt x="354" y="-9" on="1"/>
        <pt x="192" y="-9" on="0"/>
        <pt x="36" y="136" on="0"/>
        <pt x="36" y="288" on="1"/>
        <pt x="36" y="586" on="0"/>
        <pt x="374" y="586" on="1"/>
        <pt x="416" y="586" on="0"/>
        <pt x="511" y="577" on="0"/>
        <pt x="551" y="568" on="1"/>
        <pt x="551" y="446" on="1"/>
        <pt x="497" y="454" on="0"/>
        <pt x="417" y="462" on="0"/>
        <pt x="387" y="462" on="1"/>
        <pt x="331" y="462" on="0"/>
        <pt x="258" y="446" on="0"/>
        <pt x="213" y="406" on="0"/>
        <pt x="195" y="339" on="0"/>
        <pt x="195" y="288" on="1"/>
        <pt x="195" y="237" on="0"/>
        <pt x="211" y="171" on="0"/>
        <pt x="250" y="132" on="0"/>
        <pt x="315" y="117" on="0"/>
        <pt x="363" y="117" on="1"/>
        <pt x="366" y="117" on="0"/>
        <pt x="381" y="117" on="0"/>
        <pt x="399" y="118" on="0"/>
        <pt x="415" y="119" on="0"/>
        <pt x="419" y="120" on="1"/>
        <pt x="419" y="293" on="1"/>
        <pt x="560" y="293" on="1"/>
        <pt x="560" y="16" on="1"/>
        <pt x="504" y="5" on="0"/>
        <pt x="396" y="-9" on="0"/>
      </contour>
      <contour>
        <pt x="336" y="622" on="1"/>
        <pt x="292" y="622" on="0"/>
        <pt x="253" y="660" on="0"/>
        <pt x="253" y="702" on="1"/>
        <pt x="253" y="744" on="0"/>
        <pt x="292" y="781" on="0"/>
        <pt x="336" y="781" on="1"/>
        <pt x="381" y="781" on="0"/>
        <pt x="419" y="743" on="0"/>
        <pt x="419" y="702" on="1"/>
        <pt x="419" y="660" on="0"/>
        <pt x="381" y="622" on="0"/>
      </contour>
    </TTGlyph>
    <TTGlyph name="H" xMin="68" yMin="0" xMax="696" yMax="740">
      <contour>
        <pt x="68" y="740" on="1"/>
        <pt x="230" y="740" on="1"/>
        <pt x="230" y="444" on="1"/>
        <pt x="534" y="444" on="1"/>
        <pt x="534" y="740" on="1"/>
        <pt x="696" y="740" on="1"/>
        <pt x="696" y="0" on="1"/>
        <pt x="534" y="0" on="1"/>
        <pt x="534" y="314" on="1"/>
        <pt x="230" y="314" on="1"/>
        <pt x="230" y="0" on="1"/>
        <pt x="68" y="0" on="1"/>
      </contour>
    </TTGlyph>
    <TTGlyph name="H.sc" xMin="65" yMin="0" xMax="639" yMax="577">
      <contour>
        <pt x="65" y="577" on="1"/>
        <pt x="219" y="577" on="1"/>
        <pt x="219" y="356" on="1"/>
        <pt x="484" y="356" on="1"/>
        <pt x="484" y="577" on="1"/>
        <pt x="639" y="577" on="1"/>
        <pt x="639" y="0" on="1"/>
        <pt x="484" y="0" on="1"/>
        <pt x="484" y="235" on="1"/>
        <pt x="219" y="235" on="1"/>
        <pt x="219" y="0" on="1"/>
        <pt x="65" y="0" on="1"/>
      </contour>
    </TTGlyph>
    <TTGlyph name="Hbar" xMin="3" yMin="0" xMax="785" yMax="740">
      <contour>
        <pt x="3" y="616" on="1"/>
        <pt x="77" y="616" on="1"/>
        <pt x="77" y="740" on="1"/>
        <pt x="239" y="740" on="1"/>
        <pt x="239" y="616" on="1"/>
        <pt x="543" y="616" on="1"/>
        <pt x="543" y="740" on="1"/>
        <pt x="705" y="740" on="1"/>
        <pt x="705" y="616" on="1"/>
        <pt x="785" y="616" on="1"/>
        <pt x="785" y="540" on="1"/>
        <pt x="705" y="540" on="1"/>
        <pt x="705" y="0" on="1"/>
        <pt x="543" y="0" on="1"/>
        <pt x="543" y="314" on="1"/>
        <pt x="239" y="314" on="1"/>
        <pt x="239" y="0" on="1"/>
        <pt x="77" y="0" on="1"/>
        <pt x="77" y="540" on="1"/>
        <pt x="3" y="540" on="1"/>
      </contour>
      <contour>
        <pt x="543" y="444" on="1"/>
        <pt x="543" y="540" on="1"/>
        <pt x="239" y="540" on="1"/>
        <pt x="239" y="444" on="1"/>
      </contour>
    </TTGlyph>
    <TTGlyph name="Hbar.sc" xMin="10" yMin="0" xMax="716" yMax="577">
      <contour>
        <pt x="10" y="488" on="1"/>
        <pt x="74" y="488" on="1"/>
        <pt x="74" y="577" on="1"/>
        <pt x="227" y="577" on="1"/>
        <pt x="227" y="488" on="1"/>
        <pt x="493" y="488" on="1"/>
        <pt x="493" y="577" on="1"/>
        <pt x="646" y="577" on="1"/>
        <pt x="646" y="488" on="1"/>
        <pt x="716" y="488" on="1"/>
        <pt x="716" y="418" on="1"/>
        <pt x="646" y="418" on="1"/>
        <pt x="646" y="0" on="1"/>
        <pt x="493" y="0" on="1"/>
        <pt x="493" y="228" on="1"/>
        <pt x="227" y="228" on="1"/>
        <pt x="227" y="0" on="1"/>
        <pt x="74" y="0" on="1"/>
        <pt x="74" y="418" on="1"/>
        <pt x="10" y="418" on="1"/>
      </contour>
      <contour>
        <pt x="493" y="349" on="1"/>
        <pt x="493" y="418" on="1"/>
        <pt x="227" y="418" on="1"/>
        <pt x="227" y="349" on="1"/>
      </contour>
    </TTGlyph>
    <TTGlyph name="Hcircumflex" xMin="68" yMin="0" xMax="696" yMax="983">
      <contour>
        <pt x="68" y="740" on="1"/>
        <pt x="230" y="740" on="1"/>
        <pt x="230" y="444" on="1"/>
        <pt x="534" y="444" on="1"/>
        <pt x="534" y="740" on="1"/>
        <pt x="696" y="740" on="1"/>
        <pt x="696" y="0" on="1"/>
        <pt x="534" y="0" on="1"/>
        <pt x="534" y="314" on="1"/>
        <pt x="230" y="314" on="1"/>
        <pt x="230" y="0" on="1"/>
        <pt x="68" y="0" on="1"/>
      </contour>
      <contour>
        <pt x="196" y="908" on="1"/>
        <pt x="379" y="983" on="1"/>
        <pt x="564" y="908" on="1"/>
        <pt x="564" y="799" on="1"/>
        <pt x="380" y="874" on="1"/>
        <pt x="196" y="799" on="1"/>
      </contour>
    </TTGlyph>
    <TTGlyph name="Hcircumflex.sc" xMin="65" yMin="0" xMax="639" yMax="779">
      <contour>
        <pt x="65" y="577" on="1"/>
        <pt x="219" y="577" on="1"/>
        <pt x="219" y="356" on="1"/>
        <pt x="484" y="356" on="1"/>
        <pt x="484" y="577" on="1"/>
        <pt x="639" y="577" on="1"/>
        <pt x="639" y="0" on="1"/>
        <pt x="484" y="0" on="1"/>
        <pt x="484" y="235" on="1"/>
        <pt x="219" y="235" on="1"/>
        <pt x="219" y="0" on="1"/>
        <pt x="65" y="0" on="1"/>
      </contour>
      <contour>
        <pt x="182" y="719" on="1"/>
        <pt x="349" y="779" on="1"/>
        <pt x="519" y="719" on="1"/>
        <pt x="519" y="620" on="1"/>
        <pt x="351" y="680" on="1"/>
        <pt x="182" y="620" on="1"/>
      </contour>
    </TTGlyph>
    <TTGlyph name="Hdotbelow" xMin="68" yMin="-204" xMax="696" yMax="740">
      <contour>
        <pt x="68" y="740" on="1"/>
        <pt x="230" y="740" on="1"/>
        <pt x="230" y="444" on="1"/>
        <pt x="534" y="444" on="1"/>
        <pt x="534" y="740" on="1"/>
        <pt x="696" y="740" on="1"/>
        <pt x="696" y="0" on="1"/>
        <pt x="534" y="0" on="1"/>
        <pt x="534" y="314" on="1"/>
        <pt x="230" y="314" on="1"/>
        <pt x="230" y="0" on="1"/>
        <pt x="68" y="0" on="1"/>
      </contour>
      <contour>
        <pt x="384" y="-204" on="1"/>
        <pt x="346" y="-204" on="0"/>
        <pt x="313" y="-172" on="0"/>
        <pt x="313" y="-135" on="1"/>
        <pt x="313" y="-99" on="0"/>
        <pt x="346" y="-67" on="0"/>
        <pt x="384" y="-67" on="1"/>
        <pt x="422" y="-67" on="0"/>
        <pt x="455" y="-100" on="0"/>
        <pt x="455" y="-135" on="1"/>
        <pt x="455" y="-171" on="0"/>
        <pt x="422" y="-204" on="0"/>
      </contour>
    </TTGlyph>
    <TTGlyph name="Hdotbelow.sc" xMin="65" yMin="-167" xMax="639" yMax="577">
      <contour>
        <pt x="65" y="577" on="1"/>
        <pt x="219" y="577" on="1"/>
        <pt x="219" y="356" on="1"/>
        <pt x="484" y="356" on="1"/>
        <pt x="484" y="577" on="1"/>
        <pt x="639" y="577" on="1"/>
        <pt x="639" y="0" on="1"/>
        <pt x="484" y="0" on="1"/>
        <pt x="484" y="235" on="1"/>
        <pt x="219" y="235" on="1"/>
        <pt x="219" y="0" on="1"/>
        <pt x="65" y="0" on="1"/>
      </contour>
      <contour>
        <pt x="353" y="-167" on="1"/>
        <pt x="318" y="-167" on="0"/>
        <pt x="287" y="-139" on="0"/>
        <pt x="287" y="-107" on="1"/>
        <pt x="287" y="-75" on="0"/>
        <pt x="318" y="-46" on="0"/>
        <pt x="353" y="-46" on="1"/>
        <pt x="388" y="-46" on="0"/>
        <pt x="418" y="-75" on="0"/>
        <pt x="418" y="-107" on="1"/>
        <pt x="418" y="-138" on="0"/>
        <pt x="388" y="-167" on="0"/>
      </contour>
    </TTGlyph>
    <TTGlyph name="I" xMin="68" yMin="0" xMax="230" yMax="740">
      <contour>
        <pt x="68" y="740" on="1"/>
        <pt x="230" y="740" on="1"/>
        <pt x="230" y="0" on="1"/>
        <pt x="68" y="0" on="1"/>
      </contour>
    </TTGlyph>
    <TTGlyph name="I.sc" xMin="65" yMin="0" xMax="219" yMax="577">
      <contour>
        <pt x="65" y="577" on="1"/>
        <pt x="219" y="577" on="1"/>
        <pt x="219" y="0" on="1"/>
        <pt x="65" y="0" on="1"/>
      </contour>
    </TTGlyph>
    <TTGlyph name="IJ" xMin="68" yMin="-205" xMax="531" yMax="740">
      <contour>
        <pt x="68" y="740" on="1"/>
        <pt x="230" y="740" on="1"/>
        <pt x="230" y="0" on="1"/>
        <pt x="68" y="0" on="1"/>
      </contour>
      <contour>
        <pt x="291" y="-159" on="1"/>
        <pt x="313" y="-109" on="0"/>
        <pt x="343" y="-25" on="0"/>
        <pt x="361" y="57" on="0"/>
        <pt x="368" y="142" on="0"/>
        <pt x="368" y="194" on="1"/>
        <pt x="368" y="740" on="1"/>
        <pt x="531" y="740" on="1"/>
        <pt x="531" y="181" on="1"/>
        <pt x="531" y="130" on="0"/>
        <pt x="517" y="38" on="0"/>
        <pt x="485" y="-53" on="0"/>
        <pt x="433" y="-149" on="0"/>
        <pt x="395" y="-205" on="1"/>
      </contour>
    </TTGlyph>
    <TTGlyph name="Iacute" xMin="68" yMin="0" xMax="317" yMax="975">
      <contour>
        <pt x="68" y="740" on="1"/>
        <pt x="230" y="740" on="1"/>
        <pt x="230" y="0" on="1"/>
        <pt x="68" y="0" on="1"/>
      </contour>
      <contour>
        <pt x="87" y="806" on="1"/>
        <pt x="154" y="975" on="1"/>
        <pt x="317" y="975" on="1"/>
        <pt x="202" y="797" on="1"/>
      </contour>
    </TTGlyph>
    <TTGlyph name="Iacute.sc" xMin="65" yMin="0" xMax="297" yMax="773">
      <contour>
        <pt x="65" y="577" on="1"/>
        <pt x="219" y="577" on="1"/>
        <pt x="219" y="0" on="1"/>
        <pt x="65" y="0" on="1"/>
      </contour>
      <contour>
        <pt x="83" y="631" on="1"/>
        <pt x="142" y="773" on="1"/>
        <pt x="297" y="773" on="1"/>
        <pt x="192" y="623" on="1"/>
      </contour>
    </TTGlyph>
    <TTGlyph name="Ibreve" xMin="-52" yMin="0" xMax="351" yMax="978">
      <contour>
        <pt x="68" y="740" on="1"/>
        <pt x="230" y="740" on="1"/>
        <pt x="230" y="0" on="1"/>
        <pt x="68" y="0" on="1"/>
      </contour>
      <contour>
        <pt x="149" y="805" on="1"/>
        <pt x="96" y="805" on="0"/>
        <pt x="20" y="830" on="0"/>
        <pt x="-29" y="876" on="0"/>
        <pt x="-52" y="940" on="0"/>
        <pt x="-52" y="978" on="1"/>
        <pt x="56" y="978" on="1"/>
        <pt x="56" y="930" on="0"/>
        <pt x="97" y="883" on="0"/>
        <pt x="149" y="883" on="1"/>
        <pt x="201" y="883" on="0"/>
        <pt x="243" y="930" on="0"/>
        <pt x="243" y="978" on="1"/>
        <pt x="351" y="978" on="1"/>
        <pt x="351" y="939" on="0"/>
        <pt x="328" y="876" on="0"/>
        <pt x="278" y="830" on="0"/>
        <pt x="202" y="805" on="0"/>
      </contour>
    </TTGlyph>
    <TTGlyph name="Ibreve.sc" xMin="-43" yMin="0" xMax="327" yMax="771">
      <contour>
        <pt x="65" y="577" on="1"/>
        <pt x="219" y="577" on="1"/>
        <pt x="219" y="0" on="1"/>
        <pt x="65" y="0" on="1"/>
      </contour>
      <contour>
        <pt x="143" y="627" on="1"/>
        <pt x="93" y="627" on="0"/>
        <pt x="23" y="648" on="0"/>
        <pt x="-22" y="687" on="0"/>
        <pt x="-43" y="739" on="0"/>
        <pt x="-43" y="771" on="1"/>
        <pt x="59" y="771" on="1"/>
        <pt x="59" y="733" on="0"/>
        <pt x="95" y="697" on="0"/>
        <pt x="143" y="697" on="1"/>
        <pt x="190" y="697" on="0"/>
        <pt x="226" y="733" on="0"/>
        <pt x="226" y="771" on="1"/>
        <pt x="327" y="771" on="1"/>
        <pt x="327" y="707" on="0"/>
        <pt x="240" y="627" on="0"/>
      </contour>
    </TTGlyph>
    <TTGlyph name="Icircumflex" xMin="-33" yMin="0" xMax="335" yMax="983">
      <contour>
        <pt x="68" y="740" on="1"/>
        <pt x="230" y="740" on="1"/>
        <pt x="230" y="0" on="1"/>
        <pt x="68" y="0" on="1"/>
      </contour>
      <contour>
        <pt x="-33" y="908" on="1"/>
        <pt x="150" y="983" on="1"/>
        <pt x="335" y="908" on="1"/>
        <pt x="335" y="799" on="1"/>
        <pt x="151" y="874" on="1"/>
        <pt x="-33" y="799" on="1"/>
      </contour>
    </TTGlyph>
    <TTGlyph name="Icircumflex.sc" xMin="-25" yMin="0" xMax="313" yMax="779">
      <contour>
        <pt x="65" y="577" on="1"/>
        <pt x="219" y="577" on="1"/>
        <pt x="219" y="0" on="1"/>
        <pt x="65" y="0" on="1"/>
      </contour>
      <contour>
        <pt x="-25" y="719" on="1"/>
        <pt x="143" y="779" on="1"/>
        <pt x="313" y="719" on="1"/>
        <pt x="313" y="620" on="1"/>
        <pt x="144" y="680" on="1"/>
        <pt x="-25" y="620" on="1"/>
      </contour>
    </TTGlyph>
    <TTGlyph name="Idblgrave" xMin="-103" yMin="0" xMax="309" yMax="974">
      <contour>
        <pt x="68" y="740" on="1"/>
        <pt x="230" y="740" on="1"/>
        <pt x="230" y="0" on="1"/>
        <pt x="68" y="0" on="1"/>
      </contour>
      <contour>
        <pt x="12" y="796" on="1"/>
        <pt x="-103" y="974" on="1"/>
        <pt x="45" y="974" on="1"/>
        <pt x="112" y="807" on="1"/>
      </contour>
      <contour>
        <pt x="209" y="796" on="1"/>
        <pt x="93" y="974" on="1"/>
        <pt x="242" y="974" on="1"/>
        <pt x="309" y="807" on="1"/>
      </contour>
    </TTGlyph>
    <TTGlyph name="Idblgrave.sc" xMin="-90" yMin="0" xMax="292" yMax="773">
      <contour>
        <pt x="65" y="577" on="1"/>
        <pt x="219" y="577" on="1"/>
        <pt x="219" y="0" on="1"/>
        <pt x="65" y="0" on="1"/>
      </contour>
      <contour>
        <pt x="14" y="623" on="1"/>
        <pt x="-90" y="773" on="1"/>
        <pt x="52" y="773" on="1"/>
        <pt x="110" y="631" on="1"/>
      </contour>
      <contour>
        <pt x="196" y="623" on="1"/>
        <pt x="91" y="773" on="1"/>
        <pt x="233" y="773" on="1"/>
        <pt x="292" y="631" on="1"/>
      </contour>
    </TTGlyph>
    <TTGlyph name="Idieresis" xMin="-72" yMin="0" xMax="375" yMax="977">
      <contour>
        <pt x="68" y="740" on="1"/>
        <pt x="230" y="740" on="1"/>
        <pt x="230" y="0" on="1"/>
        <pt x="68" y="0" on="1"/>
      </contour>
      <contour>
        <pt x="16" y="804" on="1"/>
        <pt x="-31" y="804" on="0"/>
        <pt x="-72" y="845" on="0"/>
        <pt x="-72" y="891" on="1"/>
        <pt x="-72" y="936" on="0"/>
        <pt x="-31" y="977" on="0"/>
        <pt x="16" y="977" on="1"/>
        <pt x="63" y="977" on="0"/>
        <pt x="105" y="936" on="0"/>
        <pt x="105" y="891" on="1"/>
        <pt x="105" y="846" on="0"/>
        <pt x="63" y="804" on="0"/>
      </contour>
      <contour>
        <pt x="286" y="804" on="1"/>
        <pt x="239" y="804" on="0"/>
        <pt x="198" y="845" on="0"/>
        <pt x="198" y="891" on="1"/>
        <pt x="198" y="936" on="0"/>
        <pt x="239" y="977" on="0"/>
        <pt x="286" y="977" on="1"/>
        <pt x="333" y="977" on="0"/>
        <pt x="375" y="936" on="0"/>
        <pt x="375" y="891" on="1"/>
        <pt x="375" y="846" on="0"/>
        <pt x="333" y="804" on="0"/>
      </contour>
    </TTGlyph>
    <TTGlyph name="Idieresis.sc" xMin="-62" yMin="0" xMax="351" yMax="782">
      <contour>
        <pt x="65" y="577" on="1"/>
        <pt x="219" y="577" on="1"/>
        <pt x="219" y="0" on="1"/>
        <pt x="65" y="0" on="1"/>
      </contour>
      <contour>
        <pt x="21" y="623" on="1"/>
        <pt x="-24" y="623" on="0"/>
        <pt x="-62" y="661" on="0"/>
        <pt x="-62" y="703" on="1"/>
        <pt x="-62" y="745" on="0"/>
        <pt x="-24" y="782" on="0"/>
        <pt x="21" y="782" on="1"/>
        <pt x="66" y="782" on="0"/>
        <pt x="104" y="744" on="0"/>
        <pt x="104" y="703" on="1"/>
        <pt x="104" y="661" on="0"/>
        <pt x="66" y="623" on="0"/>
      </contour>
      <contour>
        <pt x="267" y="623" on="1"/>
        <pt x="223" y="623" on="0"/>
        <pt x="185" y="661" on="0"/>
        <pt x="185" y="703" on="1"/>
        <pt x="185" y="745" on="0"/>
        <pt x="223" y="782" on="0"/>
        <pt x="267" y="782" on="1"/>
        <pt x="312" y="782" on="0"/>
        <pt x="351" y="744" on="0"/>
        <pt x="351" y="703" on="1"/>
        <pt x="351" y="661" on="0"/>
        <pt x="312" y="623" on="0"/>
      </contour>
    </TTGlyph>
    <TTGlyph name="Idotaccent" xMin="62" yMin="0" xMax="239" yMax="974">
      <contour>
        <pt x="68" y="740" on="1"/>
        <pt x="230" y="740" on="1"/>
        <pt x="230" y="0" on="1"/>
        <pt x="68" y="0" on="1"/>
      </contour>
      <contour>
        <pt x="151" y="801" on="1"/>
        <pt x="103" y="801" on="0"/>
        <pt x="62" y="842" on="0"/>
        <pt x="62" y="887" on="1"/>
        <pt x="62" y="933" on="0"/>
        <pt x="103" y="974" on="0"/>
        <pt x="151" y="974" on="1"/>
        <pt x="198" y="974" on="0"/>
        <pt x="239" y="932" on="0"/>
        <pt x="239" y="887" on="1"/>
        <pt x="239" y="842" on="0"/>
        <pt x="198" y="801" on="0"/>
      </contour>
    </TTGlyph>
    <TTGlyph name="Idotaccent.sc" xMin="60" yMin="0" xMax="226" yMax="781">
      <contour>
        <pt x="65" y="577" on="1"/>
        <pt x="219" y="577" on="1"/>
        <pt x="219" y="0" on="1"/>
        <pt x="65" y="0" on="1"/>
      </contour>
      <contour>
        <pt x="143" y="622" on="1"/>
        <pt x="99" y="622" on="0"/>
        <pt x="60" y="660" on="0"/>
        <pt x="60" y="702" on="1"/>
        <pt x="60" y="744" on="0"/>
        <pt x="99" y="781" on="0"/>
        <pt x="143" y="781" on="1"/>
        <pt x="188" y="781" on="0"/>
        <pt x="226" y="743" on="0"/>
        <pt x="226" y="702" on="1"/>
        <pt x="226" y="660" on="0"/>
        <pt x="188" y="622" on="0"/>
      </contour>
    </TTGlyph>
    <TTGlyph name="Idotbelow" xMin="68" yMin="-204" xMax="230" yMax="740">
      <contour>
        <pt x="68" y="740" on="1"/>
        <pt x="230" y="740" on="1"/>
        <pt x="230" y="0" on="1"/>
        <pt x="68" y="0" on="1"/>
      </contour>
      <contour>
        <pt x="150" y="-204" on="1"/>
        <pt x="112" y="-204" on="0"/>
        <pt x="79" y="-172" on="0"/>
        <pt x="79" y="-135" on="1"/>
        <pt x="79" y="-99" on="0"/>
        <pt x="112" y="-67" on="0"/>
        <pt x="150" y="-67" on="1"/>
        <pt x="188" y="-67" on="0"/>
        <pt x="221" y="-100" on="0"/>
        <pt x="221" y="-135" on="1"/>
        <pt x="221" y="-171" on="0"/>
        <pt x="188" y="-204" on="0"/>
      </contour>
    </TTGlyph>
    <TTGlyph name="Idotbelow.sc" xMin="65" yMin="-167" xMax="219" yMax="577">
      <contour>
        <pt x="65" y="577" on="1"/>
        <pt x="219" y="577" on="1"/>
        <pt x="219" y="0" on="1"/>
        <pt x="65" y="0" on="1"/>
      </contour>
      <contour>
        <pt x="143" y="-167" on="1"/>
        <pt x="108" y="-167" on="0"/>
        <pt x="78" y="-139" on="0"/>
        <pt x="78" y="-107" on="1"/>
        <pt x="78" y="-75" on="0"/>
        <pt x="108" y="-46" on="0"/>
        <pt x="143" y="-46" on="1"/>
        <pt x="178" y="-46" on="0"/>
        <pt x="209" y="-75" on="0"/>
        <pt x="209" y="-107" on="1"/>
        <pt x="209" y="-138" on="0"/>
        <pt x="178" y="-167" on="0"/>
      </contour>
    </TTGlyph>
    <TTGlyph name="Igrave" xMin="-17" yMin="0" xMax="230" yMax="975">
      <contour>
        <pt x="68" y="740" on="1"/>
        <pt x="230" y="740" on="1"/>
        <pt x="230" y="0" on="1"/>
        <pt x="68" y="0" on="1"/>
      </contour>
      <contour>
        <pt x="98" y="797" on="1"/>
        <pt x="-17" y="975" on="1"/>
        <pt x="146" y="975" on="1"/>
        <pt x="214" y="809" on="1"/>
      </contour>
    </TTGlyph>
    <TTGlyph name="Igrave.sc" xMin="-9" yMin="0" xMax="219" yMax="773">
      <contour>
        <pt x="65" y="577" on="1"/>
        <pt x="219" y="577" on="1"/>
        <pt x="219" y="0" on="1"/>
        <pt x="65" y="0" on="1"/>
      </contour>
      <contour>
        <pt x="96" y="623" on="1"/>
        <pt x="-9" y="773" on="1"/>
        <pt x="146" y="773" on="1"/>
        <pt x="204" y="632" on="1"/>
      </contour>
    </TTGlyph>
    <TTGlyph name="Iinvertedbreve" xMin="-49" yMin="0" xMax="354" yMax="987">
      <contour>
        <pt x="68" y="740" on="1"/>
        <pt x="230" y="740" on="1"/>
        <pt x="230" y="0" on="1"/>
        <pt x="68" y="0" on="1"/>
      </contour>
      <contour>
        <pt x="245" y="814" on="1"/>
        <pt x="245" y="862" on="0"/>
        <pt x="204" y="909" on="0"/>
        <pt x="152" y="909" on="1"/>
        <pt x="100" y="909" on="0"/>
        <pt x="58" y="862" on="0"/>
        <pt x="58" y="814" on="1"/>
        <pt x="-49" y="814" on="1"/>
        <pt x="-49" y="852" on="0"/>
        <pt x="-26" y="916" on="0"/>
        <pt x="23" y="962" on="0"/>
        <pt x="99" y="987" on="0"/>
        <pt x="152" y="987" on="1"/>
        <pt x="205" y="987" on="0"/>
        <pt x="281" y="962" on="0"/>
        <pt x="331" y="916" on="0"/>
        <pt x="354" y="853" on="0"/>
        <pt x="354" y="814" on="1"/>
      </contour>
    </TTGlyph>
    <TTGlyph name="Iinvertedbreve.sc" xMin="-41" yMin="0" xMax="329" yMax="778">
      <contour>
        <pt x="65" y="577" on="1"/>
        <pt x="219" y="577" on="1"/>
        <pt x="219" y="0" on="1"/>
        <pt x="65" y="0" on="1"/>
      </contour>
      <contour>
        <pt x="228" y="634" on="1"/>
        <pt x="228" y="672" on="0"/>
        <pt x="192" y="707" on="0"/>
        <pt x="145" y="707" on="1"/>
        <pt x="97" y="707" on="0"/>
        <pt x="61" y="672" on="0"/>
        <pt x="61" y="634" on="1"/>
        <pt x="-41" y="634" on="1"/>
        <pt x="-41" y="665" on="0"/>
        <pt x="-20" y="718" on="0"/>
        <pt x="25" y="757" on="0"/>
        <pt x="95" y="778" on="0"/>
        <pt x="145" y="778" on="1"/>
        <pt x="243" y="778" on="0"/>
        <pt x="329" y="698" on="0"/>
        <pt x="329" y="634" on="1"/>
      </contour>
    </TTGlyph>
    <TTGlyph name="Imacron" xMin="-29" yMin="0" xMax="332" yMax="947">
      <contour>
        <pt x="68" y="740" on="1"/>
        <pt x="230" y="740" on="1"/>
        <pt x="230" y="0" on="1"/>
        <pt x="68" y="0" on="1"/>
      </contour>
      <contour>
        <pt x="-29" y="947" on="1"/>
        <pt x="332" y="947" on="1"/>
        <pt x="332" y="840" on="1"/>
        <pt x="-29" y="840" on="1"/>
      </contour>
    </TTGlyph>
    <TTGlyph name="Imacron.sc" xMin="-22" yMin="0" xMax="311" yMax="754">
      <contour>
        <pt x="65" y="577" on="1"/>
        <pt x="219" y="577" on="1"/>
        <pt x="219" y="0" on="1"/>
        <pt x="65" y="0" on="1"/>
      </contour>
      <contour>
        <pt x="-22" y="754" on="1"/>
        <pt x="311" y="754" on="1"/>
        <pt x="311" y="655" on="1"/>
        <pt x="-22" y="655" on="1"/>
      </contour>
    </TTGlyph>
    <TTGlyph name="Iogonek" xMin="12" yMin="-220" xMax="230" yMax="740">
      <contour>
        <pt x="68" y="740" on="1"/>
        <pt x="230" y="740" on="1"/>
        <pt x="230" y="-10" on="1"/>
        <pt x="167" y="-36" on="0"/>
        <pt x="116" y="-85" on="0"/>
        <pt x="116" y="-106" on="1"/>
        <pt x="116" y="-132" on="0"/>
        <pt x="152" y="-132" on="1"/>
        <pt x="167" y="-132" on="0"/>
        <pt x="211" y="-124" on="0"/>
        <pt x="230" y="-118" on="1"/>
        <pt x="230" y="-208" on="1"/>
        <pt x="189" y="-220" on="0"/>
        <pt x="145" y="-220" on="1"/>
        <pt x="80" y="-220" on="0"/>
        <pt x="12" y="-172" on="0"/>
        <pt x="12" y="-126" on="1"/>
        <pt x="12" y="-56" on="0"/>
        <pt x="99" y="0" on="1"/>
        <pt x="68" y="0" on="1"/>
      </contour>
    </TTGlyph>
    <TTGlyph name="Iogonek.sc" xMin="19" yMin="-172" xMax="220" yMax="577">
      <contour>
        <pt x="66" y="577" on="1"/>
        <pt x="219" y="577" on="1"/>
        <pt x="219" y="-5" on="1"/>
        <pt x="157" y="-28" on="0"/>
        <pt x="116" y="-62" on="0"/>
        <pt x="116" y="-74" on="1"/>
        <pt x="116" y="-90" on="0"/>
        <pt x="147" y="-90" on="1"/>
        <pt x="161" y="-90" on="0"/>
        <pt x="206" y="-84" on="0"/>
        <pt x="220" y="-80" on="1"/>
        <pt x="220" y="-162" on="1"/>
        <pt x="183" y="-172" on="0"/>
        <pt x="142" y="-172" on="1"/>
        <pt x="82" y="-172" on="0"/>
        <pt x="19" y="-132" on="0"/>
        <pt x="19" y="-95" on="1"/>
        <pt x="19" y="-41" on="0"/>
        <pt x="91" y="0" on="1"/>
        <pt x="66" y="0" on="1"/>
      </contour>
    </TTGlyph>
    <TTGlyph name="Itilde" xMin="-60" yMin="0" xMax="376" yMax="964">
      <contour>
        <pt x="68" y="740" on="1"/>
        <pt x="230" y="740" on="1"/>
        <pt x="230" y="0" on="1"/>
        <pt x="68" y="0" on="1"/>
      </contour>
      <contour>
        <pt x="-60" y="851" on="1"/>
        <pt x="-29" y="908" on="0"/>
        <pt x="50" y="964" on="0"/>
        <pt x="88" y="964" on="1"/>
        <pt x="111" y="964" on="0"/>
        <pt x="156" y="952" on="0"/>
        <pt x="199" y="937" on="0"/>
        <pt x="243" y="925" on="0"/>
        <pt x="266" y="925" on="1"/>
        <pt x="287" y="925" on="0"/>
        <pt x="328" y="942" on="0"/>
        <pt x="353" y="963" on="1"/>
        <pt x="376" y="936" on="1"/>
        <pt x="346" y="879" on="0"/>
        <pt x="266" y="821" on="0"/>
        <pt x="228" y="821" on="1"/>
        <pt x="205" y="821" on="0"/>
        <pt x="161" y="833" on="0"/>
        <pt x="117" y="847" on="0"/>
        <pt x="73" y="859" on="0"/>
        <pt x="51" y="859" on="1"/>
        <pt x="29" y="859" on="0"/>
        <pt x="-13" y="843" on="0"/>
        <pt x="-37" y="823" on="1"/>
      </contour>
    </TTGlyph>
    <TTGlyph name="Itilde.sc" xMin="-51" yMin="0" xMax="349" yMax="766">
      <contour>
        <pt x="65" y="577" on="1"/>
        <pt x="219" y="577" on="1"/>
        <pt x="219" y="0" on="1"/>
        <pt x="65" y="0" on="1"/>
      </contour>
      <contour>
        <pt x="-51" y="663" on="1"/>
        <pt x="-22" y="714" on="0"/>
        <pt x="50" y="766" on="0"/>
        <pt x="85" y="766" on="1"/>
        <pt x="106" y="766" on="0"/>
        <pt x="147" y="757" on="0"/>
        <pt x="188" y="746" on="0"/>
        <pt x="228" y="737" on="0"/>
        <pt x="249" y="737" on="1"/>
        <pt x="269" y="737" on="0"/>
        <pt x="305" y="749" on="0"/>
        <pt x="328" y="766" on="1"/>
        <pt x="349" y="742" on="1"/>
        <pt x="320" y="690" on="0"/>
        <pt x="248" y="639" on="0"/>
        <pt x="213" y="639" on="1"/>
        <pt x="192" y="639" on="0"/>
        <pt x="151" y="648" on="0"/>
        <pt x="111" y="660" on="0"/>
        <pt x="70" y="669" on="0"/>
        <pt x="49" y="669" on="1"/>
        <pt x="29" y="669" on="0"/>
        <pt x="-7" y="657" on="0"/>
        <pt x="-30" y="640" on="1"/>
      </contour>
    </TTGlyph>
    <TTGlyph name="J" xMin="-7" yMin="-205" xMax="233" yMax="740">
      <contour>
        <pt x="-7" y="-159" on="1"/>
        <pt x="15" y="-109" on="0"/>
        <pt x="45" y="-25" on="0"/>
        <pt x="63" y="57" on="0"/>
        <pt x="70" y="142" on="0"/>
        <pt x="70" y="194" on="1"/>
        <pt x="70" y="740" on="1"/>
        <pt x="233" y="740" on="1"/>
        <pt x="233" y="181" on="1"/>
        <pt x="233" y="130" on="0"/>
        <pt x="219" y="38" on="0"/>
        <pt x="187" y="-53" on="0"/>
        <pt x="135" y="-149" on="0"/>
        <pt x="97" y="-205" on="1"/>
      </contour>
    </TTGlyph>
    <TTGlyph name="J.sc" xMin="0" yMin="-166" xMax="221" yMax="577">
      <contour>
        <pt x="0" y="-123" on="1"/>
        <pt x="19" y="-84" on="0"/>
        <pt x="45" y="-18" on="0"/>
        <pt x="61" y="46" on="0"/>
        <pt x="67" y="113" on="0"/>
        <pt x="67" y="154" on="1"/>
        <pt x="67" y="577" on="1"/>
        <pt x="221" y="577" on="1"/>
        <pt x="221" y="142" on="1"/>
        <pt x="221" y="101" on="0"/>
        <pt x="208" y="28" on="0"/>
        <pt x="180" y="-44" on="0"/>
        <pt x="132" y="-121" on="0"/>
        <pt x="98" y="-166" on="1"/>
      </contour>
    </TTGlyph>
    <TTGlyph name="Jcircumflex" xMin="-31" yMin="-205" xMax="337" yMax="983">
      <contour>
        <pt x="-7" y="-159" on="1"/>
        <pt x="15" y="-109" on="0"/>
        <pt x="45" y="-25" on="0"/>
        <pt x="63" y="57" on="0"/>
        <pt x="70" y="142" on="0"/>
        <pt x="70" y="194" on="1"/>
        <pt x="70" y="740" on="1"/>
        <pt x="233" y="740" on="1"/>
        <pt x="233" y="181" on="1"/>
        <pt x="233" y="130" on="0"/>
        <pt x="219" y="38" on="0"/>
        <pt x="187" y="-53" on="0"/>
        <pt x="135" y="-149" on="0"/>
        <pt x="97" y="-205" on="1"/>
      </contour>
      <contour>
        <pt x="-31" y="908" on="1"/>
        <pt x="152" y="983" on="1"/>
        <pt x="337" y="908" on="1"/>
        <pt x="337" y="799" on="1"/>
        <pt x="153" y="874" on="1"/>
        <pt x="-31" y="799" on="1"/>
      </contour>
    </TTGlyph>
    <TTGlyph name="Jcircumflex.sc" xMin="-23" yMin="-166" xMax="315" yMax="779">
      <contour>
        <pt x="-1" y="-123" on="1"/>
        <pt x="18" y="-84" on="0"/>
        <pt x="45" y="-18" on="0"/>
        <pt x="60" y="46" on="0"/>
        <pt x="67" y="113" on="0"/>
        <pt x="67" y="154" on="1"/>
        <pt x="67" y="577" on="1"/>
        <pt x="221" y="577" on="1"/>
        <pt x="221" y="142" on="1"/>
        <pt x="221" y="101" on="0"/>
        <pt x="208" y="28" on="0"/>
        <pt x="180" y="-44" on="0"/>
        <pt x="132" y="-121" on="0"/>
        <pt x="98" y="-166" on="1"/>
      </contour>
      <contour>
        <pt x="-23" y="719" on="1"/>
        <pt x="145" y="779" on="1"/>
        <pt x="315" y="719" on="1"/>
        <pt x="315" y="620" on="1"/>
        <pt x="146" y="680" on="1"/>
        <pt x="-23" y="620" on="1"/>
      </contour>
    </TTGlyph>
    <TTGlyph name="K" xMin="68" yMin="0" xMax="694" yMax="740">
      <contour>
        <pt x="68" y="740" on="1"/>
        <pt x="230" y="740" on="1"/>
        <pt x="230" y="440" on="1"/>
        <pt x="326" y="440" on="1"/>
        <pt x="494" y="740" on="1"/>
        <pt x="675" y="740" on="1"/>
        <pt x="482" y="412" on="1"/>
        <pt x="433" y="386" on="1"/>
        <pt x="433" y="378" on="1"/>
        <pt x="484" y="352" on="1"/>
        <pt x="694" y="0" on="1"/>
        <pt x="512" y="0" on="1"/>
        <pt x="333" y="310" on="1"/>
        <pt x="230" y="310" on="1"/>
        <pt x="230" y="0" on="1"/>
        <pt x="68" y="0" on="1"/>
      </contour>
    </TTGlyph>
    <TTGlyph name="K.sc" xMin="65" yMin="0" xMax="636" yMax="577">
      <contour>
        <pt x="65" y="577" on="1"/>
        <pt x="219" y="577" on="1"/>
        <pt x="219" y="352" on="1"/>
        <pt x="303" y="352" on="1"/>
        <pt x="448" y="577" on="1"/>
        <pt x="619" y="577" on="1"/>
        <pt x="450" y="323" on="1"/>
        <pt x="400" y="302" on="1"/>
        <pt x="400" y="296" on="1"/>
        <pt x="451" y="274" on="1"/>
        <pt x="636" y="0" on="1"/>
        <pt x="464" y="0" on="1"/>
        <pt x="309" y="231" on="1"/>
        <pt x="219" y="231" on="1"/>
        <pt x="219" y="0" on="1"/>
        <pt x="65" y="0" on="1"/>
      </contour>
    </TTGlyph>
    <TTGlyph name="Kcommaaccent" xMin="68" yMin="-220" xMax="694" yMax="740">
      <contour>
        <pt x="262" y="-69" on="1"/>
        <pt x="425" y="-69" on="1"/>
        <pt x="339" y="-220" on="1"/>
        <pt x="218" y="-220" on="1"/>
      </contour>
      <contour>
        <pt x="68" y="740" on="1"/>
        <pt x="230" y="740" on="1"/>
        <pt x="230" y="440" on="1"/>
        <pt x="326" y="440" on="1"/>
        <pt x="494" y="740" on="1"/>
        <pt x="675" y="740" on="1"/>
        <pt x="482" y="412" on="1"/>
        <pt x="433" y="386" on="1"/>
        <pt x="433" y="378" on="1"/>
        <pt x="484" y="352" on="1"/>
        <pt x="694" y="0" on="1"/>
        <pt x="512" y="0" on="1"/>
        <pt x="333" y="310" on="1"/>
        <pt x="230" y="310" on="1"/>
        <pt x="230" y="0" on="1"/>
        <pt x="68" y="0" on="1"/>
      </contour>
    </TTGlyph>
    <TTGlyph name="Kcommaaccent.sc" xMin="65" yMin="-172" xMax="636" yMax="577">
      <contour>
        <pt x="65" y="577" on="1"/>
        <pt x="219" y="577" on="1"/>
        <pt x="219" y="352" on="1"/>
        <pt x="303" y="352" on="1"/>
        <pt x="448" y="577" on="1"/>
        <pt x="619" y="577" on="1"/>
        <pt x="450" y="323" on="1"/>
        <pt x="400" y="302" on="1"/>
        <pt x="400" y="296" on="1"/>
        <pt x="451" y="274" on="1"/>
        <pt x="636" y="0" on="1"/>
        <pt x="464" y="0" on="1"/>
        <pt x="309" y="231" on="1"/>
        <pt x="219" y="231" on="1"/>
        <pt x="219" y="0" on="1"/>
        <pt x="65" y="0" on="1"/>
      </contour>
      <contour>
        <pt x="253" y="-55" on="1"/>
        <pt x="408" y="-55" on="1"/>
        <pt x="330" y="-172" on="1"/>
        <pt x="216" y="-172" on="1"/>
      </contour>
    </TTGlyph>
    <TTGlyph name="L" xMin="68" yMin="0" xMax="520" yMax="740">
      <contour>
        <pt x="68" y="740" on="1"/>
        <pt x="230" y="740" on="1"/>
        <pt x="230" y="129" on="1"/>
        <pt x="520" y="129" on="1"/>
        <pt x="520" y="0" on="1"/>
        <pt x="68" y="0" on="1"/>
      </contour>
    </TTGlyph>
    <TTGlyph name="L.sc" xMin="65" yMin="0" xMax="480" yMax="577">
      <contour>
        <pt x="65" y="577" on="1"/>
        <pt x="219" y="577" on="1"/>
        <pt x="219" y="121" on="1"/>
        <pt x="480" y="121" on="1"/>
        <pt x="480" y="0" on="1"/>
        <pt x="65" y="0" on="1"/>
      </contour>
    </TTGlyph>
    <TTGlyph name="Lacute" xMin="68" yMin="0" xMax="520" yMax="975">
      <contour>
        <pt x="93" y="806" on="1"/>
        <pt x="160" y="975" on="1"/>
        <pt x="323" y="975" on="1"/>
        <pt x="208" y="797" on="1"/>
      </contour>
      <contour>
        <pt x="68" y="740" on="1"/>
        <pt x="230" y="740" on="1"/>
        <pt x="230" y="129" on="1"/>
        <pt x="520" y="129" on="1"/>
        <pt x="520" y="0" on="1"/>
        <pt x="68" y="0" on="1"/>
      </contour>
    </TTGlyph>
    <TTGlyph name="Lacute.sc" xMin="65" yMin="0" xMax="480" yMax="773">
      <contour>
        <pt x="65" y="577" on="1"/>
        <pt x="219" y="577" on="1"/>
        <pt x="219" y="121" on="1"/>
        <pt x="480" y="121" on="1"/>
        <pt x="480" y="0" on="1"/>
        <pt x="65" y="0" on="1"/>
      </contour>
      <contour>
        <pt x="89" y="631" on="1"/>
        <pt x="148" y="773" on="1"/>
        <pt x="303" y="773" on="1"/>
        <pt x="198" y="623" on="1"/>
      </contour>
    </TTGlyph>
    <TTGlyph name="Lcaron" xMin="68" yMin="0" xMax="522" yMax="788">
      <contour>
        <pt x="396" y="788" on="1"/>
        <pt x="522" y="788" on="1"/>
        <pt x="481" y="560" on="1"/>
        <pt x="396" y="560" on="1"/>
      </contour>
      <contour>
        <pt x="68" y="740" on="1"/>
        <pt x="230" y="740" on="1"/>
        <pt x="230" y="129" on="1"/>
        <pt x="520" y="129" on="1"/>
        <pt x="520" y="0" on="1"/>
        <pt x="68" y="0" on="1"/>
      </contour>
    </TTGlyph>
    <TTGlyph name="Lcaron.sc" xMin="66" yMin="0" xMax="480" yMax="624">
      <contour>
        <pt x="66" y="577" on="1"/>
        <pt x="219" y="577" on="1"/>
        <pt x="219" y="121" on="1"/>
        <pt x="480" y="121" on="1"/>
        <pt x="480" y="0" on="1"/>
        <pt x="66" y="0" on="1"/>
      </contour>
      <contour>
        <pt x="362" y="624" on="1"/>
        <pt x="480" y="624" on="1"/>
        <pt x="442" y="447" on="1"/>
        <pt x="362" y="447" on="1"/>
      </contour>
    </TTGlyph>
    <TTGlyph name="Lcommaaccent" xMin="68" yMin="-220" xMax="520" yMax="740">
      <contour>
        <pt x="207" y="-69" on="1"/>
        <pt x="370" y="-69" on="1"/>
        <pt x="284" y="-220" on="1"/>
        <pt x="163" y="-220" on="1"/>
      </contour>
      <contour>
        <pt x="68" y="740" on="1"/>
        <pt x="230" y="740" on="1"/>
        <pt x="230" y="129" on="1"/>
        <pt x="520" y="129" on="1"/>
        <pt x="520" y="0" on="1"/>
        <pt x="68" y="0" on="1"/>
      </contour>
    </TTGlyph>
    <TTGlyph name="Lcommaaccent.sc" xMin="65" yMin="-172" xMax="480" yMax="577">
      <contour>
        <pt x="65" y="577" on="1"/>
        <pt x="219" y="577" on="1"/>
        <pt x="219" y="121" on="1"/>
        <pt x="480" y="121" on="1"/>
        <pt x="480" y="0" on="1"/>
        <pt x="65" y="0" on="1"/>
      </contour>
      <contour>
        <pt x="187" y="-55" on="1"/>
        <pt x="341" y="-55" on="1"/>
        <pt x="263" y="-172" on="1"/>
        <pt x="149" y="-172" on="1"/>
      </contour>
    </TTGlyph>
    <TTGlyph name="Ldot" xMin="68" yMin="0" xMax="525" yMax="740">
      <contour>
        <pt x="68" y="740" on="1"/>
        <pt x="230" y="740" on="1"/>
        <pt x="230" y="129" on="1"/>
        <pt x="520" y="129" on="1"/>
        <pt x="520" y="0" on="1"/>
        <pt x="68" y="0" on="1"/>
      </contour>
      <contour>
        <pt x="437" y="296" on="1"/>
        <pt x="389" y="296" on="0"/>
        <pt x="348" y="336" on="0"/>
        <pt x="348" y="382" on="1"/>
        <pt x="348" y="428" on="0"/>
        <pt x="389" y="469" on="0"/>
        <pt x="437" y="469" on="1"/>
        <pt x="484" y="469" on="0"/>
        <pt x="525" y="427" on="0"/>
        <pt x="525" y="382" on="1"/>
        <pt x="525" y="337" on="0"/>
        <pt x="484" y="296" on="0"/>
      </contour>
    </TTGlyph>
    <TTGlyph name="Ldot.sc" xMin="65" yMin="0" xMax="488" yMax="577">
      <contour>
        <pt x="65" y="577" on="1"/>
        <pt x="219" y="577" on="1"/>
        <pt x="219" y="121" on="1"/>
        <pt x="480" y="121" on="1"/>
        <pt x="480" y="0" on="1"/>
        <pt x="65" y="0" on="1"/>
      </contour>
      <contour>
        <pt x="404" y="223" on="1"/>
        <pt x="360" y="223" on="0"/>
        <pt x="321" y="260" on="0"/>
        <pt x="321" y="302" on="1"/>
        <pt x="321" y="344" on="0"/>
        <pt x="360" y="381" on="0"/>
        <pt x="404" y="381" on="1"/>
        <pt x="449" y="381" on="0"/>
        <pt x="488" y="344" on="0"/>
        <pt x="488" y="302" on="1"/>
        <pt x="488" y="261" on="0"/>
        <pt x="449" y="223" on="0"/>
      </contour>
    </TTGlyph>
    <TTGlyph name="Lslash" xMin="11" yMin="0" xMax="539" yMax="740">
      <contour>
        <pt x="11" y="344" on="1"/>
        <pt x="87" y="385" on="1"/>
        <pt x="87" y="740" on="1"/>
        <pt x="249" y="740" on="1"/>
        <pt x="249" y="474" on="1"/>
        <pt x="375" y="543" on="1"/>
        <pt x="375" y="424" on="1"/>
        <pt x="249" y="355" on="1"/>
        <pt x="249" y="129" on="1"/>
        <pt x="539" y="129" on="1"/>
        <pt x="539" y="0" on="1"/>
        <pt x="87" y="0" on="1"/>
        <pt x="87" y="266" on="1"/>
        <pt x="11" y="225" on="1"/>
      </contour>
    </TTGlyph>
    <TTGlyph name="Lslash.sc" xMin="15" yMin="0" xMax="496" yMax="577">
      <contour>
        <pt x="15" y="285" on="1"/>
        <pt x="81" y="319" on="1"/>
        <pt x="81" y="577" on="1"/>
        <pt x="235" y="577" on="1"/>
        <pt x="235" y="381" on="1"/>
        <pt x="347" y="435" on="1"/>
        <pt x="347" y="326" on="1"/>
        <pt x="235" y="272" on="1"/>
        <pt x="235" y="121" on="1"/>
        <pt x="496" y="121" on="1"/>
        <pt x="496" y="0" on="1"/>
        <pt x="81" y="0" on="1"/>
        <pt x="81" y="209" on="1"/>
        <pt x="15" y="176" on="1"/>
      </contour>
    </TTGlyph>
    <TTGlyph name="M" xMin="68" yMin="0" xMax="881" yMax="740">
      <contour>
        <pt x="68" y="740" on="1"/>
        <pt x="293" y="740" on="1"/>
        <pt x="431" y="366" on="1"/>
        <pt x="471" y="224" on="1"/>
        <pt x="478" y="224" on="1"/>
        <pt x="518" y="366" on="1"/>
        <pt x="656" y="740" on="1"/>
        <pt x="881" y="740" on="1"/>
        <pt x="881" y="0" on="1"/>
        <pt x="734" y="0" on="1"/>
        <pt x="734" y="550" on="1"/>
        <pt x="727" y="550" on="1"/>
        <pt x="670" y="374" on="1"/>
        <pt x="541" y="33" on="1"/>
        <pt x="407" y="33" on="1"/>
        <pt x="279" y="374" on="1"/>
        <pt x="221" y="550" on="1"/>
        <pt x="214" y="550" on="1"/>
        <pt x="214" y="0" on="1"/>
        <pt x="68" y="0" on="1"/>
      </contour>
    </TTGlyph>
    <TTGlyph name="M.sc" xMin="65" yMin="0" xMax="804" yMax="577">
      <contour>
        <pt x="65" y="577" on="1"/>
        <pt x="272" y="577" on="1"/>
        <pt x="392" y="305" on="1"/>
        <pt x="430" y="204" on="1"/>
        <pt x="438" y="204" on="1"/>
        <pt x="476" y="305" on="1"/>
        <pt x="597" y="577" on="1"/>
        <pt x="804" y="577" on="1"/>
        <pt x="804" y="0" on="1"/>
        <pt x="665" y="0" on="1"/>
        <pt x="665" y="409" on="1"/>
        <pt x="657" y="408" on="1"/>
        <pt x="598" y="262" on="1"/>
        <pt x="496" y="25" on="1"/>
        <pt x="372" y="25" on="1"/>
        <pt x="270" y="262" on="1"/>
        <pt x="211" y="408" on="1"/>
        <pt x="204" y="409" on="1"/>
        <pt x="204" y="0" on="1"/>
        <pt x="65" y="0" on="1"/>
      </contour>
    </TTGlyph>
    <TTGlyph name="N" xMin="68" yMin="0" xMax="698" yMax="740">
      <contour>
        <pt x="68" y="740" on="1"/>
        <pt x="200" y="740" on="1"/>
        <pt x="494" y="337" on="1"/>
        <pt x="547" y="254" on="1"/>
        <pt x="556" y="254" on="1"/>
        <pt x="556" y="740" on="1"/>
        <pt x="698" y="740" on="1"/>
        <pt x="698" y="0" on="1"/>
        <pt x="566" y="0" on="1"/>
        <pt x="275" y="399" on="1"/>
        <pt x="220" y="486" on="1"/>
        <pt x="211" y="486" on="1"/>
        <pt x="211" y="0" on="1"/>
        <pt x="68" y="0" on="1"/>
      </contour>
    </TTGlyph>
    <TTGlyph name="N.sc" xMin="65" yMin="0" xMax="627" yMax="577">
      <contour>
        <pt x="65" y="577" on="1"/>
        <pt x="187" y="577" on="1"/>
        <pt x="431" y="290" on="1"/>
        <pt x="483" y="225" on="1"/>
        <pt x="490" y="225" on="1"/>
        <pt x="490" y="577" on="1"/>
        <pt x="627" y="577" on="1"/>
        <pt x="627" y="0" on="1"/>
        <pt x="506" y="0" on="1"/>
        <pt x="265" y="283" on="1"/>
        <pt x="210" y="353" on="1"/>
        <pt x="202" y="353" on="1"/>
        <pt x="202" y="0" on="1"/>
        <pt x="65" y="0" on="1"/>
      </contour>
    </TTGlyph>
    <TTGlyph name="Nacute" xMin="68" yMin="0" xMax="698" yMax="975">
      <contour>
        <pt x="305" y="806" on="1"/>
        <pt x="372" y="975" on="1"/>
        <pt x="535" y="975" on="1"/>
        <pt x="420" y="797" on="1"/>
      </contour>
      <contour>
        <pt x="68" y="740" on="1"/>
        <pt x="200" y="740" on="1"/>
        <pt x="494" y="337" on="1"/>
        <pt x="547" y="254" on="1"/>
        <pt x="556" y="254" on="1"/>
        <pt x="556" y="740" on="1"/>
        <pt x="698" y="740" on="1"/>
        <pt x="698" y="0" on="1"/>
        <pt x="566" y="0" on="1"/>
        <pt x="275" y="399" on="1"/>
        <pt x="220" y="486" on="1"/>
        <pt x="211" y="486" on="1"/>
        <pt x="211" y="0" on="1"/>
        <pt x="68" y="0" on="1"/>
      </contour>
    </TTGlyph>
    <TTGlyph name="Nacute.sc" xMin="65" yMin="0" xMax="627" yMax="773">
      <contour>
        <pt x="65" y="577" on="1"/>
        <pt x="187" y="577" on="1"/>
        <pt x="431" y="290" on="1"/>
        <pt x="483" y="225" on="1"/>
        <pt x="490" y="225" on="1"/>
        <pt x="490" y="577" on="1"/>
        <pt x="627" y="577" on="1"/>
        <pt x="627" y="0" on="1"/>
        <pt x="506" y="0" on="1"/>
        <pt x="265" y="283" on="1"/>
        <pt x="210" y="353" on="1"/>
        <pt x="202" y="353" on="1"/>
        <pt x="202" y="0" on="1"/>
        <pt x="65" y="0" on="1"/>
      </contour>
      <contour>
        <pt x="273" y="631" on="1"/>
        <pt x="332" y="773" on="1"/>
        <pt x="486" y="773" on="1"/>
        <pt x="382" y="623" on="1"/>
      </contour>
    </TTGlyph>
    <TTGlyph name="Ncaron" xMin="68" yMin="0" xMax="698" yMax="980">
      <contour>
        <pt x="201" y="980" on="1"/>
        <pt x="385" y="905" on="1"/>
        <pt x="568" y="980" on="1"/>
        <pt x="568" y="871" on="1"/>
        <pt x="384" y="796" on="1"/>
        <pt x="201" y="871" on="1"/>
      </contour>
      <contour>
        <pt x="68" y="740" on="1"/>
        <pt x="200" y="740" on="1"/>
        <pt x="494" y="337" on="1"/>
        <pt x="547" y="254" on="1"/>
        <pt x="556" y="254" on="1"/>
        <pt x="556" y="740" on="1"/>
        <pt x="698" y="740" on="1"/>
        <pt x="698" y="0" on="1"/>
        <pt x="566" y="0" on="1"/>
        <pt x="275" y="399" on="1"/>
        <pt x="220" y="486" on="1"/>
        <pt x="211" y="486" on="1"/>
        <pt x="211" y="0" on="1"/>
        <pt x="68" y="0" on="1"/>
      </contour>
    </TTGlyph>
    <TTGlyph name="Ncaron.sc" xMin="65" yMin="0" xMax="627" yMax="778">
      <contour>
        <pt x="65" y="577" on="1"/>
        <pt x="187" y="577" on="1"/>
        <pt x="431" y="290" on="1"/>
        <pt x="483" y="225" on="1"/>
        <pt x="490" y="225" on="1"/>
        <pt x="490" y="577" on="1"/>
        <pt x="627" y="577" on="1"/>
        <pt x="627" y="0" on="1"/>
        <pt x="506" y="0" on="1"/>
        <pt x="265" y="283" on="1"/>
        <pt x="210" y="353" on="1"/>
        <pt x="202" y="353" on="1"/>
        <pt x="202" y="0" on="1"/>
        <pt x="65" y="0" on="1"/>
      </contour>
      <contour>
        <pt x="179" y="679" on="1"/>
        <pt x="179" y="778" on="1"/>
        <pt x="347" y="719" on="1"/>
        <pt x="517" y="778" on="1"/>
        <pt x="517" y="679" on="1"/>
        <pt x="347" y="619" on="1"/>
      </contour>
    </TTGlyph>
    <TTGlyph name="Ncommaaccent" xMin="68" yMin="-220" xMax="698" yMax="740">
      <contour>
        <pt x="315" y="-69" on="1"/>
        <pt x="478" y="-69" on="1"/>
        <pt x="392" y="-220" on="1"/>
        <pt x="271" y="-220" on="1"/>
      </contour>
      <contour>
        <pt x="68" y="740" on="1"/>
        <pt x="200" y="740" on="1"/>
        <pt x="494" y="337" on="1"/>
        <pt x="547" y="254" on="1"/>
        <pt x="556" y="254" on="1"/>
        <pt x="556" y="740" on="1"/>
        <pt x="698" y="740" on="1"/>
        <pt x="698" y="0" on="1"/>
        <pt x="566" y="0" on="1"/>
        <pt x="275" y="399" on="1"/>
        <pt x="220" y="486" on="1"/>
        <pt x="211" y="486" on="1"/>
        <pt x="211" y="0" on="1"/>
        <pt x="68" y="0" on="1"/>
      </contour>
    </TTGlyph>
    <TTGlyph name="Ncommaaccent.sc" xMin="65" yMin="-172" xMax="627" yMax="577">
      <contour>
        <pt x="65" y="577" on="1"/>
        <pt x="187" y="577" on="1"/>
        <pt x="431" y="290" on="1"/>
        <pt x="483" y="225" on="1"/>
        <pt x="490" y="225" on="1"/>
        <pt x="490" y="577" on="1"/>
        <pt x="627" y="577" on="1"/>
        <pt x="627" y="0" on="1"/>
        <pt x="506" y="0" on="1"/>
        <pt x="265" y="283" on="1"/>
        <pt x="210" y="353" on="1"/>
        <pt x="202" y="353" on="1"/>
        <pt x="202" y="0" on="1"/>
        <pt x="65" y="0" on="1"/>
      </contour>
      <contour>
        <pt x="279" y="-55" on="1"/>
        <pt x="433" y="-55" on="1"/>
        <pt x="355" y="-172" on="1"/>
        <pt x="241" y="-172" on="1"/>
      </contour>
    </TTGlyph>
    <TTGlyph name="Ndotaccent" xMin="68" yMin="0" xMax="698" yMax="974">
      <contour>
        <pt x="381" y="801" on="1"/>
        <pt x="333" y="801" on="0"/>
        <pt x="292" y="842" on="0"/>
        <pt x="292" y="887" on="1"/>
        <pt x="292" y="933" on="0"/>
        <pt x="333" y="974" on="0"/>
        <pt x="381" y="974" on="1"/>
        <pt x="428" y="974" on="0"/>
        <pt x="469" y="932" on="0"/>
        <pt x="469" y="887" on="1"/>
        <pt x="469" y="842" on="0"/>
        <pt x="428" y="801" on="0"/>
      </contour>
      <contour>
        <pt x="68" y="740" on="1"/>
        <pt x="200" y="740" on="1"/>
        <pt x="494" y="337" on="1"/>
        <pt x="547" y="254" on="1"/>
        <pt x="556" y="254" on="1"/>
        <pt x="556" y="740" on="1"/>
        <pt x="698" y="740" on="1"/>
        <pt x="698" y="0" on="1"/>
        <pt x="566" y="0" on="1"/>
        <pt x="275" y="399" on="1"/>
        <pt x="220" y="486" on="1"/>
        <pt x="211" y="486" on="1"/>
        <pt x="211" y="0" on="1"/>
        <pt x="68" y="0" on="1"/>
      </contour>
    </TTGlyph>
    <TTGlyph name="Ndotaccent.sc" xMin="65" yMin="0" xMax="627" yMax="781">
      <contour>
        <pt x="65" y="577" on="1"/>
        <pt x="187" y="577" on="1"/>
        <pt x="431" y="290" on="1"/>
        <pt x="483" y="225" on="1"/>
        <pt x="490" y="225" on="1"/>
        <pt x="490" y="577" on="1"/>
        <pt x="627" y="577" on="1"/>
        <pt x="627" y="0" on="1"/>
        <pt x="506" y="0" on="1"/>
        <pt x="265" y="283" on="1"/>
        <pt x="210" y="353" on="1"/>
        <pt x="202" y="353" on="1"/>
        <pt x="202" y="0" on="1"/>
        <pt x="65" y="0" on="1"/>
      </contour>
      <contour>
        <pt x="345" y="622" on="1"/>
        <pt x="300" y="622" on="0"/>
        <pt x="262" y="660" on="0"/>
        <pt x="262" y="702" on="1"/>
        <pt x="262" y="744" on="0"/>
        <pt x="300" y="781" on="0"/>
        <pt x="345" y="781" on="1"/>
        <pt x="390" y="781" on="0"/>
        <pt x="428" y="743" on="0"/>
        <pt x="428" y="702" on="1"/>
        <pt x="428" y="660" on="0"/>
        <pt x="390" y="622" on="0"/>
      </contour>
    </TTGlyph>
    <TTGlyph name="Ntilde" xMin="68" yMin="0" xMax="698" yMax="964">
      <contour>
        <pt x="170" y="851" on="1"/>
        <pt x="201" y="908" on="0"/>
        <pt x="280" y="964" on="0"/>
        <pt x="318" y="964" on="1"/>
        <pt x="341" y="964" on="0"/>
        <pt x="386" y="952" on="0"/>
        <pt x="429" y="937" on="0"/>
        <pt x="473" y="925" on="0"/>
        <pt x="496" y="925" on="1"/>
        <pt x="517" y="925" on="0"/>
        <pt x="558" y="942" on="0"/>
        <pt x="583" y="963" on="1"/>
        <pt x="606" y="936" on="1"/>
        <pt x="576" y="879" on="0"/>
        <pt x="496" y="821" on="0"/>
        <pt x="458" y="821" on="1"/>
        <pt x="435" y="821" on="0"/>
        <pt x="391" y="833" on="0"/>
        <pt x="347" y="847" on="0"/>
        <pt x="303" y="859" on="0"/>
        <pt x="281" y="859" on="1"/>
        <pt x="259" y="859" on="0"/>
        <pt x="217" y="843" on="0"/>
        <pt x="193" y="823" on="1"/>
      </contour>
      <contour>
        <pt x="68" y="740" on="1"/>
        <pt x="200" y="740" on="1"/>
        <pt x="494" y="337" on="1"/>
        <pt x="547" y="254" on="1"/>
        <pt x="556" y="254" on="1"/>
        <pt x="556" y="740" on="1"/>
        <pt x="698" y="740" on="1"/>
        <pt x="698" y="0" on="1"/>
        <pt x="566" y="0" on="1"/>
        <pt x="275" y="399" on="1"/>
        <pt x="220" y="486" on="1"/>
        <pt x="211" y="486" on="1"/>
        <pt x="211" y="0" on="1"/>
        <pt x="68" y="0" on="1"/>
      </contour>
    </TTGlyph>
</ttFont>
